<?xml version="1.0" encoding="utf-8"?>
<!-- Generator: Adobe Illustrator 19.0.0, SVG Export Plug-In . SVG Version: 6.00 Build 0)  -->
<svg version="1.1" id="Layer_1" xmlns="http://www.w3.org/2000/svg" xmlns:xlink="http://www.w3.org/1999/xlink" x="0px" y="0px"
	 viewBox="-149 355.5 312.6 83.5" style="enable-background:new -149 355.5 312.6 83.5;" xml:space="preserve">
<style type="text/css">
	.st0{fill:#DFE5F4;}
</style>
<g>
	<path class="st0" d="M-122.8,397.4c-0.6,0.2-1.3,0.3-2,0.4c-0.7,0.1-1.6,0.1-2.5,0.1h-1.4v4.9h7.2v4.1h-7.2v6.8h-4.3v-6.8h-7.3
		v-4.1h7.3V397c-1.5-0.5-2.8-1.2-4.1-2c-1.2-0.8-2.2-1.9-3.1-3c-0.9-1.2-1.5-2.5-2-3.9c-0.5-1.4-0.7-3-0.7-4.6
		c0-2.1,0.4-4.1,1.2-5.9s1.9-3.3,3.2-4.6c1.4-1.3,3-2.3,4.9-3c1.9-0.7,4-1.1,6.2-1.1c0.9,0,1.7,0,2.5,0.1c0.7,0.1,1.4,0.2,2,0.4v1.4
		c-2.2,0-4.1,0.3-5.7,1c-1.6,0.7-3,1.6-4,2.8c-1.1,1.2-1.9,2.5-2.4,4c-0.5,1.5-0.8,3.1-0.8,4.8c0,1.7,0.3,3.3,0.8,4.8
		c0.5,1.5,1.3,2.9,2.4,4c1.1,1.2,2.4,2.1,4,2.8c1.6,0.7,3.5,1,5.7,1V397.4z"/>
	<path class="st0" d="M-87.8,365.3c1.1,0,2.2,0.1,3.3,0.4c0.4,0.1,0.6,0.1,0.7,0.1c0.2,0,1.3-0.2,3.4-0.7l4.2-0.2
		c0.1,0,1.3,0,3.7,0.1c1.7,0,3.8,0.1,6.4,0.2c0.7,0,2.5,0.9,5.4,2.5l0.5,0.3l1,0.9c2,1.1,3.6,2.4,4.8,3.9c0.9,0.7,2,2,3.3,3.9
		c0.9,2.2,1.4,3.8,1.5,4.7c0.3,2,0.5,3.6,0.5,4.6v3.8v3.5c0.1,1.2-0.4,3.2-1.3,6.1c-0.3,1.1-0.6,1.7-0.8,2c-0.2,0.4-0.7,1.3-1.5,2.5
		c-1,1.6-1.8,2.8-2.5,3.5c-1,1-2,1.7-2.9,2.3c-0.1,0-0.4,0.2-0.8,0.4c-0.4,0.2-0.8,0.4-1,0.6c-0.5,0.2-2.1,0.8-4.7,1.7
		c-0.3,0.1-0.8,0.3-1.4,0.5c-2.1,0.7-3.5,1.1-4.5,1.2c-0.7,0-1.6,0-2.8,0.1c-1.5,0.1-2.3,0.1-2.3,0.1c-0.2,0-0.4,0.1-0.6,0.1
		c-0.3,0-0.4,0-0.5,0.1c-0.1,0-0.4,0-0.9-0.1c-0.5-0.1-0.9-0.2-1.3-0.3c-0.3,0-1.3-0.1-2.8-0.1c-0.9,0-1.6,0-2.3-0.1l-2.2,0.1
		l-2.7-0.1l-1.3,0.1c-0.8,0-1.2-0.5-1.2-1.5c0-0.5,0.2-0.9,0.5-1.2l1.9-1.1c1.3-1,2-2.6,1.9-4.8c-0.1-0.4,0-1.2,0.2-2.5
		c0.2-1.3,0.3-2.1,0.3-2.4c0-0.6-0.1-1.7-0.2-3.3c0-0.2,0-0.4-0.1-0.5c0-0.2,0-0.4,0.1-0.7c0.1-0.9,0.2-1.9,0.2-3.2v-0.4
		c-0.1-0.3-0.1-0.6-0.1-1c0-0.4,0-0.7,0-1l-0.1-3.6c0-0.8-0.1-2.1-0.2-3.7c-0.1-0.8-0.1-1.5-0.1-2c0-0.8,0.1-1.6,0.2-2.4
		c0.2-0.8,0.3-1.5,0.3-1.9c0-0.4-0.1-1.1-0.2-1.9c-0.1-0.9-0.1-1.5-0.2-1.9c-0.3-1.4-0.6-2.3-0.8-2.6c-0.2-0.4-0.6-0.9-1.1-1.5
		c-0.2-0.1-0.4-0.3-0.8-0.5c-0.4-0.2-0.7-0.4-1-0.6c-0.3-0.2-0.5-0.6-0.5-1.2C-91,365.7-90,365.3-87.8,365.3z M-71.7,368.5
		c-4.5,0-6.9,1.5-7,4.5c-0.1,1.2-0.3,2.4-0.6,3.8c-0.1,0-0.1,0.1-0.1,0.2c0,0.1,0.2,1,0.6,2.7v0.8c0,0,0,0.1,0,0.3
		c0,0.1-0.1,0.4-0.1,0.6c0,0.3,0,0.5,0,0.8c-0.1,1.5-0.2,2.5-0.2,3.2c0,1.7,0,3.2-0.1,4.3c-0.1,0.1-0.1,0.3-0.1,0.5
		c0,0.2,0,0.4,0,0.5l0.4,3.3c-0.1,0.9-0.1,1.8-0.2,2.6l-0.1,1.7l-0.2,1.9c0.3,1.9,0.4,3,0.4,3.1c0,0.4-0.1,1.3-0.2,2.5
		c-0.1,0.1-0.1,0.2-0.1,0.4c0,1.2,0.4,2.2,1.3,3.2c0.9,1,1.9,1.5,3.1,1.5c0.3,0,1.2-0.2,2.8-0.7l2.3-0.4l1.8-0.4
		c0.9-0.2,1.7-0.5,2.4-0.9c0.4-0.2,0.9-0.8,1.6-1.5l1.8-2c0.1-0.1,0.3-0.3,0.5-0.6c0.3-0.2,0.4-0.4,0.5-0.6c0.1-0.1,0.1-0.2,0.3-0.4
		c0.1-0.2,0.3-0.4,0.5-0.8c0.2-0.3,0.4-0.7,0.7-0.9c0.1-0.1,0.3-0.4,0.6-0.8c0.3-0.4,0.5-0.6,0.7-0.8c0.3-0.4,0.6-1,0.8-1.8
		c0,0,0-0.4,0.1-1.2c0.1-0.8,0.2-1.4,0.3-2.1l0.5-2.8c0-0.4,0.1-1.2,0.2-2.4c0.1-1.2,0.2-1.9,0.2-2.2l-0.2-2l-0.1-2
		c0-0.5-0.1-1.6-0.2-3.3c-0.1-0.3-0.6-1.3-1.7-3c-0.5-1-1.3-2.3-2.6-4c-0.7-0.6-1.8-1.4-3.4-2.3c-0.9-0.5-1.5-0.9-1.7-1
		c-1.4-0.9-2.3-1.4-2.6-1.5C-69.6,368.6-70.6,368.5-71.7,368.5z"/>
	<path class="st0" d="M-35.9,387.3c0.7,0,1.1,0.5,1.1,1.5c0,0.3-0.1,1.2-0.2,2.5l0.1,0.7v0.9c0,0.2-0.1,1.3-0.2,3.1
		c-0.1,1.7-0.2,2.7-0.2,3l0.2,1.9v5.5l0.2,1.1c0.1,1.5,0.4,2.6,1.1,3.4c0.7,1.1,1.1,1.8,1.1,2.1c0,0.7-0.8,1-2.3,1
		c-0.2,0-0.8,0-2.1-0.1c-0.4,0-0.9-0.1-1.5-0.1h-0.5l-2.5,0.2c-0.6,0-0.9-0.4-0.9-1.2c0-0.3,0-0.5,0.1-0.5c0.3-0.2,0.7-0.7,1.4-1.5
		c0.5-0.5,0.6-0.8,0.5-0.9v-2.2l0.3-2.1l0.1-5.1c0-0.1-0.1-1-0.2-2.5v-0.1c0-0.2,0.1-0.7,0.2-1.2l0.1-0.8c0.1-0.1,0.1-0.4,0.1-0.7
		c0-0.3,0-0.6,0-0.7c0-0.3-0.2-0.7-0.5-1c-0.2-0.2-0.8-0.6-1.8-1.3c-0.1-0.2-0.2-0.4-0.2-0.7c0-0.6,0.4-1.1,1.3-1.5
		c0.9-0.4,1.6-0.7,2-1C-37.4,387.8-36.3,387.3-35.9,387.3z M-38.4,378c1,0,1.9,0.3,2.8,0.9c0.9,0.6,1.3,1.4,1.3,2.3
		c0,0.7-0.4,1.5-1.2,2.3c-0.7,0.9-1.4,1.3-2.2,1.3c-0.6,0-1.5-0.3-2.7-1c-0.6-0.2-0.9-0.6-0.9-1.3c-0.2-1-0.2-1.5-0.2-1.5
		c0-0.5,0.3-1.2,0.8-2C-40.2,378.3-39.4,378-38.4,378z"/>
	<path class="st0" d="M-26.5,404.5c0.2,0,0.5,0.3,0.8,0.8c0.6,1.2,1.7,2.4,3.5,3.6c0.6,0.4,1.3,0.8,2.2,1.1c0.5,0.1,0.8,0.2,1,0.2h2
		c1.1-0.2,2.1-0.7,2.8-1.5c0.6-0.7,0.9-1.6,0.9-2.8c0-1.7-1.1-3.1-3.2-4.1l-2-0.9c-0.2-0.1-1.2-0.8-3.2-2c-0.7-0.3-1.6-0.9-2.7-1.7
		c-1.2-1.3-1.8-2.6-1.8-4c0-1.6,0.5-3,1.5-4.1c1-1.2,2.4-2,4.2-2.5c0.5-0.1,1.5-0.1,2.9-0.1l1.8-0.1c0.3,0,0.7,0,1.1,0.1
		c0.2,0,0.4,0.1,0.6,0.2c0.3,0.1,0.4,0.1,0.5,0.1l2.8-0.6c0.4-0.1,0.6,0.3,0.7,1.5c0.1,0.4,0.1,0.9,0.1,1.5c0,0.4,0,0.9-0.1,1.7
		l-0.1,0.9c0,1.3-0.2,2-0.7,2c-0.5,0-1.4-1-2.6-3.1c-1-1.8-2.2-2.7-3.6-2.7c-1.3,0-2.3,0.5-2.9,1.6c-0.4,0.7-0.6,1.3-0.6,2
		c0,0.8,0.4,1.6,1.3,2.6c0.3,0.4,0.7,0.7,1.1,0.8c0.3,0.1,1,0.3,2.2,0.7l1.5,0.8c0.8,0.3,1.3,0.6,1.7,0.8c1.5,1.2,2.6,2.2,3.1,3
		c0.7,1,1,2.3,1,4c0,1.4-0.5,2.9-1.5,4.7c-0.7,1.3-1.5,2.2-2.3,2.8c-0.8,0.5-1.9,1-3.5,1.5c-1.1,0.3-2,0.5-2.7,0.5
		c-0.6,0-1.3-0.1-2.1-0.4l-1.6-0.9c-0.1,0-0.2-0.1-0.4-0.1c-0.4,0-0.6,0.1-0.8,0.4l-0.7,0.9c-0.2,0.1-0.5,0.2-1.2,0.2
		c-0.5,0-0.9-0.1-1.2-0.3c-0.3-0.2-0.4-0.5-0.3-0.9v-2.3c0-0.3,0-0.6-0.1-0.9c-0.1-0.1-0.1-1-0.1-2.5v-0.3v-0.5v-0.4
		C-27.2,404.9-27,404.5-26.5,404.5z"/>
	<path class="st0" d="M5.5,389.4c0.4,0,0.8-0.3,1.4-0.8c1.3-1,2.6-1.5,4.1-1.5c2.2,0,4.2,0.4,6,1.2c1.6,0.7,2.6,1.5,3.2,2.4
		c0.2,0.2,0.4,0.7,0.8,1.5c0.4,0.8,0.8,2,1.3,3.6c0.2,0.4,0.3,0.9,0.3,1.5c0,1.5,0,3,0.1,4.7l0.1,1.9c0.1,1.4-0.8,3.2-2.5,5.5
		c-1.1,1.4-2.5,2.5-4,3.6c-1.2,0.6-1.8,0.9-2,0.9c-0.3,0.1-1.1,0.3-2.4,0.4l-1.5,0.1l-4.4-0.9c-0.5,0-0.8,1.1-0.8,3.1l-0.1,0.9
		l0.2,2.5l-0.1,7.1c0,1.6,0.7,2.8,2.1,3.6c0,0,0.2,0,0.4,0.1c0.2,0.1,0.5,0.2,0.8,0.4c0.4,0.1,0.7,0.3,1.1,0.4
		c0.3,0.1,0.4,0.3,0.4,0.7c0,0.6-0.4,0.9-1.2,0.9c-0.2,0-0.6,0-1.2,0c-0.6,0-0.9,0-1,0c-0.5,0-1.6,0.1-3.2,0.2
		c-0.2,0-0.3,0.1-0.4,0.1c-0.2,0-0.7,0-1.6-0.1c-0.9-0.1-1.4-0.1-1.6-0.1c-0.1,0-0.4,0-0.9,0c-0.5,0-0.8,0-0.9,0
		c-1.1,0-1.7-0.3-1.7-1c0-0.2,0.2-0.4,0.6-0.7c0.9-0.7,1.5-1.2,1.7-1.7c0.3-0.6,0.5-1.2,0.7-1.8c0-0.4,0.1-2,0.2-4.8l0.2-3
		c0,0,0-0.1-0.1-0.3l-0.2-4.8v-0.8l0.1-2.9l-0.1-1.3c0-0.2,0-0.5,0.1-0.9c0-0.1,0-0.3,0-0.4c0-0.1,0.1-0.3,0.1-0.4
		c0-0.1,0-0.2,0-0.2v-0.1l-0.2-1.9l-0.1-1.8c0-0.7,0-1.2-0.1-1.5c-0.1-0.3-0.1-0.5-0.1-0.7l0.1-1.8l0.1-3.5l0.2-1.9
		c0-0.6-0.3-1.2-0.9-1.7c-0.3-0.1-0.7-0.3-1.3-0.5c-0.5-0.2-0.7-0.5-0.7-1c0-0.4,0.3-0.8,0.8-1.2c0.4-0.2,1.3-0.8,2.9-1.6
		c0.5-0.5,1-1,1.5-1.7c1-1.1,2.1-1.7,3.2-1.7c0.8,0,1.2,0.4,1.2,1.2c0,0.6-0.2,1.1-0.5,1.5c-0.3,0.4-0.4,0.7-0.4,0.8L5.5,389.4z
		 M9.2,391.7c-2,0-3.3,0.6-3.8,1.8c-0.1,0.1-0.2,1.6-0.5,4.4l0.1,1.8L4.9,401v3.1v0.9l0.2,1.5v1.5c0.6,1.5,0.9,2.2,0.9,2.3
		c0.6,0.8,2,1.3,4,1.3c0.2,0,0.8,0,1.9,0.1c1,0.1,2-0.4,3-1.6c1.7-1.9,2.6-4.2,2.6-6.7C17.5,395.6,14.7,391.7,9.2,391.7z"/>
	<path class="st0" d="M38.4,387.1c2.9,0,5.6,1.3,8.2,3.9c1.1,1.2,1.7,2.4,1.7,3.4c0,1.7-0.8,2.5-2.4,2.5c-0.2,0-0.5,0-1-0.1
		c-0.5,0-0.8-0.1-1-0.1c-0.8,0-1.5,0-2.1,0.1c-1.3,0.1-2.1,0.1-2.2,0.1H39h-0.5c-0.7,0-1.2,0-1.5-0.1c-1.5-0.1-2.4-0.2-2.8-0.2
		c-1,0-1.9,0.3-2.6,0.9c-0.4,0.3-0.5,0.8-0.5,1.5c0,0.4,0,0.8,0.1,1.2c0.3,1.9,0.4,3,0.5,3.2c0.4,0.8,1.4,1.8,3,3.1
		c1.2,1,2.1,1.6,2.8,1.7c1,0.3,1.8,0.4,2.6,0.4c1,0,2.5-0.2,4.5-0.7c0.7-0.1,1.3-0.4,2-0.7c0.2-0.1,0.4-0.1,0.5-0.1
		c0.4,0,0.5,0.2,0.5,0.6c0,0.2-0.1,0.6-0.3,0.9l-0.1,0.1c0,0,0,0.1,0,0.2c0,0.1,0,0.2,0,0.3c-0.3,1-0.7,1.7-1.3,2.3
		c-0.1,0.1-0.5,0.4-1.1,0.8c-0.8,0.5-1.6,1-2.4,1.3c-1,0.4-2.5,0.6-4.5,0.6c-0.6,0-1.5-0.2-2.9-0.7c-1.3-0.5-2-0.8-2-0.8
		c-0.6-0.3-1.3-1.1-2.2-2.2c-0.5-0.6-1.5-2-2.8-4.2c-0.7-2-1.1-3.5-1.1-4.4c0,0,0.2-1,0.5-2.8c0.6-3.2,1.3-5.3,2.3-6.4
		c0.6-0.8,1.4-1.9,2.5-3.3C34.2,387.9,36.3,387.1,38.4,387.1z M37.3,389.7c-1.4,0-2.6,0.5-3.6,1.5c-0.7,0.7-1,1.4-1,2.1
		c0,0.5,0.2,0.8,0.7,0.9c0.8,0.3,3.2,0.4,7.1,0.4c1.3,0,2-0.4,2-1.1c0-0.9-0.5-1.9-1.6-2.8C39.9,390,38.8,389.7,37.3,389.7z"/>
	<path class="st0" d="M60.5,398v1.9v1.5c0,0.4,0,0.9,0,1.3c0,0.4-0.1,0.7-0.1,0.9c0,0.2,0,0.4,0,0.5c0,0.3,0.1,0.9,0.2,2
		c0.1,1,0.2,1.7,0.2,2c0,1.5,0.6,2.5,1.9,3.1c1.4,0.8,2.2,1.5,2.2,2c0,0.6-0.6,0.9-1.7,0.9c-0.7,0-2.1-0.1-4.2-0.3h-0.5l-1.2,0.1
		c-0.5,0-1,0.1-1.4,0.1c-1.8,0-2.8-0.4-2.8-1.1c0-0.2,0.1-0.5,0.2-0.7l1.5-1.4c0.4-0.4,0.6-0.8,0.7-1.2c0-1.2,0.2-3.2,0.4-6
		l-0.1-2.4c-0.1-1.3-0.1-2.8-0.2-4.7c-0.2-1.8-0.6-2.9-1.2-3.3l-0.7-0.4l-0.6-0.3c-0.6-0.2-0.8-0.6-0.8-1.1c0-0.4,0.3-0.8,0.8-1.1
		c0.1,0,0.7-0.4,2-1.1c1.3-0.7,2.3-1.3,3-1.9c0.3-0.2,0.8-0.4,1.5-0.6l0.8,1.9c1-0.5,1.8-0.9,2.3-1.2c0.2-0.1,0.6-0.2,1.2-0.4
		c1.2-0.3,2-0.4,2.2-0.4c1.2,0,2.3,0.4,3.1,1.3c0.8,0.9,1.3,1.9,1.3,3.1c0,1.2-0.4,2.1-1.2,2.8c-0.4,0.4-0.9,0.6-1.4,0.6
		c-0.7,0-1.4-0.3-2.1-0.9c-0.3-0.2-0.9-1-2-2.5c-0.1-0.1-0.2-0.1-0.3-0.1c-0.8,0-1.6,1-2.3,3C60.8,394.9,60.5,396.4,60.5,398z"/>
	<path class="st0" d="M74,404.5c0.2,0,0.5,0.3,0.8,0.8c0.6,1.2,1.7,2.4,3.5,3.6c0.6,0.4,1.3,0.8,2.2,1.1c0.5,0.1,0.8,0.2,1,0.2h2
		c1.1-0.2,2.1-0.7,2.8-1.5c0.6-0.7,0.9-1.6,0.9-2.8c0-1.7-1.1-3.1-3.2-4.1l-2-0.9c-0.2-0.1-1.2-0.8-3.2-2c-0.7-0.3-1.6-0.9-2.7-1.7
		c-1.2-1.3-1.8-2.6-1.8-4c0-1.6,0.5-3,1.5-4.1c1-1.2,2.4-2,4.2-2.5c0.5-0.1,1.5-0.1,2.9-0.1l1.8-0.1c0.3,0,0.7,0,1.1,0.1
		c0.2,0,0.4,0.1,0.6,0.2c0.3,0.1,0.4,0.1,0.5,0.1l2.8-0.6c0.4-0.1,0.6,0.3,0.7,1.5c0.1,0.4,0.1,0.9,0.1,1.5c0,0.4,0,0.9-0.1,1.7
		l-0.1,0.9c0,1.3-0.2,2-0.7,2c-0.5,0-1.4-1-2.6-3.1c-1-1.8-2.2-2.7-3.6-2.7c-1.3,0-2.3,0.5-2.9,1.6c-0.4,0.7-0.6,1.3-0.6,2
		c0,0.8,0.4,1.6,1.3,2.6c0.3,0.4,0.7,0.7,1.1,0.8c0.3,0.1,1,0.3,2.2,0.7l1.5,0.8c0.8,0.3,1.3,0.6,1.7,0.8c1.5,1.2,2.6,2.2,3.1,3
		c0.7,1,1,2.3,1,4c0,1.4-0.5,2.9-1.5,4.7c-0.7,1.3-1.5,2.2-2.3,2.8c-0.8,0.5-1.9,1-3.5,1.5c-1.1,0.3-2,0.5-2.7,0.5
		c-0.6,0-1.3-0.1-2.1-0.4l-1.6-0.9c-0.1,0-0.2-0.1-0.4-0.1c-0.4,0-0.6,0.1-0.8,0.4l-0.7,0.9c-0.2,0.1-0.5,0.2-1.2,0.2
		c-0.5,0-0.9-0.1-1.2-0.3c-0.3-0.2-0.4-0.5-0.3-0.9v-2.3c0-0.3,0-0.6-0.1-0.9c-0.1-0.1-0.1-1-0.1-2.5v-0.3v-0.5v-0.4
		C73.4,404.9,73.6,404.5,74,404.5z"/>
	<path class="st0" d="M106.9,390.5h-1c-0.8,0.1-1.2,0.2-1.4,0.4l-0.2,0.1c-0.1,0.1-0.2,0.2-0.3,0.4s-0.3,0.3-0.4,0.4
		c-0.3,0.3-0.8,0.7-1.5,1.1c-0.7,0.5-1.2,0.7-1.5,0.7c-0.9,0-1.4-0.6-1.4-1.7c0-1.1,0.5-2.1,1.5-2.9c0.3-0.3,1.1-0.6,2.5-1l0.9-0.4
		c0.8-0.4,1.5-0.6,2.1-0.6c1.9,0,3.3,0.1,4.1,0.4c1.2,0.4,2.5,1.5,3.8,3.3c0.6,0.8,0.8,1.8,0.8,3.1c0,0,0,0.2,0,0.5
		c0,0.3,0,0.6,0,0.8l-0.1,9.4c0,0.8,0,1.5,0.1,2c0.2,0.7,0.6,1.5,1.4,2.3c0.4,0.4,0.7,0.7,1,0.7l1.2,0.4c0.1,0.1,0.2,0.2,0.2,0.4
		c0,0.3-0.4,0.9-1.2,1.9c-1.2,1.4-2.4,2.1-3.5,2.1c-0.4,0-0.9-0.1-1.5-0.4c-0.1,0-0.5-0.3-1.2-0.9c-0.5-0.4-0.9-0.6-1.2-0.6
		c-0.1,0-0.3,0.2-0.9,0.5c-0.5,0.3-1.3,0.6-2.3,0.9c-1,0.3-2.1,0.4-3.2,0.4c-2.3,0-4.2-0.8-5.9-2.4c-0.4-0.4-0.7-0.9-0.8-1.7
		c-0.1-0.1-0.1-0.2-0.1-0.4c0-0.1,0-0.3,0-0.4c-0.1-0.6-0.1-1-0.2-1.2c0-0.2,0-0.4,0.1-0.5l0.2-2.1c0.1-0.9,0.4-1.7,0.9-2.4
		c1-1.3,2.7-2.5,5.1-3.7c0.1,0,0.2,0,0.5-0.1c0.3-0.1,0.6-0.3,1.1-0.5c0.5-0.2,1-0.4,1.6-0.6c1.3-0.4,2.3-1,2.9-1.6
		c0.8-0.8,1.2-1.5,1.2-2.3c0-0.4-0.4-1.3-1.2-2.5C108.1,391.1,107.5,390.6,106.9,390.5z M109.5,398.9c-0.5,0-1.2,0.4-2.3,1.3
		c-0.1,0-0.3,0.2-0.6,0.5c-1.1,0.8-1.8,1.4-2.3,1.8c-1.3,1.6-2,3-2,4.4c0,1,0.4,1.8,1.2,2.3c1.2,0.8,2.4,1.2,3.6,1.2
		c1.6,0,2.6-1.2,2.8-3.7c0-0.1,0-0.6,0.1-1.3s0.2-1.4,0.3-2.1c0.1-0.3,0.1-0.7,0.1-0.9l-0.1-1.5c-0.1-0.9-0.2-1.4-0.2-1.5
		C110,399.1,109.8,398.9,109.5,398.9z"/>
	<path class="st0" d="M130.9,366.7c0.5,0,0.8,0.3,0.8,0.9l-0.3,1.5l0.2,2.3v0.1c-0.1,0.1-0.1,0.2-0.1,0.4c0,0.2,0,0.3,0,0.5l-0.2,2
		c0,0.8,0,1.5-0.1,2.3v0.3l0.2,3.8l-0.1,0.7l-0.3,6.8l0.3,6.4l0.2,4.8v0.7c-0.2,1.1-0.2,1.8-0.2,2v0.1c0.1,0.1,0.1,0.3,0.1,0.4
		c0,0.1,0,0.3,0,0.4c0,0.2,0.1,0.4,0.1,0.5c0,0.2,0.1,0.4,0.1,0.7c0,0.2,0.1,0.5,0.1,0.8c0.1,0.4,0.2,1.5,0.5,3.2
		c0.4,1,0.7,1.7,1,2.3l0.4,0.5l1,0.9c0.2,0.2,0.2,0.6,0.2,0.9c0,0.5-0.2,0.8-0.6,0.9c-0.5,0-1.3,0.1-2.4,0.1h-1.2h-1.1H129
		c-0.2,0-0.5,0-0.8,0c-0.3,0-0.6,0-0.8,0h-0.5l-1.5-0.1h-0.2c-1.1,0.1-1.8,0.1-1.9,0.1c-0.7,0-1.1-0.2-1.1-0.7
		c0-0.4,0.1-0.7,0.3-0.9l1.4-1.5l0.7-0.9c0.4-0.7,0.7-1.3,0.8-1.7c0.1-0.5,0.2-1.2,0.2-2.2l0.2-2.1l0.1-0.9l0.1-0.7l-0.2-3.1V397
		c0-0.5,0-0.8-0.1-1.1v-0.5c0-0.3,0.1-1.6,0.4-3.9v-0.2v-0.4c-0.2-0.9-0.2-1.4-0.2-1.5v-2.8c0-0.2,0-1,0.1-2.4c0-1.4,0.1-2.4,0.1-3
		c0-0.9,0-1.4-0.1-1.6l-0.6-2c-0.1-0.7-0.2-1.4-0.5-1.9c-0.4-0.6-0.6-0.9-0.8-1l-1.7-0.9c-0.2,0-0.3-0.4-0.3-1
		c0-0.7,0.9-1.4,2.7-2.3c0.4-0.1,1-0.6,1.8-1.3l1.8-1c0.3-0.2,0.6-0.4,1-0.6c0.3-0.2,0.6-0.4,0.8-0.5c0.2-0.1,0.3-0.2,0.5-0.3
		C130.6,366.9,130.7,366.8,130.9,366.7L130.9,366.7z"/>
	<path class="st0" d="M139.7,404.5c0.2,0,0.5,0.3,0.8,0.8c0.6,1.2,1.7,2.4,3.5,3.6c0.6,0.4,1.3,0.8,2.2,1.1c0.5,0.1,0.8,0.2,1,0.2h2
		c1.1-0.2,2.1-0.7,2.8-1.5c0.6-0.7,0.9-1.6,0.9-2.8c0-1.7-1.1-3.1-3.2-4.1l-2-0.9c-0.2-0.1-1.2-0.8-3.2-2c-0.7-0.3-1.6-0.9-2.7-1.7
		c-1.2-1.3-1.8-2.6-1.8-4c0-1.6,0.5-3,1.5-4.1c1-1.2,2.4-2,4.2-2.5c0.5-0.1,1.5-0.1,2.9-0.1l1.8-0.1c0.3,0,0.7,0,1.1,0.1
		c0.2,0,0.4,0.1,0.6,0.2c0.3,0.1,0.4,0.1,0.5,0.1l2.8-0.6c0.4-0.1,0.6,0.3,0.7,1.5c0.1,0.4,0.1,0.9,0.1,1.5c0,0.4,0,0.9-0.1,1.7
		l-0.1,0.9c0,1.3-0.2,2-0.7,2c-0.5,0-1.4-1-2.6-3.1c-1-1.8-2.2-2.7-3.6-2.7c-1.3,0-2.3,0.5-2.9,1.6c-0.4,0.7-0.6,1.3-0.6,2
		c0,0.8,0.4,1.6,1.3,2.6c0.3,0.4,0.7,0.7,1.1,0.8c0.3,0.1,1,0.3,2.2,0.7l1.5,0.8c0.8,0.3,1.3,0.6,1.7,0.8c1.5,1.2,2.6,2.2,3.1,3
		c0.7,1,1,2.3,1,4c0,1.4-0.5,2.9-1.5,4.7c-0.7,1.3-1.5,2.2-2.3,2.8c-0.8,0.5-1.9,1-3.5,1.5c-1.1,0.3-2,0.5-2.7,0.5
		c-0.6,0-1.3-0.1-2.1-0.4l-1.6-0.9c-0.1,0-0.2-0.1-0.4-0.1c-0.4,0-0.6,0.1-0.8,0.4l-0.7,0.9c-0.2,0.1-0.5,0.2-1.2,0.2
		c-0.5,0-0.9-0.1-1.2-0.3c-0.3-0.2-0.4-0.5-0.3-0.9v-2.3c0-0.3,0-0.6-0.1-0.9c-0.1-0.1-0.1-1-0.1-2.5v-0.3v-0.5v-0.4
		C139.1,404.9,139.3,404.5,139.7,404.5z"/>
</g>
</svg>
