<?xml version="1.0" encoding="utf-8"?>
<!-- Generator: Adobe Illustrator 19.0.0, SVG Export Plug-In . SVG Version: 6.00 Build 0)  -->
<svg version="1.1" id="Layer_1" xmlns="http://www.w3.org/2000/svg" xmlns:xlink="http://www.w3.org/1999/xlink" x="0px" y="0px"
	 viewBox="-15 167 368.5 420.5" style="enable-background:new -15 167 368.5 420.5;" xml:space="preserve">
<style type="text/css">
	.st0{opacity:0.86;}
	.st1{fill:#FFFFFF;}
	.st2{opacity:0.86;fill:#FFFFFF;}
	.st3{opacity:0.88;}
	.st4{opacity:0.8;}
	.st5{opacity:0.74;}
	.st6{fill:#FFFFFF;stroke:#FFFFFF;stroke-width:1.7123;stroke-miterlimit:10;}
	.st7{fill:#FFFFFF;stroke:#FFFFFF;stroke-width:1.2842;stroke-miterlimit:10;}
	.st8{fill:none;}
	.st9{font-family:'CaslonAntique';}
	.st10{font-size:53.99px;}
</style>
<g id="XMLID_9_">
	<g id="XMLID_13_">
		<g id="XMLID_17_">
			<g id="XMLID_206_" class="st0">
				<path id="XMLID_210_" class="st1" d="M142.2,378.7c0,1-0.2,1.9-0.6,2.8c-0.4,0.9-0.9,1.6-1.6,2.3c-0.7,0.6-1.5,1.1-2.4,1.5
					s-1.9,0.6-2.9,0.6c-1,0-2-0.2-2.9-0.6s-1.7-0.9-2.4-1.5c-0.7-0.6-1.2-1.4-1.6-2.3c-0.4-0.9-0.6-1.8-0.6-2.8s0.2-1.9,0.6-2.8
					c0.4-0.9,0.9-1.6,1.6-2.3c0.7-0.6,1.5-1.1,2.4-1.5s1.9-0.6,2.9-0.6c1,0,2,0.2,2.9,0.6s1.7,0.9,2.4,1.5c0.7,0.6,1.2,1.4,1.6,2.3
					C142,376.8,142.2,377.7,142.2,378.7z M132,380c0.2,0,0.4,0,0.5-0.1s0.3-0.2,0.4-0.3c0.1-0.1,0.2-0.2,0.3-0.4s0.1-0.3,0.1-0.5
					c0-0.2,0-0.3-0.1-0.5s-0.2-0.3-0.3-0.4c-0.1-0.1-0.3-0.2-0.4-0.3s-0.3-0.1-0.5-0.1c-0.2,0-0.4,0-0.5,0.1
					c-0.2,0.1-0.3,0.2-0.4,0.3c-0.1,0.1-0.2,0.3-0.3,0.4s-0.1,0.3-0.1,0.5c0,0.2,0,0.3,0.1,0.5s0.2,0.3,0.3,0.4
					c0.1,0.1,0.3,0.2,0.4,0.3C131.6,380,131.8,380,132,380z M137.3,380c0.2,0,0.4,0,0.5-0.1c0.2-0.1,0.3-0.2,0.4-0.3
					c0.1-0.1,0.2-0.2,0.3-0.4c0.1-0.2,0.1-0.3,0.1-0.5c0-0.2,0-0.3-0.1-0.5c-0.1-0.2-0.2-0.3-0.3-0.4c-0.1-0.1-0.3-0.2-0.4-0.3
					c-0.2-0.1-0.3-0.1-0.5-0.1c-0.2,0-0.4,0-0.5,0.1c-0.2,0.1-0.3,0.2-0.4,0.3c-0.1,0.1-0.2,0.3-0.3,0.4c-0.1,0.2-0.1,0.3-0.1,0.5
					c0,0.2,0,0.3,0.1,0.5c0.1,0.2,0.2,0.3,0.3,0.4c0.1,0.1,0.3,0.2,0.4,0.3C137,380,137.2,380,137.3,380z"/>
			</g>
			<g id="XMLID_201_" class="st0">
				<path id="XMLID_202_" class="st1" d="M194.3,375.9c0.4-0.9,0.9-1.6,1.6-2.3c0.7-0.6,1.5-1.1,2.4-1.5s1.9-0.6,2.9-0.6
					c1,0,2,0.2,2.9,0.6s1.7,0.9,2.4,1.5c0.7,0.6,1.2,1.4,1.6,2.3c0.4,0.9,0.6,1.8,0.6,2.8s-0.2,1.9-0.6,2.8
					c-0.4,0.9-0.9,1.6-1.6,2.3c-0.7,0.6-1.5,1.1-2.4,1.5s-1.9,0.6-2.9,0.6c-1,0-2-0.2-2.9-0.6s-1.7-0.9-2.4-1.5
					c-0.7-0.6-1.2-1.4-1.6-2.3c-0.4-0.9-0.6-1.8-0.6-2.8S193.9,376.8,194.3,375.9z M204.4,379.9c0.2-0.1,0.3-0.2,0.4-0.3
					c0.1-0.1,0.2-0.2,0.3-0.4c0.1-0.2,0.1-0.3,0.1-0.5c0-0.2,0-0.3-0.1-0.5c-0.1-0.2-0.2-0.3-0.3-0.4c-0.1-0.1-0.3-0.2-0.4-0.3
					c-0.2-0.1-0.3-0.1-0.5-0.1c-0.2,0-0.4,0-0.5,0.1c-0.2,0.1-0.3,0.2-0.4,0.3c-0.1,0.1-0.2,0.3-0.3,0.4c-0.1,0.2-0.1,0.3-0.1,0.5
					c0,0.2,0,0.3,0.1,0.5c0.1,0.2,0.2,0.3,0.3,0.4c0.1,0.1,0.3,0.2,0.4,0.3c0.2,0.1,0.3,0.1,0.5,0.1
					C204.1,380,204.3,379.9,204.4,379.9z M199.1,379.9c0.2-0.1,0.3-0.2,0.4-0.3s0.2-0.2,0.3-0.4s0.1-0.3,0.1-0.5
					c0-0.2,0-0.3-0.1-0.5s-0.2-0.3-0.3-0.4c-0.1-0.1-0.3-0.2-0.4-0.3c-0.2-0.1-0.3-0.1-0.5-0.1c-0.2,0-0.4,0-0.5,0.1
					c-0.2,0.1-0.3,0.2-0.4,0.3c-0.1,0.1-0.2,0.3-0.3,0.4s-0.1,0.3-0.1,0.5c0,0.2,0,0.3,0.1,0.5s0.2,0.3,0.3,0.4
					c0.1,0.1,0.3,0.2,0.4,0.3c0.2,0.1,0.3,0.1,0.5,0.1C198.8,380,198.9,379.9,199.1,379.9z"/>
			</g>
			<ellipse id="XMLID_200_" class="st2" cx="144.9" cy="355.3" rx="5.5" ry="5.3"/>
			<ellipse id="XMLID_199_" class="st2" cx="189.3" cy="355.3" rx="5.5" ry="5.3"/>
			<g id="XMLID_50_">
				<g id="XMLID_196_">
					<g id="XMLID_197_">
						<path class="st1" d="M169.4,483.1c-3.5,0-6.7-1.7-9.6-5c-2.9-3.4-5.5-8-7.6-13.8c-2.1-5.9-3.8-12.7-5-20.6s-1.8-16.4-1.8-25.6
							c0-8.8,0.6-17.1,1.8-25s2.9-14.7,5.1-20.6s4.7-10.5,7.7-13.8c2.9-3.4,6.1-5,9.5-5s6.6,1.7,9.5,5c2.9,3.4,5.5,8,7.7,13.8
							s3.9,12.7,5.1,20.4c1.2,7.8,1.8,16.1,1.8,25.1s-0.6,17.5-1.8,25.5c-1.2,8-2.9,14.9-5.1,20.7s-4.7,10.5-7.7,13.8
							C175.9,481.4,172.8,483.1,169.4,483.1z"/>
						<g>
							<path class="st1" d="M169.3,481.3c-9.2-0.6-13.7-13.1-16.1-20.4c-2.8-8.7-4.4-17.8-5.2-26.9c-1.6-18.4-0.9-37.6,4.3-55.4
								c2.2-7.5,5.7-18.3,13.2-22.2c9.7-5,16.4,9.8,18.9,16.6c6.3,16.9,7.5,35.8,6.7,53.6c-0.5,10.3-1.8,20.7-4.6,30.7
								C184.3,465.4,179.6,480.6,169.3,481.3c-2.7,0.2-2.6,3.8,0.1,3.6c8.6-0.5,13.8-8.1,17.1-15.3c4.6-9.8,6.7-20.7,7.9-31.4
								c2.6-22.2,1.9-47.1-6.6-68c-2.9-7.2-7.7-16.5-16.1-18.2c-8.2-1.6-14.3,5.2-17.9,11.7c-10.7,19.2-11.7,44.5-10.4,65.8
								c0.7,11.9,2.5,24,6.6,35.2c3.3,8.9,8.7,19.5,19.3,20.1C172.1,485,172,481.4,169.3,481.3z"/>
						</g>
					</g>
				</g>
				<g id="XMLID_192_" class="st3">
					<g id="XMLID_193_">
						<path class="st1" d="M347.7,404.7c0,3.6-0.4,7.2-1.3,10.5c-0.8,3.4-2,6.5-3.6,9.5c-1.5,2.9-3.4,5.6-5.6,8
							c-2.2,2.4-4.6,4.4-7.2,6.2s-5.5,3-8.5,4c-3,0.9-6.2,1.4-9.5,1.4c-0.7,0-1.3,0-2-0.1s-1.3-0.1-2.1-0.2
							c-0.7-0.1-1.5-0.2-2.3-0.4c-0.8-0.2-1.8-0.4-2.8-0.6l-11.5-3c-3.6-0.9-6.9-2.5-10-4.6c-3.1-2.1-5.8-4.7-8.1-7.8
							c-2.3-3.1-4.1-6.5-5.4-10.4c-1.3-3.9-2-8-2-12.4c0-4.4,0.7-8.6,2-12.4c1.3-3.9,3.1-7.4,5.4-10.4c2.3-3.1,5-5.7,8.1-7.8
							c3.1-2.1,6.4-3.7,10-4.6l11.5-3c1-0.2,2-0.4,2.8-0.6c0.8-0.2,1.6-0.3,2.3-0.4c0.7-0.1,1.4-0.1,2.1-0.2s1.3-0.1,2-0.1
							c3.3,0,6.4,0.5,9.5,1.4c3,0.9,5.9,2.2,8.5,4s5,3.8,7.2,6.2c2.2,2.4,4,5,5.6,8c1.5,2.9,2.7,6.1,3.6,9.5
							S347.7,401.1,347.7,404.7z M344.4,404.7c0-4.9-0.8-9.6-2.5-14s-4-8.2-6.9-11.5c-2.9-3.3-6.3-5.9-10.3-7.8
							c-3.9-1.9-8.1-2.9-12.6-2.9c-3,0-5.9,0.4-8.6,1.3c-2.8,0.9-5.4,2.1-7.8,3.7c-2.4,1.6-4.6,3.5-6.6,5.7s-3.7,4.6-5.1,7.3
							c-1.4,2.7-2.5,5.6-3.3,8.6c-0.8,3.1-1.2,6.3-1.2,9.5c0,4.9,0.8,9.6,2.5,13.9c1.7,4.4,4,8.2,6.9,11.5c2.9,3.3,6.4,5.9,10.3,7.8
							s8.2,2.9,12.7,2.9c4.5,0,8.6-1,12.6-2.9c3.9-1.9,7.3-4.5,10.3-7.8c2.9-3.3,5.2-7.1,6.9-11.5
							C343.6,414.3,344.4,409.6,344.4,404.7z"/>
						<g>
							<path class="st1" d="M345.7,405.5c-0.4,19.9-15,41-37.2,37.3c-9.9-1.6-21.6-4.5-29.1-11.4c-14-12.9-15.3-36.6-3.3-51.2
								c5-6.1,11.5-9.1,18.8-11c4.6-1.2,9.2-2.7,13.9-3C330.8,365.1,345.3,385.3,345.7,405.5c0,0.5,4-0.3,4-1.6
								c-0.4-20.7-15.3-40.4-37.3-39.7c-5.7,0.2-11.3,1.9-16.8,3.4c-6.7,1.7-12.9,4-18.3,8.5c-16.4,13.7-17.9,40.7-2.8,55.9
								c5.6,5.7,12.4,8.1,19.9,10.1c5.7,1.5,11.4,3.2,17.3,3.1c22.1-0.6,37.6-20.1,38-41.3C349.7,403.5,345.8,404.3,345.7,405.5z"/>
							<path class="st1" d="M346.4,403.9c-0.3-15.8-9.9-31.9-26.1-35.6c-13.2-3-27.4,3.3-35.3,14c-9.4,13-9.8,31.3-1,44.7
								c8,12,22.6,17.7,36.5,13.3C336.5,435.3,346,420.2,346.4,403.9c0-0.5-4,0.3-4,1.6c-0.4,19-15.4,39.3-36.6,33.3
								c-15-4.3-24.2-19.8-24.2-34.9c0-19.1,15.8-39.3,36.7-33.3c15.2,4.4,23.8,19.8,24.1,34.9C342.4,406.1,346.4,405.2,346.4,403.9
								z"/>
						</g>
					</g>
				</g>
				<g id="XMLID_186_" class="st3">
					<g id="XMLID_187_">
						<path class="st1" d="M-8.7,408.6c0-3.6,0.4-7.2,1.3-10.5s2-6.5,3.6-9.5s3.4-5.6,5.6-8c2.2-2.4,4.6-4.4,7.2-6.2
							c2.6-1.7,5.5-3,8.5-4c3-0.9,6.2-1.4,9.5-1.4c0.7,0,1.3,0,2,0.1c0.6,0,1.3,0.1,2.1,0.2c0.7,0.1,1.5,0.2,2.3,0.4
							c0.8,0.2,1.8,0.4,2.8,0.6l11.5,3c3.6,0.9,6.9,2.5,10,4.6s5.8,4.7,8.1,7.8c2.3,3.1,4.1,6.5,5.4,10.4c1.3,3.9,2,8,2,12.4
							c0,4.4-0.7,8.6-2,12.4c-1.3,3.9-3.1,7.4-5.4,10.4c-2.3,3.1-5,5.7-8.1,7.8c-3.1,2.1-6.4,3.7-10,4.6l-11.5,3
							c-1,0.2-2,0.4-2.8,0.6s-1.6,0.3-2.3,0.4c-0.7,0.1-1.4,0.1-2.1,0.2s-1.3,0.1-2,0.1c-3.3,0-6.4-0.5-9.5-1.4s-5.9-2.2-8.5-4
							s-5-3.8-7.2-6.2c-2.2-2.4-4-5-5.6-8s-2.7-6.1-3.6-9.5C-8.3,415.8-8.7,412.2-8.7,408.6z M-5.4,408.6c0,4.9,0.8,9.6,2.5,14
							c1.7,4.4,4,8.2,6.9,11.5c2.9,3.3,6.3,5.9,10.3,7.8s8.1,2.9,12.6,2.9c3,0,5.9-0.4,8.6-1.3c2.8-0.9,5.4-2.1,7.8-3.7
							c2.4-1.6,4.6-3.5,6.6-5.7c2-2.2,3.7-4.6,5.1-7.3c1.4-2.7,2.5-5.6,3.3-8.6s1.2-6.3,1.2-9.5c0-4.9-0.8-9.6-2.5-13.9
							c-1.7-4.4-4-8.2-6.9-11.5c-2.9-3.3-6.4-5.9-10.3-7.8c-4-1.9-8.2-2.9-12.7-2.9c-4.5,0-8.6,1-12.6,2.9
							c-3.9,1.9-7.3,4.5-10.3,7.8s-5.2,7.1-6.9,11.5S-5.4,403.7-5.4,408.6z"/>
						<g>
							<path class="st1" d="M-7.1,409.7C-6.8,391.9,4.4,374,23,371.2c5.9-0.9,11.4,0.4,17.1,1.8c5,1.3,10.2,2.3,14.8,4.8
								c18.8,10.3,21.4,37.3,8.4,53.2c-7.5,9.1-18.7,11.9-29.7,14.3c-23,5-40.3-14.1-40.7-36.1c0-1.5-3.2-3.9-3.2-1.4
								c0.4,18.7,12.1,37.7,31.4,41.5c7.2,1.4,13.8-0.1,20.7-1.9c6.8-1.8,13.3-3.4,19-8c16.1-12.8,17.9-37.5,6.3-53.8
								c-8.2-11.5-22.3-15.9-35.7-18.1c-23.8-3.9-41.3,17.7-41.7,39.8C-10.3,408.9-7.2,411.7-7.1,409.7z"/>
							<path class="st1" d="M-7,407.8c0.3,14.5,7.7,28.5,20.8,35.3c14,7.3,30.7,2,39.8-10.4c17-23.4,1.7-64.7-30.2-62.1
								C4.9,372.2-6.6,390.1-7,407.4c0,1.5,3.1,4.2,3.2,2.2c0.3-15.8,10.2-32.2,26.8-35c19.7-3.3,34.7,14.3,34.8,32.9
								c0,16.2-10.7,32.4-27.4,35c-19.9,3-33.7-14.9-34.1-33.3C-3.9,407.7-7,405.3-7,407.8z"/>
						</g>
					</g>
				</g>
				<g id="XMLID_90_" class="st4">
					<path id="XMLID_172_" class="st1" d="M139.4,410.8c0,1.6-0.3,3.1-1,4.6c-0.6,1.4-1.5,2.6-2.6,3.7c-1.1,1-2.4,1.9-3.9,2.5
						c-1.5,0.6-3.1,0.9-4.8,0.9c-1.7,0-3.3-0.3-4.8-0.9c-1.5-0.6-2.8-1.4-3.9-2.5c-1.1-1-2-2.3-2.6-3.7c-0.6-1.4-1-2.9-1-4.6
						c0-1.6,0.3-3.1,1-4.5c0.6-1.4,1.5-2.6,2.6-3.7c1.1-1,2.4-1.9,3.9-2.5c1.5-0.6,3.1-0.9,4.8-0.9c1.7,0,3.3,0.3,4.8,0.9
						c1.5,0.6,2.8,1.4,3.9,2.5c1.1,1,2,2.3,2.6,3.7C139.1,407.6,139.4,409.1,139.4,410.8z M122.7,412.8c0.3,0,0.6-0.1,0.8-0.2
						c0.3-0.1,0.5-0.3,0.7-0.4c0.2-0.2,0.4-0.4,0.5-0.7c0.1-0.3,0.2-0.5,0.2-0.8c0-0.3-0.1-0.6-0.2-0.8c-0.1-0.3-0.3-0.5-0.5-0.7
						c-0.2-0.2-0.4-0.3-0.7-0.5c-0.3-0.1-0.5-0.2-0.8-0.2s-0.6,0.1-0.8,0.2c-0.3,0.1-0.5,0.3-0.7,0.5c-0.2,0.2-0.3,0.4-0.5,0.7
						c-0.1,0.3-0.2,0.5-0.2,0.8c0,0.3,0.1,0.6,0.2,0.8c0.1,0.3,0.3,0.5,0.5,0.7c0.2,0.2,0.4,0.3,0.7,0.4
						C122.2,412.8,122.4,412.8,122.7,412.8z M131.4,412.8c0.3,0,0.6-0.1,0.8-0.2c0.3-0.1,0.5-0.3,0.7-0.4s0.4-0.4,0.5-0.7
						s0.2-0.5,0.2-0.8c0-0.3-0.1-0.6-0.2-0.8s-0.3-0.5-0.5-0.7c-0.2-0.2-0.4-0.3-0.7-0.5c-0.3-0.1-0.5-0.2-0.8-0.2
						c-0.3,0-0.6,0.1-0.8,0.2s-0.5,0.3-0.7,0.5c-0.2,0.2-0.3,0.4-0.5,0.7c-0.1,0.3-0.2,0.5-0.2,0.8c0,0.3,0.1,0.6,0.2,0.8
						c0.1,0.3,0.3,0.5,0.5,0.7c0.2,0.2,0.4,0.3,0.7,0.4S131.1,412.8,131.4,412.8z"/>
				</g>
				<g id="XMLID_78_" class="st4">
					<path id="XMLID_81_" class="st1" d="M142.2,445.7c0,1-0.2,1.9-0.6,2.8c-0.4,0.9-0.9,1.6-1.6,2.3s-1.5,1.1-2.4,1.5
						s-1.9,0.6-2.9,0.6c-1,0-2-0.2-2.9-0.6s-1.7-0.9-2.4-1.5s-1.2-1.4-1.6-2.3c-0.4-0.9-0.6-1.8-0.6-2.8s0.2-1.9,0.6-2.8
						c0.4-0.9,0.9-1.6,1.6-2.3c0.7-0.6,1.5-1.1,2.4-1.5s1.9-0.6,2.9-0.6c1,0,2,0.2,2.9,0.6s1.7,0.9,2.4,1.5c0.7,0.6,1.2,1.4,1.6,2.3
						C142,443.7,142.2,444.7,142.2,445.7z M132,446.9c0.2,0,0.4,0,0.5-0.1c0.2-0.1,0.3-0.2,0.4-0.3c0.1-0.1,0.2-0.2,0.3-0.4
						s0.1-0.3,0.1-0.5c0-0.2,0-0.3-0.1-0.5s-0.2-0.3-0.3-0.4c-0.1-0.1-0.3-0.2-0.4-0.3c-0.2-0.1-0.3-0.1-0.5-0.1
						c-0.2,0-0.4,0-0.5,0.1c-0.2,0.1-0.3,0.2-0.4,0.3c-0.1,0.1-0.2,0.3-0.3,0.4s-0.1,0.3-0.1,0.5c0,0.2,0,0.3,0.1,0.5
						s0.2,0.3,0.3,0.4c0.1,0.1,0.3,0.2,0.4,0.3C131.6,446.9,131.8,446.9,132,446.9z M137.3,446.9c0.2,0,0.4,0,0.5-0.1
						c0.2-0.1,0.3-0.2,0.4-0.3s0.2-0.2,0.3-0.4c0.1-0.2,0.1-0.3,0.1-0.5c0-0.2,0-0.3-0.1-0.5c-0.1-0.2-0.2-0.3-0.3-0.4
						c-0.1-0.1-0.3-0.2-0.4-0.3c-0.2-0.1-0.3-0.1-0.5-0.1c-0.2,0-0.4,0-0.5,0.1c-0.2,0.1-0.3,0.2-0.4,0.3c-0.1,0.1-0.2,0.3-0.3,0.4
						c-0.1,0.2-0.1,0.3-0.1,0.5c0,0.2,0,0.3,0.1,0.5c0.1,0.2,0.2,0.3,0.3,0.4c0.1,0.1,0.3,0.2,0.4,0.3
						C137,446.9,137.2,446.9,137.3,446.9z"/>
				</g>
				<g id="XMLID_73_" class="st4">
					<path id="XMLID_74_" class="st1" d="M198.9,406.1c0.6-1.4,1.5-2.6,2.6-3.7c1.1-1,2.4-1.9,3.9-2.5c1.5-0.6,3.1-0.9,4.8-0.9
						s3.3,0.3,4.8,0.9c1.5,0.6,2.8,1.4,3.9,2.5c1.1,1,2,2.3,2.6,3.7c0.6,1.4,1,2.9,1,4.5s-0.3,3.1-1,4.6c-0.6,1.4-1.5,2.6-2.6,3.7
						c-1.1,1-2.4,1.9-3.9,2.5c-1.5,0.6-3.1,0.9-4.8,0.9s-3.3-0.3-4.8-0.9c-1.5-0.6-2.8-1.4-3.9-2.5c-1.1-1-2-2.3-2.6-3.7
						c-0.6-1.4-1-2.9-1-4.6S198.3,407.5,198.9,406.1z M215.4,412.6c0.3-0.1,0.5-0.3,0.7-0.4c0.2-0.2,0.3-0.4,0.5-0.7
						c0.1-0.3,0.2-0.5,0.2-0.8s-0.1-0.6-0.2-0.8c-0.1-0.3-0.3-0.5-0.5-0.7c-0.2-0.2-0.4-0.3-0.7-0.5s-0.5-0.2-0.8-0.2
						s-0.6,0.1-0.8,0.2c-0.3,0.1-0.5,0.3-0.7,0.5c-0.2,0.2-0.4,0.4-0.5,0.7c-0.1,0.3-0.2,0.5-0.2,0.8s0.1,0.6,0.2,0.8
						c0.1,0.3,0.3,0.5,0.5,0.7s0.4,0.3,0.7,0.4c0.3,0.1,0.5,0.2,0.8,0.2S215.2,412.7,215.4,412.6z M206.7,412.6
						c0.3-0.1,0.5-0.3,0.7-0.4c0.2-0.2,0.3-0.4,0.5-0.7c0.1-0.3,0.2-0.5,0.2-0.8s-0.1-0.6-0.2-0.8c-0.1-0.3-0.3-0.5-0.5-0.7
						c-0.2-0.2-0.4-0.3-0.7-0.5c-0.3-0.1-0.5-0.2-0.8-0.2s-0.6,0.1-0.8,0.2s-0.5,0.3-0.7,0.5c-0.2,0.2-0.4,0.4-0.5,0.7
						c-0.1,0.3-0.2,0.5-0.2,0.8s0.1,0.6,0.2,0.8c0.1,0.3,0.3,0.5,0.5,0.7c0.2,0.2,0.4,0.3,0.7,0.4s0.5,0.2,0.8,0.2
						S206.5,412.7,206.7,412.6z"/>
				</g>
				<g id="XMLID_84_" class="st4">
					<path id="XMLID_85_" class="st1" d="M197.9,442.9c0.4-0.9,0.9-1.6,1.6-2.3c0.7-0.6,1.5-1.1,2.4-1.5s1.9-0.6,2.9-0.6
						c1,0,2,0.2,2.9,0.6s1.7,0.9,2.4,1.5c0.7,0.6,1.2,1.4,1.6,2.3c0.4,0.9,0.6,1.8,0.6,2.8s-0.2,1.9-0.6,2.8
						c-0.4,0.9-0.9,1.6-1.6,2.3c-0.7,0.6-1.5,1.1-2.4,1.5s-1.9,0.6-2.9,0.6c-1,0-2-0.2-2.9-0.6s-1.7-0.9-2.4-1.5
						c-0.7-0.6-1.2-1.4-1.6-2.3c-0.4-0.9-0.6-1.8-0.6-2.8S197.5,443.7,197.9,442.9z M208.1,446.8c0.2-0.1,0.3-0.2,0.4-0.3
						c0.1-0.1,0.2-0.2,0.3-0.4c0.1-0.2,0.1-0.3,0.1-0.5c0-0.2,0-0.3-0.1-0.5c-0.1-0.2-0.2-0.3-0.3-0.4c-0.1-0.1-0.3-0.2-0.4-0.3
						s-0.3-0.1-0.5-0.1c-0.2,0-0.4,0-0.5,0.1c-0.2,0.1-0.3,0.2-0.4,0.3c-0.1,0.1-0.2,0.3-0.3,0.4s-0.1,0.3-0.1,0.5
						c0,0.2,0,0.3,0.1,0.5s0.2,0.3,0.3,0.4c0.1,0.1,0.3,0.2,0.4,0.3c0.2,0.1,0.3,0.1,0.5,0.1C207.7,446.9,207.9,446.9,208.1,446.8z
						 M202.7,446.8c0.2-0.1,0.3-0.2,0.4-0.3c0.1-0.1,0.2-0.2,0.3-0.4c0.1-0.2,0.1-0.3,0.1-0.5c0-0.2,0-0.3-0.1-0.5
						c-0.1-0.2-0.2-0.3-0.3-0.4c-0.1-0.1-0.3-0.2-0.4-0.3c-0.2-0.1-0.3-0.1-0.5-0.1c-0.2,0-0.4,0-0.5,0.1c-0.2,0.1-0.3,0.2-0.4,0.3
						c-0.1,0.1-0.2,0.3-0.3,0.4c-0.1,0.2-0.1,0.3-0.1,0.5c0,0.2,0,0.3,0.1,0.5c0.1,0.2,0.2,0.3,0.3,0.4c0.1,0.1,0.3,0.2,0.4,0.3
						c0.2,0.1,0.3,0.1,0.5,0.1C202.4,446.9,202.5,446.9,202.7,446.8z"/>
				</g>
				<g id="XMLID_70_">
					<path id="XMLID_71_" class="st1" d="M113.2,561.7h47.9v-51.3c-10.4-1.3-20.1-4.6-29.2-10.2c-9.1-5.5-17-12.6-23.7-21.3
						c-6.7-8.7-12-18.7-15.8-30c-3.9-11.3-5.8-23.3-5.8-36c0-12.7,1.9-24.7,5.7-36c3.8-11.3,9.1-21.3,15.8-30
						c6.7-8.7,14.6-15.8,23.7-21.3c9.1-5.5,18.9-8.9,29.3-10.2V264h-47.9v-19.5h112.3V264h-47.9v51.3c10.4,1.3,20.1,4.7,29.2,10.2
						c9.1,5.6,17,12.7,23.7,21.4c6.7,8.7,12,18.7,15.8,30c3.9,11.3,5.8,23.2,5.8,35.8c0,12.7-1.9,24.7-5.8,35.9
						c-3.9,11.2-9.2,21.2-15.9,29.9c-6.7,8.7-14.6,15.9-23.7,21.4s-18.8,9-29.1,10.2v51.3h47.9v19.5H113.2V561.7z M103.9,412.8
						c0,10.8,1.7,21,5.1,30.5c3.4,9.5,8.1,17.8,14,24.9c5.9,7.1,12.8,12.7,20.8,16.8c7.9,4.1,16.4,6.2,25.5,6.2
						c9,0,17.6-2.1,25.6-6.2c8-4.1,14.9-9.8,20.9-16.8c5.9-7.1,10.6-15.4,14-24.9c3.4-9.5,5.1-19.7,5.1-30.5c0-10.8-1.7-21-5.1-30.5
						c-3.4-9.5-8.1-17.8-14-24.9c-5.9-7.1-12.9-12.7-20.8-16.8c-7.9-4.1-16.5-6.2-25.6-6.2c-9.1,0-17.7,2.1-25.6,6.2
						c-7.9,4.1-14.9,9.8-20.8,16.8c-5.9,7.1-10.5,15.4-13.9,24.9C105.6,391.9,103.9,402,103.9,412.8z"/>
				</g>
				<g id="XMLID_64_" class="st5">
					<path id="XMLID_65_" class="st6" d="M330.2,401.7c0.5,0,1.1,0.1,1.5,0.3c0.5,0.2,0.9,0.5,1.3,0.8c0.4,0.3,0.6,0.7,0.8,1.2
						c0.2,0.5,0.3,0.9,0.3,1.5c0,0.5-0.1,1-0.3,1.5c-0.2,0.5-0.5,0.9-0.8,1.2c-0.4,0.3-0.8,0.6-1.3,0.8c-0.5,0.2-1,0.3-1.5,0.3
						c-0.5,0-1-0.1-1.5-0.3c-0.5-0.2-0.9-0.5-1.3-0.8c-0.4-0.3-0.6-0.7-0.8-1.2c-0.2-0.5-0.3-0.9-0.3-1.5c0-0.5,0.1-1,0.3-1.5
						c0.2-0.5,0.5-0.9,0.8-1.2c0.4-0.3,0.8-0.6,1.3-0.8C329.2,401.8,329.7,401.7,330.2,401.7z M330.2,407.7c0.3,0,0.6-0.1,0.9-0.2
						c0.3-0.1,0.5-0.3,0.7-0.5c0.2-0.2,0.3-0.4,0.4-0.7c0.1-0.3,0.2-0.5,0.2-0.8s-0.1-0.5-0.2-0.8c-0.1-0.3-0.3-0.5-0.4-0.7
						c-0.2-0.2-0.4-0.4-0.7-0.5c-0.3-0.1-0.6-0.2-0.9-0.2c-0.3,0-0.6,0.1-0.8,0.2c-0.3,0.1-0.5,0.3-0.7,0.5
						c-0.2,0.2-0.4,0.4-0.5,0.7c-0.1,0.3-0.2,0.5-0.2,0.8s0.1,0.6,0.2,0.8c0.1,0.3,0.3,0.5,0.5,0.7c0.2,0.2,0.4,0.4,0.7,0.5
						C329.6,407.6,329.9,407.7,330.2,407.7z M313.5,401.8c0,1.3-0.2,2.5-0.5,3.7c-0.4,1.2-0.9,2.3-1.6,3.3c-0.7,1-1.5,1.9-2.5,2.8
						c-1,0.8-2,1.5-3.2,2.1c0.9,0.8,2,1.4,3.1,1.8c1.1,0.4,2.3,0.5,3.4,0.5c0.8,0,1.6-0.1,2.4-0.3c0.8-0.2,1.5-0.4,2.2-0.8
						c0.7-0.4,1.4-0.8,2-1.4c0.6-0.6,1.1-1.2,1.6-2s0.8-1.6,1.1-2.6c0.3-1,0.4-2.1,0.4-3.3c0-0.7,0-1.4-0.1-2.1
						c-0.1-0.8-0.3-1.6-0.5-2.4c-0.3-0.8-0.6-1.7-1.1-2.7c-0.5-0.9-1-1.9-1.8-3l1.9-0.8c1.3,1.9,2.2,3.8,2.8,5.7
						c0.6,1.9,0.9,3.8,0.9,5.6c0,1.4-0.2,2.7-0.5,3.8s-0.8,2.1-1.4,3c-0.6,0.9-1.2,1.6-2,2.3c-0.8,0.6-1.6,1.1-2.5,1.6
						c-0.9,0.4-1.8,0.7-2.7,0.9c-0.9,0.2-1.9,0.3-2.8,0.3c-1.7,0-3.3-0.3-4.7-0.9c-1.4-0.6-2.7-1.5-3.7-2.6c-1-1.1-1.8-2.4-2.4-4
						s-0.8-3.2-0.8-5c0-0.9,0.1-1.8,0.2-2.7c0.1-0.9,0.4-1.7,0.7-2.5c0.3-0.8,0.6-1.5,1.1-2.2c0.4-0.7,0.9-1.3,1.5-1.7
						s1.2-0.9,1.9-1.1c0.7-0.3,1.4-0.4,2.2-0.4c0.9,0,1.7,0.2,2.4,0.5c0.7,0.4,1.3,0.9,1.8,1.5c0.5,0.6,0.8,1.4,1.1,2.3
						C313.3,399.8,313.5,400.8,313.5,401.8z M302.3,405.1c0,1.5,0.2,2.9,0.5,4.1c0.4,1.2,0.8,2.2,1.5,3c1-0.4,1.9-1,2.8-1.7
						c0.9-0.7,1.6-1.5,2.2-2.4c0.6-0.9,1.1-1.9,1.5-3s0.6-2.2,0.6-3.5c0-0.8-0.1-1.5-0.2-2.1c-0.2-0.6-0.4-1.2-0.7-1.7
						s-0.7-0.8-1.2-1.1s-1-0.4-1.6-0.4c-0.8,0-1.6,0.2-2.2,0.7s-1.2,1-1.7,1.8c-0.5,0.8-0.8,1.7-1.1,2.7
						C302.4,402.7,302.3,403.9,302.3,405.1z M293.9,401.7c0.5,0,1.1,0.1,1.5,0.3c0.5,0.2,0.9,0.5,1.3,0.8c0.4,0.3,0.6,0.7,0.8,1.2
						c0.2,0.5,0.3,0.9,0.3,1.5c0,0.5-0.1,1-0.3,1.5c-0.2,0.5-0.5,0.9-0.8,1.2c-0.4,0.3-0.8,0.6-1.3,0.8c-0.5,0.2-1,0.3-1.5,0.3
						c-0.5,0-1-0.1-1.5-0.3c-0.5-0.2-0.9-0.5-1.3-0.8c-0.4-0.3-0.6-0.7-0.8-1.2c-0.2-0.5-0.3-0.9-0.3-1.5c0-0.5,0.1-1,0.3-1.5
						c0.2-0.5,0.5-0.9,0.8-1.2c0.4-0.3,0.8-0.6,1.3-0.8C292.8,401.8,293.3,401.7,293.9,401.7z M293.9,407.7c0.3,0,0.6-0.1,0.9-0.2
						c0.3-0.1,0.5-0.3,0.7-0.5c0.2-0.2,0.3-0.4,0.4-0.7c0.1-0.3,0.2-0.5,0.2-0.8s-0.1-0.5-0.2-0.8c-0.1-0.3-0.3-0.5-0.4-0.7
						c-0.2-0.2-0.4-0.4-0.7-0.5c-0.3-0.1-0.6-0.2-0.9-0.2c-0.3,0-0.6,0.1-0.8,0.2c-0.3,0.1-0.5,0.3-0.7,0.5
						c-0.2,0.2-0.4,0.4-0.5,0.7c-0.1,0.3-0.2,0.5-0.2,0.8s0.1,0.6,0.2,0.8s0.3,0.5,0.5,0.7c0.2,0.2,0.4,0.4,0.7,0.5
						C293.3,407.6,293.6,407.7,293.9,407.7z"/>
				</g>
				<g id="XMLID_79_" class="st5">
					<path id="XMLID_80_" class="st7" d="M8.8,412.3c-0.5,0-1.1-0.1-1.5-0.3c-0.5-0.2-0.9-0.5-1.3-0.8c-0.4-0.3-0.6-0.7-0.8-1.2
						c-0.2-0.5-0.3-0.9-0.3-1.5c0-0.5,0.1-1,0.3-1.5c0.2-0.5,0.5-0.9,0.8-1.2c0.4-0.3,0.8-0.6,1.3-0.8c0.5-0.2,1-0.3,1.5-0.3
						c0.5,0,1,0.1,1.5,0.3c0.5,0.2,0.9,0.5,1.3,0.8c0.4,0.3,0.6,0.7,0.8,1.2c0.2,0.5,0.3,0.9,0.3,1.5c0,0.5-0.1,1-0.3,1.5
						c-0.2,0.5-0.5,0.9-0.8,1.2c-0.4,0.3-0.8,0.6-1.3,0.8C9.8,412.2,9.3,412.3,8.8,412.3z M8.8,406.4c-0.3,0-0.6,0.1-0.9,0.2
						c-0.3,0.1-0.5,0.3-0.7,0.5s-0.3,0.4-0.4,0.7c-0.1,0.3-0.2,0.5-0.2,0.8c0,0.3,0.1,0.5,0.2,0.8c0.1,0.3,0.3,0.5,0.4,0.7
						c0.2,0.2,0.4,0.4,0.7,0.5c0.3,0.1,0.6,0.2,0.9,0.2c0.3,0,0.6-0.1,0.8-0.2c0.3-0.1,0.5-0.3,0.7-0.5c0.2-0.2,0.4-0.4,0.5-0.7
						c0.1-0.3,0.2-0.5,0.2-0.8c0-0.3-0.1-0.6-0.2-0.8c-0.1-0.3-0.3-0.5-0.5-0.7s-0.4-0.4-0.7-0.5C9.4,406.4,9.1,406.4,8.8,406.4z
						 M25.5,412.2c0-1.3,0.2-2.5,0.5-3.7c0.4-1.2,0.9-2.3,1.6-3.3c0.7-1,1.5-1.9,2.5-2.8c1-0.8,2-1.5,3.2-2.1
						c-0.9-0.8-2-1.4-3.1-1.8s-2.3-0.5-3.4-0.5c-0.8,0-1.6,0.1-2.4,0.3c-0.8,0.2-1.5,0.4-2.2,0.8s-1.4,0.8-2,1.4
						c-0.6,0.6-1.1,1.2-1.6,2s-0.8,1.6-1.1,2.6c-0.3,1-0.4,2.1-0.4,3.3c0,0.7,0,1.4,0.1,2.1c0.1,0.8,0.3,1.6,0.5,2.4
						s0.6,1.7,1.1,2.7c0.5,0.9,1,1.9,1.8,3l-1.9,0.8c-1.3-1.9-2.2-3.8-2.8-5.7c-0.6-1.9-0.9-3.8-0.9-5.6c0-1.4,0.2-2.7,0.5-3.8
						c0.3-1.1,0.8-2.1,1.4-3c0.6-0.9,1.2-1.6,2-2.3c0.8-0.6,1.6-1.1,2.5-1.6s1.8-0.7,2.7-0.9c0.9-0.2,1.9-0.3,2.8-0.3
						c1.7,0,3.3,0.3,4.7,0.9c1.4,0.6,2.7,1.5,3.7,2.6c1,1.1,1.8,2.4,2.4,4s0.8,3.2,0.8,5c0,0.9-0.1,1.8-0.2,2.7
						c-0.1,0.9-0.4,1.7-0.7,2.5c-0.3,0.8-0.6,1.5-1.1,2.2c-0.4,0.7-0.9,1.3-1.5,1.7s-1.2,0.9-1.9,1.1c-0.7,0.3-1.4,0.4-2.2,0.4
						c-0.9,0-1.7-0.2-2.4-0.5c-0.7-0.4-1.3-0.9-1.8-1.5c-0.5-0.6-0.8-1.4-1.1-2.3C25.7,414.2,25.5,413.3,25.5,412.2z M36.7,409
						c0-1.5-0.2-2.9-0.5-4.1c-0.4-1.2-0.8-2.2-1.5-3c-1,0.4-1.9,1-2.8,1.7c-0.9,0.7-1.6,1.5-2.2,2.4c-0.6,0.9-1.1,1.9-1.5,3
						c-0.4,1.1-0.6,2.2-0.6,3.5c0,0.8,0.1,1.5,0.2,2.1c0.2,0.6,0.4,1.2,0.7,1.7s0.7,0.8,1.2,1.1c0.5,0.3,1,0.4,1.6,0.4
						c0.8,0,1.6-0.2,2.2-0.7c0.7-0.4,1.2-1,1.7-1.8s0.8-1.7,1.1-2.7S36.7,410.2,36.7,409z M45.1,412.3c-0.5,0-1.1-0.1-1.5-0.3
						c-0.5-0.2-0.9-0.5-1.3-0.8c-0.4-0.3-0.6-0.7-0.8-1.2c-0.2-0.5-0.3-0.9-0.3-1.5c0-0.5,0.1-1,0.3-1.5c0.2-0.5,0.5-0.9,0.8-1.2
						c0.4-0.3,0.8-0.6,1.3-0.8c0.5-0.2,1-0.3,1.5-0.3c0.5,0,1,0.1,1.5,0.3c0.5,0.2,0.9,0.5,1.3,0.8c0.4,0.3,0.6,0.7,0.8,1.2
						c0.2,0.5,0.3,0.9,0.3,1.5c0,0.5-0.1,1-0.3,1.5c-0.2,0.5-0.5,0.9-0.8,1.2c-0.4,0.3-0.8,0.6-1.3,0.8
						C46.2,412.2,45.7,412.3,45.1,412.3z M45.1,406.4c-0.3,0-0.6,0.1-0.9,0.2c-0.3,0.1-0.5,0.3-0.7,0.5c-0.2,0.2-0.3,0.4-0.4,0.7
						c-0.1,0.3-0.2,0.5-0.2,0.8c0,0.3,0.1,0.5,0.2,0.8c0.1,0.3,0.3,0.5,0.4,0.7c0.2,0.2,0.4,0.4,0.7,0.5c0.3,0.1,0.6,0.2,0.9,0.2
						c0.3,0,0.6-0.1,0.8-0.2c0.3-0.1,0.5-0.3,0.7-0.5c0.2-0.2,0.4-0.4,0.5-0.7c0.1-0.3,0.2-0.5,0.2-0.8c0-0.3-0.1-0.6-0.2-0.8
						c-0.1-0.3-0.3-0.5-0.5-0.7s-0.4-0.4-0.7-0.5C45.7,406.4,45.4,406.4,45.1,406.4z"/>
				</g>
			</g>
			<ellipse id="XMLID_49_" class="st2" cx="106.1" cy="317.3" rx="12.3" ry="11.7"/>
			<ellipse id="XMLID_48_" class="st2" cx="232.7" cy="317.3" rx="12.3" ry="11.7"/>
			<ellipse id="XMLID_47_" class="st2" cx="166.4" cy="343.7" rx="3" ry="3.6"/>
			<ellipse id="XMLID_235_" class="st2" cx="258.8" cy="468.6" rx="12.3" ry="11.7"/>
			<ellipse id="XMLID_177_" class="st2" cx="241.6" cy="492.6" rx="6.1" ry="5.8"/>
			<ellipse id="XMLID_181_" class="st2" cx="89" cy="340.1" rx="6.1" ry="5.8"/>
		</g>
		<g id="XMLID_16_">
			<line class="st1" x1="117.6" y1="508.2" x2="221.1" y2="508.2"/>
			<path class="st1" d="M117.6,508.2c0,0,1.6-0.6,4.4-1.3c2.8-0.7,6.9-1.6,11.7-2.4c4.9-0.8,10.5-1.5,16.6-2
				c1.5-0.1,3.1-0.2,4.6-0.3c1.6-0.1,3.1-0.2,4.7-0.2c3.2-0.1,6.4-0.2,9.7-0.2c3.2,0,6.5,0.1,9.7,0.2c1.6,0.1,3.2,0.1,4.7,0.2
				c1.6,0.1,3.1,0.2,4.6,0.3c3,0.2,6,0.5,8.7,0.9c2.8,0.3,5.4,0.7,7.8,1.1c4.9,0.8,8.9,1.7,11.7,2.4c2.8,0.7,4.4,1.3,4.4,1.3
				s-1.6,0.6-4.4,1.3c-2.8,0.7-6.9,1.6-11.7,2.4c-2.4,0.4-5.1,0.8-7.8,1.1c-2.8,0.3-5.7,0.6-8.7,0.9c-1.5,0.1-3.1,0.2-4.6,0.3
				c-1.6,0.1-3.1,0.2-4.7,0.2c-3.2,0.1-6.4,0.2-9.7,0.2c-3.2,0-6.5-0.1-9.7-0.2c-1.6-0.1-3.2-0.1-4.7-0.2c-1.6-0.1-3.1-0.2-4.6-0.3
				c-6.1-0.5-11.7-1.2-16.6-2c-4.9-0.8-8.9-1.7-11.7-2.4C119.2,508.8,117.6,508.2,117.6,508.2z"/>
		</g>
		<g id="XMLID_15_">
			<line class="st1" x1="133.2" y1="312.8" x2="205.5" y2="312.8"/>
			<path class="st1" d="M133.2,312.8c0,0,1.1-0.6,3.1-1.3c2-0.7,4.8-1.6,8.2-2.4c3.4-0.8,7.3-1.5,11.6-2c4.2-0.5,8.8-0.7,13.3-0.7
				c4.5,0,9,0.2,13.3,0.7c4.2,0.5,8.2,1.2,11.6,2c3.4,0.8,6.2,1.7,8.2,2.4c2,0.7,3.1,1.3,3.1,1.3s-1.1,0.6-3.1,1.3
				c-2,0.7-4.8,1.6-8.2,2.4c-3.4,0.8-7.3,1.5-11.6,2c-4.2,0.5-8.8,0.7-13.3,0.7c-4.5,0-9-0.2-13.3-0.7c-4.2-0.5-8.2-1.2-11.6-2
				c-3.4-0.8-6.2-1.7-8.2-2.4C134.4,313.4,133.2,312.8,133.2,312.8z"/>
		</g>
		<g id="XMLID_20_">
			<line class="st1" x1="154" y1="301.6" x2="184.7" y2="301.6"/>
			<path class="st1" d="M154,301.6c0,0,0.5-0.3,1.3-0.8c0.8-0.4,2-1,3.5-1.5c1.4-0.5,3.1-0.9,4.9-1.2c1.8-0.3,3.7-0.4,5.6-0.4
				c1.9,0,3.8,0.1,5.6,0.4c1.8,0.3,3.5,0.7,4.9,1.2c1.4,0.5,2.6,1,3.5,1.5c0.8,0.4,1.3,0.8,1.3,0.8s-0.5,0.3-1.3,0.8
				c-0.8,0.4-2,1-3.5,1.5c-1.4,0.5-3.1,0.9-4.9,1.2c-1.8,0.3-3.7,0.4-5.6,0.4c-1.9,0-3.8-0.1-5.6-0.4c-1.8-0.3-3.5-0.7-4.9-1.2
				c-1.4-0.5-2.6-1-3.5-1.5C154.5,302,154,301.6,154,301.6z"/>
		</g>
		<g id="XMLID_14_">
			<line class="st1" x1="141.8" y1="521" x2="196.9" y2="521"/>
			<path class="st1" d="M141.8,521c0,0,0.2-0.1,0.6-0.3c0.4-0.2,1-0.5,1.7-0.8c1.5-0.6,3.7-1.4,6.2-2c2.6-0.7,5.6-1.3,8.8-1.6
				c3.2-0.4,6.7-0.6,10.1-0.6c3.4,0,6.9,0.2,10.1,0.6c3.2,0.4,6.2,1,8.8,1.6c2.6,0.7,4.7,1.4,6.2,2c0.8,0.3,1.3,0.6,1.7,0.8
				c0.4,0.2,0.6,0.3,0.6,0.3s-0.2,0.1-0.6,0.3c-0.4,0.2-1,0.5-1.7,0.8c-1.5,0.6-3.7,1.4-6.2,2c-2.6,0.7-5.6,1.3-8.8,1.6
				c-3.2,0.4-6.7,0.6-10.1,0.6c-3.4,0-6.9-0.2-10.1-0.6c-3.2-0.4-6.2-1-8.8-1.6c-2.6-0.7-4.7-1.4-6.2-2c-0.8-0.3-1.3-0.6-1.7-0.8
				C142,521.1,141.8,521,141.8,521z"/>
		</g>
	</g>
	<g id="XMLID_10_">
		<rect id="XMLID_33_" x="66.9" y="173.1" class="st8" width="222.5" height="58.8"/>
		<text id="XMLID_53_" transform="matrix(0.916 0 0 1 66.947 208.5899)" class="st1 st9 st10">Submissions</text>
		<g id="XMLID_36_">
			<path id="XMLID_51_" class="st1" d="M48.2,194.2c0-0.8,0.1-1.5,0.3-2.2c0.2-0.7,0.4-1.4,0.8-2c0.3-0.6,0.7-1.2,1.2-1.7
				c0.5-0.5,1-0.9,1.5-1.3c0.6-0.4,1.2-0.6,1.8-0.8c0.6-0.2,1.3-0.3,2-0.3s1.4,0.1,2,0.3c0.6,0.2,1.2,0.5,1.8,0.8
				c0.6,0.4,1.1,0.8,1.5,1.3c0.5,0.5,0.9,1.1,1.2,1.7c0.3,0.6,0.6,1.3,0.8,2c0.2,0.7,0.3,1.4,0.3,2.2c0,0.8-0.1,1.5-0.3,2.2
				c-0.2,0.7-0.4,1.4-0.8,2c-0.3,0.6-0.7,1.2-1.2,1.7c-0.5,0.5-1,0.9-1.5,1.3c-0.6,0.4-1.2,0.6-1.8,0.8c-0.6,0.2-1.3,0.3-2,0.3
				c-0.7,0-1.4-0.1-2-0.3c-0.6-0.2-1.2-0.5-1.8-0.8c-0.6-0.4-1.1-0.8-1.5-1.3c-0.5-0.5-0.9-1.1-1.2-1.7c-0.3-0.6-0.6-1.3-0.8-2
				C48.2,195.7,48.2,195,48.2,194.2z"/>
		</g>
		<g id="XMLID_11_">
			<path id="XMLID_12_" class="st1" d="M275.5,194.2c0-0.8,0.1-1.5,0.3-2.2c0.2-0.7,0.4-1.4,0.8-2c0.3-0.6,0.7-1.2,1.2-1.7
				c0.5-0.5,1-0.9,1.5-1.3c0.6-0.4,1.2-0.6,1.8-0.8s1.3-0.3,2-0.3c0.7,0,1.4,0.1,2,0.3c0.6,0.2,1.2,0.5,1.8,0.8
				c0.6,0.4,1.1,0.8,1.5,1.3c0.5,0.5,0.9,1.1,1.2,1.7c0.3,0.6,0.6,1.3,0.8,2c0.2,0.7,0.3,1.4,0.3,2.2c0,0.8-0.1,1.5-0.3,2.2
				c-0.2,0.7-0.4,1.4-0.8,2c-0.3,0.6-0.7,1.2-1.2,1.7c-0.5,0.5-1,0.9-1.5,1.3c-0.6,0.4-1.2,0.6-1.8,0.8c-0.6,0.2-1.3,0.3-2,0.3
				c-0.7,0-1.4-0.1-2-0.3c-0.6-0.2-1.2-0.5-1.8-0.8c-0.6-0.4-1.1-0.8-1.5-1.3c-0.5-0.5-0.9-1.1-1.2-1.7c-0.3-0.6-0.6-1.3-0.8-2
				C275.6,195.7,275.5,195,275.5,194.2z"/>
		</g>
	</g>
</g>
</svg>
