<?xml version="1.0" encoding="utf-8"?>
<!-- Generator: Adobe Illustrator 19.0.0, SVG Export Plug-In . SVG Version: 6.00 Build 0)  -->
<svg version="1.1" id="Layer_1" xmlns="http://www.w3.org/2000/svg" xmlns:xlink="http://www.w3.org/1999/xlink" x="0px" y="0px"
	 viewBox="-170.7 361.6 233.7 35" style="enable-background:new -170.7 361.6 233.7 35;" xml:space="preserve">
<style type="text/css">
	.st0{enable-background:new    ;}
	.st1{fill:#FFFFFF;}
</style>
<g class="st0">
	<path class="st1" d="M-155.2,383.6c-0.5,0.1-1,0.2-1.6,0.3c-0.6,0.1-1.2,0.1-1.9,0.1h-1.1v3.8h5.5v3.1h-5.5v5.2h-3.3v-5.2h-5.6
		v-3.1h5.6v-4.4c-1.1-0.4-2.2-0.9-3.1-1.5c-0.9-0.6-1.7-1.4-2.4-2.3c-0.7-0.9-1.2-1.9-1.5-3c-0.4-1.1-0.5-2.3-0.5-3.5
		c0-1.6,0.3-3.1,0.9-4.5s1.4-2.5,2.5-3.5c1.1-1,2.3-1.7,3.8-2.3c1.5-0.5,3-0.8,4.7-0.8c0.7,0,1.3,0,1.9,0.1c0.6,0.1,1.1,0.2,1.6,0.3
		v1.1c-1.7,0-3.1,0.3-4.4,0.8c-1.2,0.5-2.3,1.2-3.1,2.1s-1.4,1.9-1.8,3.1c-0.4,1.2-0.6,2.4-0.6,3.7c0,1.3,0.2,2.5,0.6,3.7
		s1,2.2,1.8,3.1c0.8,0.9,1.8,1.6,3.1,2.1s2.7,0.8,4.4,0.8V383.6z"/>
</g>
<g class="st0">
	<path class="st1" d="M-129.7,363.9l3.1,0.1c1.2-0.1,2-0.2,2.4-0.2c1.5,0,2.2,0.4,2.2,1.2c0,0.2-0.2,0.5-0.6,0.7
		c-0.6,0.5-1,0.9-1.1,1.3c-0.3,1-0.5,3.2-0.5,6.8c0-0.1,0,0,0,0.3c0,0.3,0,0.5,0,0.8c0.1,1.2,0.1,2.1,0.1,2.9v1.3
		c0,1.7-0.1,3-0.2,4.1c0,0.1-0.1,0.3-0.1,0.6c0,0.3,0,0.5,0.1,0.8c0,0.5,0.1,1,0.1,1.4v0.2c0,0.1-0.1,0.3-0.1,0.4v0.5
		c0,0.3,0.1,0.8,0.2,1.5l0.1,2.5l0.1,0.8c0.2,0.2,0.4,0.6,0.6,1c0,0.1,0.1,0.2,0.2,0.4s0.2,0.3,0.2,0.4l0.8,0.7
		c0.3,0.4,0.4,0.6,0.4,0.8c0,0.5-0.2,0.8-0.5,0.8h-1.4h-0.2c-0.7,0.1-1.1,0.1-1.3,0.1c0,0-0.1,0-0.2,0c-0.1,0-0.2,0-0.4,0
		c-0.2,0-0.3,0-0.5,0l-2.2,0c-0.5,0-1.1-0.1-1.7-0.3c-0.3-0.2-0.5-0.4-0.5-0.7c0-0.2,0.1-0.3,0.2-0.4l1.3-1.1
		c0.3-0.4,0.5-0.9,0.5-1.5c0-0.1,0-0.2,0.1-0.4c0-0.2,0.1-0.4,0.1-0.7c0-0.3,0.1-0.6,0.1-0.9c0-0.1,0.1-0.2,0.1-0.4
		c0-0.1,0-0.4-0.1-0.9c-0.1-0.4-0.1-0.7-0.1-0.9c0-0.2,0-0.9,0.1-2.1c0.1-1,0.2-1.7,0.2-2.2c0-0.1-0.1-1.1-0.3-2.8l0.2-1.5
		c0,0,0-0.1,0-0.2c0-0.1,0-0.2-0.1-0.3c0-0.1,0-0.3,0-0.5V378v-4.6c0-0.2,0-0.4-0.1-0.6c0-0.3-0.1-1.1-0.3-2.5l-0.1-2.6
		c-0.1-0.7-0.5-1.4-1.2-2c-0.6-0.4-0.9-0.8-0.9-1.1C-130.9,364.2-130.5,363.9-129.7,363.9z"/>
	<path class="st1" d="M-112.5,378.4c0.1,0,0.2,0,0.3,0.1l0.2,1.1c0.1,0.1,0.1,0.1,0.2,0.1c0.1,0,0.6-0.3,1.4-0.8
		c0.6-0.4,1.5-0.6,2.4-0.6c0.4,0,1.2,0.1,2.3,0.4c1.1,0.1,1.9,0.6,2.4,1.3c0.4,1.2,0.7,2.1,0.7,2.7l0.1,0.6v0.9l0.1,1.4
		c0,0,0,0.1,0,0.2c0,0.1,0,0.3-0.1,0.5c0,0.2,0,0.4,0,0.7l0.1,2c0,0.9,0.2,1.8,0.4,2.6c0,0.3,0.2,0.7,0.4,1.2c0.1,0.3,0.4,0.8,1,1.4
		l0.8,1c0,0.4-0.4,0.6-1.1,0.6h-0.7c-0.2,0-0.5,0-0.7,0c-0.2,0-0.4,0-0.5-0.1h-0.2c0,0-0.6,0-1.6,0.1c-0.2,0-0.3,0-0.5,0
		c-1.2-0.1-1.8-0.1-1.9-0.1c-0.4-0.1-0.6-0.3-0.6-0.6c0-0.2,0.3-0.5,0.8-1.1c0.1-0.1,0.3-0.5,0.5-1.1l0.4-1l-0.1-2.3
		c0-0.1,0.1-0.2,0.1-0.4c0.1-0.5,0.2-1.2,0.2-1.9c0-3-0.1-4.9-0.4-5.5c-0.6-1.3-1.5-2-2.6-2c-1,0-1.7,0.3-2.3,0.8
		c0,0.1-0.2,0.4-0.4,0.9l-0.5,1.1v1.4l-0.1,0.5v0.5c0,0.1,0,0.2-0.1,0.4c0,0-0.1,0.2-0.1,0.6c-0.1,0.7-0.1,1.2-0.2,1.5
		c0.1,1.1,0.2,1.7,0.2,2c0,0.1,0,0.3-0.1,0.7c0,0.4-0.1,0.6-0.1,0.6l0.1,0.1c0,0.1,0,0.2,0.1,0.4c0,0.2,0.1,0.4,0.1,0.6l0.1,0.9
		c0.1,0.3,0.2,0.6,0.5,1.1c0.3,0.4,0.7,0.7,1.2,1c0.1,0.1,0.2,0.2,0.2,0.3c0,0.3-0.3,0.4-0.9,0.4c-0.3,0-1.1-0.1-2.3-0.2l-1.4-0.1
		c-0.3,0-0.9,0.1-1.8,0.3c-0.1,0-0.3,0-0.5,0c-0.8,0-1.2-0.2-1.2-0.7c0-0.3,0.3-0.6,1-1.1c0.2-0.1,0.6-0.7,1.1-1.6
		c0.1-0.3,0.2-0.9,0.3-1.8c0.1-1.3,0.2-2.4,0.2-3.2v-1.4l0.1-1.3c0-0.8-0.2-1.4-0.5-1.8c-0.1-0.1-0.5-0.3-1-0.6
		c-0.5-0.2-0.8-0.4-0.9-0.5c-0.1-0.2-0.1-0.3-0.1-0.4c0-0.2,0.2-0.5,0.7-0.7c1.5-0.7,2.4-1.2,2.6-1.3
		C-113.4,378.8-112.7,378.4-112.5,378.4z"/>
	<path class="st1" d="M-96.1,379.3l-1.6,0c-0.3-0.1-0.5-0.2-0.5-0.5c0-0.4,0.4-0.6,1.3-0.9c0.9-0.3,1.3-0.6,1.3-1l-0.1-2.4
		c0,0,0.2-1,0.7-2.9l0.1-0.5c0-0.4,0.4-1.4,1-3.1c0.3-0.8,1.1-1.8,2.4-2.8c0.8-0.6,1.7-1,2.6-1c0.5,0,1.1,0.2,1.8,0.6
		c0.5,0.3,0.8,0.9,0.8,1.8c0,1-0.4,1.5-1.3,1.5c-0.4,0-0.8-0.1-1.1-0.2c-0.2-0.1-0.4-0.4-0.8-0.9c-0.1-0.3-0.4-0.4-0.8-0.4
		c-0.6,0-1,0.4-1.2,1.2l-0.2,1.2c-0.4,1.7-0.5,2.6-0.5,2.7l0.1,1.2l0.1,1.3l0.1,1.1c0.1,0.7,0.2,1.2,0.2,1.4
		c0.1,0.3,0.5,0.5,1.1,0.7c1.4,0.3,2,0.7,2,1.3c0,0.2-0.1,0.4-0.2,0.5c-0.1,0.1-0.8,0.1-2.1,0.2c-0.4,0.1-0.7,0.3-0.8,0.8
		c-0.2,1.1-0.3,2-0.3,2.7l0.1,1.3l-0.1,1.1l0.1,1.2c0,0.1,0,0.3,0,0.5c0,0.3,0,0.4,0,0.5c0,0.6,0.1,1.8,0.3,3.6
		c0,0.6,0.1,1.3,0.3,1.9c0.6,1,1.6,1.7,3,2c0.3,0.1,0.4,0.3,0.4,0.6c0,0.3-0.2,0.4-0.6,0.5h-1.2h-1.1h-0.7h-0.2h-1.1h-2.1h-0.4
		c-2.2,0-3.3-0.3-3.3-0.9c0-0.4,0.3-0.6,1-0.8c0.3-0.1,0.8-0.3,1.5-0.7c0.3-0.2,0.4-0.4,0.5-0.6l0.1-1.2l0.2-1.1l0.1-0.9
		c0.1-1.3,0.1-2.1,0.1-2.3c0-0.3,0-0.7-0.1-1.2c0-0.5-0.1-0.9-0.1-1.2c0-0.4-0.1-0.8-0.1-1c0-0.4,0.1-1.2,0.2-2.3
		c0-1.3-0.1-2.1-0.2-2.2C-95.5,379.6-95.7,379.4-96.1,379.3z"/>
	<path class="st1" d="M-74.3,396.1c-0.8,0.2-1.6,0.3-2.3,0.3c-1.9,0-3.6-0.5-5.2-1.5c-1.1-0.7-1.8-1.2-2.2-1.5
		c-1.7-1.6-2.5-3.2-2.5-5c0,0,0-0.2,0-0.5c0-0.3,0-0.7,0-1.1c0-0.4,0-0.7,0-1c0-1,0.1-1.7,0.3-2c1.1-2.1,2.7-3.6,4.9-4.5
		c0.9-0.4,1.6-0.6,2-0.7c1-0.2,1.8-0.3,2.4-0.3c1.2,0,2,0,2.3,0.1c0,0,0.6,0.2,1.8,0.7c0.8,0.3,1.4,0.8,1.9,1.3l0.7,0.9
		c1.2,1.3,1.8,2.9,1.8,5c0,1.8-0.5,3.7-1.6,5.7c-0.5,1-1.4,1.9-2.6,2.7C-73.4,395.6-74,396-74.3,396.1z M-78.6,380.5
		c-0.6,0-1.1,0.1-1.6,0.4c-0.9,0.7-1.6,1.5-2.2,2.5c-0.4,0.7-0.6,1.7-0.6,3c0,1.2,0,1.9,0.1,2.3c0,0.1,0.2,0.8,0.7,1.9
		c0,0.1,0.1,0.4,0.2,0.7c0.1,0.3,0.2,0.6,0.3,0.8c0.4,0.5,0.7,0.8,1,0.9l0.6,0.3l0.7,0.3c0.9,0.5,1.4,0.8,1.6,0.8
		c0.9,0,1.8-0.3,2.8-0.8c0.9-0.4,1.6-1.4,2.1-2.8c0.4-1.2,0.6-2.4,0.6-3.6c0-0.5-0.1-0.9-0.2-1.2l-0.6-1.3c-0.4-1-0.7-1.7-1-2.3
		C-74.9,381.2-76.5,380.5-78.6,380.5z"/>
	<path class="st1" d="M-59.5,385.7v1.3v1c0,0.3,0,0.6,0,0.8c0,0.3,0,0.5-0.1,0.6c0,0.1,0,0.2,0,0.3c0,0.2,0,0.6,0.1,1.3
		c0.1,0.7,0.1,1.1,0.1,1.3c0,1,0.4,1.7,1.3,2.1c0.9,0.5,1.4,1,1.4,1.3c0,0.4-0.4,0.6-1.1,0.6c-0.4,0-1.4-0.1-2.7-0.2h-0.4l-0.8,0
		c-0.3,0-0.6,0-0.9,0c-1.2,0-1.8-0.2-1.8-0.7c0-0.2,0.1-0.3,0.2-0.5l1-0.9c0.3-0.3,0.4-0.5,0.5-0.8c0-0.8,0.1-2.1,0.3-3.9l-0.1-1.6
		c0-0.8-0.1-1.9-0.2-3.1c-0.1-1.2-0.4-1.9-0.8-2.2l-0.5-0.2l-0.4-0.2c-0.4-0.2-0.6-0.4-0.6-0.7c0-0.3,0.2-0.5,0.5-0.7
		c0,0,0.5-0.3,1.3-0.7c0.8-0.4,1.5-0.9,2-1.3c0.2-0.1,0.5-0.3,1-0.4l0.6,1.3c0.7-0.3,1.2-0.6,1.5-0.8c0.1-0.1,0.4-0.2,0.8-0.3
		c0.8-0.2,1.3-0.3,1.5-0.3c0.8,0,1.5,0.3,2.1,0.9c0.6,0.6,0.8,1.3,0.8,2.1c0,0.8-0.3,1.4-0.8,1.8c-0.3,0.3-0.6,0.4-0.9,0.4
		c-0.4,0-0.9-0.2-1.4-0.6c-0.2-0.1-0.6-0.7-1.3-1.7c-0.1-0.1-0.1-0.1-0.2-0.1c-0.5,0-1.1,0.7-1.5,2
		C-59.4,383.7-59.5,384.6-59.5,385.7z"/>
	<path class="st1" d="M-30.3,380.3c-1,0-1.8,0.3-2.4,0.9c-0.5,0.4-0.8,0.8-1,1.2c-0.1,0.3-0.2,0.8-0.3,1.5c0,0.1-0.1,0.4-0.2,0.8
		c-0.2,0.7-0.3,1.4-0.3,1.9c0,0.2,0,0.3,0.1,0.5c0,0.4,0,0.8,0.1,1c0.1,1.8,0.1,2.9,0.2,3.3c0.1,0.4,0.1,0.9,0.2,1.7
		c0,0.3,0.1,0.6,0.4,0.9c0.3,0.3,0.9,0.8,1.9,1.5c0.1,0,0.2,0.1,0.2,0.3c0,0.3-0.6,0.4-1.8,0.4c-0.1,0-0.5,0-1.1-0.1
		c-0.6-0.1-1-0.1-1.1-0.1c-0.2,0-0.6,0-1.2,0.1c-0.3,0-0.7,0-1.3,0c-0.9,0-1.3-0.2-1.3-0.6c0-0.2,0.2-0.5,0.5-1
		c0.5-0.7,0.8-2.2,0.8-4.5l-0.2-2.4c0-0.1,0.1-0.6,0.2-1.5c0-0.3,0.1-0.6,0.1-1c0-0.8-0.3-1.7-0.8-2.9c-0.5-1.2-1.5-1.8-2.9-1.8
		c-1.1,0-1.9,0.4-2.6,1.3c-0.3,0.4-0.5,0.8-0.7,1.2c-0.2,0.5-0.2,0.9-0.2,1.2c0,0.4,0.1,0.8,0.1,1.2c0,0.4-0.1,1.1-0.2,2l-0.1,0.4
		l-0.1,0.5l0.1,1.2l-0.1,1.7c0.2,1.1,0.3,1.7,0.4,1.8c0,0.1,0.3,0.5,0.7,1.3c0.8,0.8,1.2,1.3,1.2,1.3c0,0.3-0.3,0.4-0.9,0.4
		c-0.2,0-0.7,0-1.4-0.1h-0.4c-0.3,0-0.6,0-1,0h-0.3c-0.2,0-0.4,0-0.6,0h-0.4c-0.1,0-0.5,0-1,0.1c-0.5,0-0.9,0.1-1,0.1
		c-0.4,0-0.6-0.2-0.6-0.5c0-0.3,0.1-0.4,0.2-0.5l1.1-1c0.3-0.3,0.5-0.6,0.7-1.1v-1.4c0-0.1,0.1-0.3,0.1-0.6c0-0.3,0-0.4,0-0.6
		c0-0.2,0.1-0.4,0.1-0.6c0-0.3,0-0.6-0.1-0.8c0-0.5,0-1,0-1.6c0-0.5,0-0.9-0.1-1.2c0-0.3,0-0.4,0-0.5c0-0.2,0-0.6,0.1-1.2
		c0.1-0.6,0.1-1,0.1-1.2c0-0.7-0.2-1.3-0.7-1.5c-0.6-0.4-0.9-0.7-0.9-0.9c0-0.2,0.1-0.3,0.2-0.4l1.5-0.8c0.4-0.3,1.2-0.8,2.2-1.4
		c0.2-0.1,0.4-0.1,0.5-0.1c0.4,0,0.6,0.2,0.6,0.5c0.1,0.7,0.2,1.1,0.4,1.1l1.3-0.6c0.2-0.1,1-0.3,2.2-0.4c0.7-0.1,1.4-0.2,2.1-0.2
		c1.5,0,2.7,0.7,3.7,2.1c0.3,0.3,0.5,0.4,0.6,0.4c0.1,0,0.4-0.3,1-0.8c0.4-0.4,1.1-0.8,2.3-1.3c0.8-0.4,1.3-0.6,1.3-0.6
		c0.1,0,0.5,0,1.3,0c0.8,0,1.7,0.2,2.5,0.6c1,0.4,2,1.4,3.1,2.9c0.2,0.6,0.3,1.3,0.3,2.1c0,0.5,0,1-0.1,1.4c0,0.2-0.1,0.4-0.1,0.8
		c0,0.1,0,0.2,0,0.3c0,0.1,0,0.4,0.1,0.6c0,0.3,0,0.6,0,0.8c0.1,1,0.1,1.6,0.1,2c0,0.3,0,0.5-0.1,0.8c0,0.4-0.1,1-0.1,1.6
		c0,0.7,0.4,1.5,1.1,2.3c0.2,0.3,0.6,0.6,1.2,1c0.1,0.1,0.2,0.2,0.2,0.3c0,0.3-0.5,0.5-1.6,0.5c-1.1,0-1.9,0-2.5-0.1l-0.6-0.1
		l-3.2,0.1c-0.3,0-0.5-0.2-0.5-0.7c0-0.2,0.2-0.5,0.5-1c0.5-0.6,0.7-0.9,0.8-1c0.1-0.2,0.2-0.6,0.3-1.1c0-0.1,0.1-0.6,0.2-1.5
		c0.1-0.4,0.1-0.8,0.2-1.3l0.1-0.2v-0.4v-0.5c0-0.2,0-0.5-0.1-0.9l-0.1-0.6V386c0-0.5,0.1-1.1,0.1-1.8c0-1.4-0.4-2.5-1.2-3.2
		C-28.8,380.5-29.5,380.3-30.3,380.3z"/>
	<path class="st1" d="M-11.6,380.7h-0.7c-0.5,0.1-0.8,0.1-0.9,0.2l-0.1,0.1c0,0.1-0.1,0.1-0.2,0.2c-0.1,0.1-0.2,0.2-0.3,0.3
		c-0.2,0.2-0.5,0.4-1,0.7c-0.5,0.3-0.8,0.5-1,0.5c-0.6,0-0.9-0.4-0.9-1.1c0-0.7,0.3-1.4,1-1.9c0.2-0.2,0.7-0.4,1.6-0.7l0.6-0.3
		c0.5-0.3,1-0.4,1.4-0.4c1.3,0,2.2,0.1,2.7,0.3c0.8,0.3,1.6,1,2.5,2.2c0.4,0.5,0.6,1.2,0.6,2c0,0,0,0.2,0,0.4c0,0.2,0,0.4,0,0.5
		l-0.1,6.2c0,0.5,0,1,0.1,1.3c0.1,0.4,0.4,1,0.9,1.5c0.2,0.3,0.5,0.4,0.7,0.5l0.8,0.3c0.1,0.1,0.1,0.1,0.1,0.2
		c0,0.2-0.3,0.6-0.8,1.3c-0.8,0.9-1.6,1.4-2.3,1.4c-0.3,0-0.6-0.1-1-0.2c-0.1,0-0.3-0.2-0.8-0.6c-0.3-0.3-0.6-0.4-0.8-0.4
		c0,0-0.2,0.1-0.6,0.3c-0.4,0.2-0.9,0.4-1.5,0.6s-1.4,0.3-2.1,0.3c-1.5,0-2.8-0.5-3.9-1.6c-0.3-0.3-0.4-0.6-0.5-1.1
		c0-0.1-0.1-0.1-0.1-0.2c0-0.1,0-0.2,0-0.2c0-0.4-0.1-0.7-0.2-0.8c0-0.1,0-0.2,0.1-0.3l0.1-1.4c0.1-0.6,0.3-1.1,0.6-1.6
		c0.7-0.8,1.8-1.7,3.4-2.5c0,0,0.1,0,0.3-0.1c0.2-0.1,0.4-0.2,0.7-0.3c0.3-0.1,0.7-0.3,1-0.4c0.8-0.3,1.5-0.6,1.9-1.1
		c0.5-0.5,0.8-1,0.8-1.5c0-0.3-0.3-0.8-0.8-1.7C-10.9,381.1-11.3,380.8-11.6,380.7z M-10,386.3c-0.3,0-0.8,0.3-1.5,0.9
		c-0.1,0-0.2,0.1-0.4,0.3c-0.7,0.5-1.2,0.9-1.5,1.2c-0.9,1-1.3,2-1.3,2.9c0,0.7,0.3,1.2,0.8,1.5c0.8,0.5,1.6,0.8,2.4,0.8
		c1.1,0,1.7-0.8,1.9-2.5c0-0.1,0-0.4,0.1-0.9c0.1-0.5,0.1-0.9,0.2-1.4c0-0.2,0.1-0.4,0.1-0.6l-0.1-1c-0.1-0.6-0.1-0.9-0.1-1
		C-9.6,386.5-9.8,386.3-10,386.3z"/>
	<path class="st1" d="M-1.4,378.7l1.1,0.1c0.1,0,0.2,0,0.4,0c0.4,0,0.7-0.3,0.9-0.9c0-0.5,0-1.3,0.1-2.1c0-0.4,0.5-0.8,1.6-1.3
		c0.9-0.4,1.4-0.7,1.5-0.7c0.5,0,0.8,0.3,0.8,0.8c0,0.1,0,0.2-0.1,0.3c-0.2,0.5-0.3,0.8-0.3,1c0.2,1.8,0.4,2.6,0.5,2.6l1.2-0.1
		l0.4,0c0.5,0.1,0.9,0.1,1,0.2c0.4,0.2,0.6,0.5,0.6,1c0,0.5-0.2,0.9-0.5,1l-0.2,0c-0.1,0-0.4,0-0.7,0.1c-0.3,0-0.7,0.1-1,0.1
		C5,381,4.6,381.4,4.6,382c0,0.1,0,0.3,0,0.6c0,0.3,0,0.6,0,0.7c0,0.2-0.1,0.6-0.2,1.4c0,0.1,0,0.8-0.1,2c0,0.6-0.1,1.3-0.1,2
		c0,2.8,0.4,4.2,1.2,4.2l2.1-0.3c0.1,0,0.2,0.1,0.3,0.4c0.1,0.3,0.2,0.4,0.2,0.6c0,0.4-0.2,0.8-0.5,1.2c-0.1,0.1-0.5,0.3-1,0.6
		c-0.4,0.4-0.7,0.6-0.9,0.7c-0.4,0.2-0.9,0.3-1.5,0.3c-1.3,0-2.2-0.4-2.8-1.2c-0.3-0.3-0.5-0.6-0.5-0.9l0.1-2.4v-0.2
		c-0.1-0.7-0.2-1.3-0.2-1.6c0-0.1,0.1-0.7,0.3-1.7c0-0.1,0.1-0.3,0.1-0.5L1,386.8c0-0.4,0-0.9-0.1-1.4c0-0.1,0-0.3,0-0.5
		c0-0.2,0-0.4-0.1-0.5c-0.1-0.3-0.1-0.5-0.1-0.5l0.1-0.6c0.1-0.6,0.2-1.1,0.2-1.4c0-0.6-0.4-1-1.1-1.1c-1.2-0.2-1.8-0.4-1.9-0.6
		c-0.2-0.2-0.3-0.4-0.3-0.6C-2.3,379-2,378.7-1.4,378.7z"/>
	<path class="st1" d="M16.3,378.6c0.5,0,0.7,0.3,0.7,1c0,0.2-0.1,0.8-0.2,1.6l0.1,0.4v0.6c0,0.2,0,0.8-0.1,2.1
		c-0.1,1.2-0.1,1.8-0.1,2l0.2,1.3v3.7l0.1,0.7c0,1,0.3,1.7,0.7,2.3c0.5,0.7,0.7,1.2,0.7,1.4c0,0.4-0.5,0.7-1.5,0.7
		c-0.1,0-0.6,0-1.4-0.1c-0.2,0-0.6,0-1,0h-0.4l-1.7,0.1c-0.4,0-0.6-0.3-0.6-0.8c0-0.2,0-0.3,0.1-0.3c0.2-0.1,0.5-0.5,0.9-1
		c0.3-0.4,0.4-0.6,0.4-0.6v-1.4l0.2-1.4l0.1-3.4c0-0.1-0.1-0.6-0.2-1.6v-0.1c0-0.2,0-0.4,0.1-0.8l0.1-0.5c0-0.1,0.1-0.3,0.1-0.5
		c0-0.2,0-0.4,0-0.5c0-0.2-0.1-0.4-0.3-0.7c-0.1-0.1-0.5-0.4-1.2-0.9c-0.1-0.1-0.1-0.3-0.1-0.5c0-0.4,0.3-0.7,0.9-1
		c0.6-0.3,1.1-0.5,1.3-0.7C15.3,379,16.1,378.6,16.3,378.6z M14.7,372.5c0.7,0,1.3,0.2,1.8,0.6c0.6,0.4,0.9,0.9,0.9,1.5
		c0,0.4-0.3,1-0.8,1.5c-0.5,0.6-1,0.9-1.4,0.9c-0.4,0-1-0.2-1.8-0.7c-0.4-0.1-0.6-0.4-0.6-0.9c-0.1-0.6-0.2-1-0.2-1
		c0-0.4,0.2-0.8,0.6-1.3C13.5,372.7,14,372.5,14.7,372.5z"/>
	<path class="st1" d="M34.1,396.1c-0.8,0.2-1.6,0.3-2.3,0.3c-1.9,0-3.6-0.5-5.2-1.5c-1.1-0.7-1.8-1.2-2.2-1.5
		c-1.7-1.6-2.5-3.2-2.5-5c0,0,0-0.2,0-0.5c0-0.3,0-0.7,0-1.1c0-0.4,0-0.7,0-1c0-1,0.1-1.7,0.3-2c1.1-2.1,2.7-3.6,4.9-4.5
		c0.9-0.4,1.6-0.6,2-0.7c1-0.2,1.8-0.3,2.4-0.3c1.2,0,2,0,2.3,0.1c0,0,0.6,0.2,1.8,0.7c0.8,0.3,1.4,0.8,1.9,1.3l0.7,0.9
		c1.2,1.3,1.8,2.9,1.8,5c0,1.8-0.5,3.7-1.6,5.7c-0.5,1-1.4,1.9-2.6,2.7C35,395.6,34.4,396,34.1,396.1z M29.8,380.5
		c-0.6,0-1.1,0.1-1.6,0.4c-0.9,0.7-1.6,1.5-2.2,2.5c-0.4,0.7-0.6,1.7-0.6,3c0,1.2,0,1.9,0.1,2.3c0,0.1,0.2,0.8,0.7,1.9
		c0,0.1,0.1,0.4,0.2,0.7c0.1,0.3,0.2,0.6,0.3,0.8c0.4,0.5,0.7,0.8,1,0.9l0.6,0.3l0.7,0.3c0.9,0.5,1.4,0.8,1.6,0.8
		c0.9,0,1.8-0.3,2.8-0.8c0.9-0.4,1.6-1.4,2.1-2.8c0.4-1.2,0.6-2.4,0.6-3.6c0-0.5-0.1-0.9-0.2-1.2l-0.6-1.3c-0.4-1-0.7-1.7-1-2.3
		C33.4,381.2,31.9,380.5,29.8,380.5z"/>
	<path class="st1" d="M48.7,378.4c0.1,0,0.2,0,0.3,0.1l0.2,1.1c0.1,0.1,0.1,0.1,0.2,0.1c0.1,0,0.6-0.3,1.4-0.8
		c0.6-0.4,1.5-0.6,2.4-0.6c0.4,0,1.2,0.1,2.3,0.4c1.1,0.1,1.9,0.6,2.4,1.3c0.4,1.2,0.7,2.1,0.7,2.7l0.1,0.6v0.9l0.1,1.4
		c0,0,0,0.1,0,0.2c0,0.1,0,0.3-0.1,0.5c0,0.2,0,0.4,0,0.7l0.1,2c0,0.9,0.2,1.8,0.4,2.6c0,0.3,0.2,0.7,0.4,1.2c0.1,0.3,0.4,0.8,1,1.4
		l0.8,1c0,0.4-0.4,0.6-1.1,0.6h-0.7c-0.2,0-0.5,0-0.7,0c-0.2,0-0.4,0-0.5-0.1h-0.2c0,0-0.6,0-1.6,0.1c-0.2,0-0.3,0-0.5,0
		c-1.2-0.1-1.8-0.1-1.9-0.1c-0.4-0.1-0.6-0.3-0.6-0.6c0-0.2,0.3-0.5,0.8-1.1c0.1-0.1,0.3-0.5,0.5-1.1l0.4-1l-0.1-2.3
		c0-0.1,0.1-0.2,0.1-0.4c0.1-0.5,0.2-1.2,0.2-1.9c0-3-0.1-4.9-0.4-5.5c-0.6-1.3-1.5-2-2.6-2c-1,0-1.7,0.3-2.3,0.8
		c0,0.1-0.2,0.4-0.4,0.9l-0.5,1.1v1.4l-0.1,0.5v0.5c0,0.1,0,0.2-0.1,0.4c0,0-0.1,0.2-0.1,0.6c-0.1,0.7-0.1,1.2-0.2,1.5
		c0.1,1.1,0.2,1.7,0.2,2c0,0.1,0,0.3-0.1,0.7c0,0.4-0.1,0.6-0.1,0.6l0.1,0.1c0,0.1,0,0.2,0.1,0.4c0,0.2,0.1,0.4,0.1,0.6l0.1,0.9
		c0.1,0.3,0.2,0.6,0.5,1.1c0.3,0.4,0.7,0.7,1.2,1c0.1,0.1,0.2,0.2,0.2,0.3c0,0.3-0.3,0.4-0.9,0.4c-0.3,0-1.1-0.1-2.3-0.2l-1.4-0.1
		c-0.3,0-0.9,0.1-1.8,0.3c-0.1,0-0.3,0-0.5,0c-0.8,0-1.2-0.2-1.2-0.7c0-0.3,0.3-0.6,1-1.1c0.2-0.1,0.6-0.7,1.1-1.6
		c0.1-0.3,0.2-0.9,0.3-1.8c0.1-1.3,0.2-2.4,0.2-3.2v-1.4l0.1-1.3c0-0.8-0.2-1.4-0.5-1.8c-0.1-0.1-0.5-0.3-1-0.6
		c-0.5-0.2-0.8-0.4-0.9-0.5c-0.1-0.2-0.1-0.3-0.1-0.4c0-0.2,0.2-0.5,0.7-0.7c1.5-0.7,2.4-1.2,2.6-1.3
		C47.8,378.8,48.5,378.4,48.7,378.4z"/>
</g>
</svg>
