<?xml version="1.0" encoding="utf-8"?>
<!-- Generator: Adobe Illustrator 19.0.0, SVG Export Plug-In . SVG Version: 6.00 Build 0)  -->
<svg version="1.1" xmlns="http://www.w3.org/2000/svg" xmlns:xlink="http://www.w3.org/1999/xlink" x="0px" y="0px"
	 viewBox="-103 308.3 273.7 397.3" style="enable-background:new -103 308.3 273.7 397.3;" xml:space="preserve">
<style type="text/css">
	.st0{display:none;}
	.st1{display:inline;stroke:#FFFFFF;stroke-width:0.1713;stroke-miterlimit:10;}
	.st2{fill:#FFFFFF;}
	.st3{font-family:'CaslonAntique';}
	.st4{font-size:28.2897px;}
	.st5{fill:#FFFFFF;stroke:#FDFDFD;stroke-width:1.3987;stroke-miterlimit:10;}
	.st6{fill:#FFFFFF;stroke:#FFFFFF;stroke-width:0.2348;stroke-miterlimit:10;}
	.st7{fill:#FFFFFF;stroke:#FFFFFF;stroke-width:0.5022;stroke-miterlimit:10;}
	.st8{fill:#FFFFFF;stroke:#FFFFFF;stroke-width:8.3514;stroke-miterlimit:10;}
	.st9{fill:none;stroke:#FFFFFF;stroke-width:6.701;stroke-linecap:round;stroke-miterlimit:10;}
	.st10{fill:#FFFFFF;stroke:#FFFFFF;stroke-width:6.9937;stroke-linecap:round;stroke-miterlimit:10;}
	.st11{fill:#FFFFFF;stroke:#FFFFFF;stroke-width:7.6459;stroke-linecap:round;stroke-miterlimit:10;}
	.st12{fill:#FFFFFF;stroke:#FFFFFF;stroke-width:0.5367;stroke-miterlimit:10;}
	.st13{fill:#FFFFFF;stroke:#FFFFFF;stroke-width:0.5111;stroke-miterlimit:10;}
</style>
<g id="Layer_2">
</g>
<g id="Layer_3" class="st0">
	<rect x="-103" y="310.3" class="st1" width="403.7" height="395.3"/>
</g>
<g id="Layer_1">
	<g id="XMLID_28_">
		<g id="XMLID_21_">
			<path id="XMLID_22_" class="st2" d="M-45.5,325.4c3.7,0,6.8,0.6,9.4,1.8c1.8,0.9,4,2.5,6.6,4.9c0.2,0.2,1.3,1.2,3.5,3l0.4,0.4
				c0.3,0.2,0.6,0.6,1.1,1.1c0.5,0.5,1,1.1,1.6,1.8c1.1,1.1,2.1,2.3,3.1,3.5c0.3,0.4,0.8,1.2,1.5,2.5l2.1,4.4c1.9,3.6,3,5.7,3.3,6.4
				c0.1,0.1,0.4,1.5,0.8,4c0.6,1.6,1.1,3.5,1.6,5.7c0,1.6,0.1,2.8,0.1,3.6l0.4,5.8c0,0.5-0.1,2.2-0.4,5.2l0.3,6.5
				c0.1,1.1-0.1,2.9-0.5,5.2c-0.3,1.1-1.2,3.8-2.8,8.1l-1.9,4.7l-1.8,2.6l-1.3,1.9l-1.6,2.5c-1.2,1.8-3.5,4.5-6.9,8.1
				c-6.6,5.1-14.1,7.7-22.4,7.7c-5,0-8.8-0.5-11.4-1.5c-8.9-3.2-15.6-10.2-20.2-21c-2.3-5.4-3.9-10-4.9-13.8
				c-0.7-2.7-1.3-5.3-1.6-7.8l-0.1-0.9c0-0.6,0-1.5-0.1-2.8c-0.1-1.3-0.1-2.7-0.1-4.2c0-0.3,0-0.7-0.1-1.1c-0.1-0.5-0.1-0.9-0.1-1.3
				L-88,372c0-3.6,0.6-7.7,1.9-12.3c0.6-2,2-5.5,4.4-10.5c0.2-0.3,1.6-3,4.4-8.3c3.5-4.5,7.8-8.3,13.1-11.2c3.7-2,6.1-3,7.3-3.3
				c0.3-0.1,1.9-0.3,5-0.6C-48.6,325.6-46.4,325.4-45.5,325.4z M-52.2,332.1c-1.6,0.2-3.1,0.9-4.5,2c-1.8,1.5-3.3,2.6-4.5,3.6
				c-2,2.4-3.8,5-5.6,7.8c-0.6,0.8-1.6,2.8-3,6.2l-1.6,3.6l-0.9,3c-0.1,0.3-0.6,1.8-1.6,4.5c-0.3,1.1-0.4,3.2-0.4,6.2
				c0,1.5,0.1,2.8,0.1,3.9v4.4l-0.3,9.3c0,0.5,0.6,3.7,1.8,9.7c0.4,1.8,0.9,3.8,1.5,6.1c0.1,0.4,1.3,2.1,3.6,5.2
				c0.9,2,1.7,3.4,2.3,4c0.9,0.8,2,1.7,3.2,2.8c2.5,2.3,4.4,3.7,5.5,4.2c0.8,0.4,2.5,0.7,5.2,1c0.6,0,1.1,0,1.6,0.1
				c0.5,0.1,0.9,0.1,1.3,0.1c0.3,0.1,0.5,0.1,0.6,0.1c2.4,0,4.2-0.3,5.4-0.7c0.9-0.5,2-1.3,3.2-2.3c0.8-0.8,2.6-2.2,5.4-4.4
				c0.9-0.8,1.8-2.2,2.8-4.4c0-0.2,0.3-0.6,0.7-1.3c1.3-2.1,3.3-6.2,5.9-12.3c0.5-2,0.8-4,0.8-5.8c0-0.5,0-0.9,0.1-1.3
				s0.1-0.6,0.1-0.7v-0.1V383v-1.6v-1.9v-2.8v-0.6c0-0.3,0-0.6,0-0.9s0-0.8-0.1-1.5s-0.1-1.3-0.1-2c-0.1-0.7-0.1-1.8-0.2-3.3
				c-0.1-1.6-0.1-2.7-0.1-3.5c-0.2-0.4-0.4-1.4-0.7-3c-0.7-3.8-2.1-7.8-4-11.9c-0.9-2-3-5.2-6.2-9.6c-1.5-2.1-2.5-3.6-3.1-4.4
				c-0.6-0.7-1.9-1.3-4-1.9c-0.1,0-0.3-0.1-0.6-0.1c-0.3-0.1-0.5-0.2-0.6-0.3c-1.1-0.5-2.8-0.8-5.1-0.9L-52.2,332.1z"/>
			<path id="XMLID_25_" class="st2" d="M5.2,411.6c0.6,0,1.6,0.5,3.3,1.5c2,1.1,3.1,1.8,3.3,2c0.6,0.7,0.8,2,0.8,4
				c0,2.3-0.4,4-1.2,4.9c-1,1.3-2.8,1.9-5.4,1.9c-0.8,0-2.1-0.9-3.9-2.9c-0.9-1.1-1.5-2.6-1.5-4.5C0.8,413.9,2.3,411.6,5.2,411.6z"
				/>
			<path id="XMLID_29_" class="st2" d="M67.3,411.6c0.6,0,1.6,0.5,3.3,1.5c2,1.1,3.1,1.8,3.3,2c0.6,0.7,0.8,2,0.8,4
				c0,2.3-0.4,4-1.2,4.9c-1,1.3-2.8,1.9-5.4,1.9c-0.8,0-2.1-0.9-3.9-2.9c-0.9-1.1-1.5-2.6-1.5-4.5C62.9,413.9,64.3,411.6,67.3,411.6
				z"/>
			<path id="XMLID_31_" class="st2" d="M128.5,325.4c3.7,0,6.8,0.6,9.4,1.8c1.8,0.9,4,2.5,6.6,4.9c0.2,0.2,1.3,1.2,3.5,3l0.4,0.4
				c0.3,0.2,0.6,0.6,1.1,1.1c0.5,0.5,1,1.1,1.6,1.8c1.1,1.1,2.1,2.3,3.1,3.5c0.3,0.4,0.8,1.2,1.5,2.5l2.1,4.4c1.9,3.6,3,5.7,3.3,6.4
				c0.1,0.1,0.4,1.5,0.8,4c0.6,1.6,1.1,3.5,1.6,5.7c0,1.6,0.1,2.8,0.1,3.6l0.4,5.8c0,0.5-0.1,2.2-0.4,5.2l0.3,6.5
				c0.1,1.1-0.1,2.9-0.5,5.2c-0.3,1.1-1.2,3.8-2.8,8.1l-1.9,4.7l-1.8,2.6l-1.3,1.9l-1.6,2.5c-1.2,1.8-3.5,4.5-6.9,8.1
				c-6.6,5.1-14.1,7.7-22.4,7.7c-5,0-8.8-0.5-11.4-1.5c-8.9-3.2-15.6-10.2-20.2-21c-2.3-5.4-3.9-10-4.9-13.8
				c-0.7-2.7-1.3-5.3-1.6-7.8l-0.1-0.9c0-0.6,0-1.5-0.1-2.8c-0.1-1.3-0.1-2.7-0.1-4.2c0-0.3,0-0.7-0.1-1.1c-0.1-0.5-0.1-0.9-0.1-1.3
				L86,372c0-3.6,0.6-7.7,1.9-12.3c0.6-2,2-5.5,4.4-10.5c0.2-0.3,1.6-3,4.4-8.3c3.5-4.5,7.8-8.3,13.1-11.2c3.7-2,6.1-3,7.3-3.3
				c0.3-0.1,1.9-0.3,5-0.6C125.5,325.6,127.6,325.4,128.5,325.4z M121.9,332.1c-1.6,0.2-3.1,0.9-4.5,2c-1.8,1.5-3.3,2.6-4.5,3.6
				c-2,2.4-3.8,5-5.6,7.8c-0.6,0.8-1.6,2.8-3,6.2l-1.6,3.6l-0.9,3c-0.1,0.3-0.6,1.8-1.6,4.5c-0.3,1.1-0.4,3.2-0.4,6.2
				c0,1.5,0.1,2.8,0.1,3.9v4.4l-0.3,9.3c0,0.5,0.6,3.7,1.8,9.7c0.4,1.8,0.9,3.8,1.5,6.1c0.1,0.4,1.3,2.1,3.6,5.2
				c0.9,2,1.7,3.4,2.3,4c0.9,0.8,2,1.7,3.2,2.8c2.5,2.3,4.4,3.7,5.5,4.2c0.8,0.4,2.5,0.7,5.2,1c0.6,0,1.1,0,1.6,0.1s0.9,0.1,1.3,0.1
				c0.3,0.1,0.5,0.1,0.6,0.1c2.4,0,4.2-0.3,5.4-0.7c0.9-0.5,2-1.3,3.2-2.3c0.8-0.8,2.6-2.2,5.4-4.4c0.9-0.8,1.8-2.2,2.8-4.4
				c0-0.2,0.3-0.6,0.7-1.3c1.3-2.1,3.3-6.2,5.9-12.3c0.5-2,0.8-4,0.8-5.8c0-0.5,0-0.9,0.1-1.3c0.1-0.4,0.1-0.6,0.1-0.7v-0.1V383
				v-1.6v-1.9v-2.8v-0.6c0-0.3,0-0.6,0-0.9s0-0.8-0.1-1.5c-0.1-0.7-0.1-1.3-0.1-2c-0.1-0.7-0.1-1.8-0.2-3.3
				c-0.1-1.6-0.1-2.7-0.1-3.5c-0.2-0.4-0.4-1.4-0.7-3c-0.7-3.8-2.1-7.8-4-11.9c-0.9-2-3-5.2-6.2-9.6c-1.5-2.1-2.5-3.6-3.1-4.4
				c-0.6-0.7-1.9-1.3-4-1.9c-0.1,0-0.3-0.1-0.6-0.1c-0.3-0.1-0.5-0.2-0.6-0.3c-1.1-0.5-2.8-0.8-5.1-0.9L121.9,332.1z"/>
		</g>
		<g id="XMLID_37_">
			<path id="XMLID_38_" class="st2" d="M40.4,427.6c-0.2,0-0.4,0.1-0.6,0.1c-1.7,0.2-2.6,0.3-2.8,0.3c-0.4,0-0.7-0.1-1-0.1
				c-0.7-0.1-1.3-0.1-1.8-0.1l-1.2,0.1h-2.1c-1.5,0.2-2.1-0.3-2.1-1.3c0-0.8,0.2-1.3,0.6-1.6l2-1.3c0.5-0.4,1.3-2,2.5-4.5
				c1.3-2.2,1.8-3.8,1.8-4.9v-0.7c0-0.4,0-0.7-0.1-0.9s-0.1-0.5-0.1-0.7c0-0.2,0-0.4,0-0.7l0.3-7.9c0-1.3,0.1-3.3,0.3-6.1
				c0-0.4,0-0.8,0.1-1.1l-0.4-7.3c-0.1-1.7-0.2-3.4-0.3-5.1c0-0.2-0.8-2.1-2.2-5.6c-0.3-0.6-1.3-3.3-3.2-7.9c-0.9-1.7-1.6-2.9-2-3.6
				c-1.2-2.1-2-4-2.6-5.5c-0.1-0.3-0.7-1.8-1.8-4.4c-1.5-3.4-2.3-5.4-2.8-6.1l-1.8-2.5l-1.7-2.7l-1.4-1.8c-1.6-1.5-2.5-2.4-2.6-2.5
				c-0.3-0.4-0.4-0.8-0.4-1.3c0-0.4,0.1-0.7,0.4-1.1c0.1-0.1,1.3-0.3,3.7-0.4c1.8-0.3,2.9-0.4,3.1-0.4c0.4,0,1.3,0.2,2.7,0.6
				c0.3,0,0.8-0.1,1.7-0.2c0.9-0.1,1.5-0.2,1.7-0.2c0.1,0,0.2,0,0.4,0.1c0.2,0.1,0.4,0.1,0.8,0.1c0.3,0.1,0.7,0.1,0.9,0.1
				c0.1,0.1,0.8,0.1,2.1,0.1c1.8,0,2.7,0.7,2.7,2.1c0,0.6-0.2,1.1-0.6,1.8l-1.4,2.3c-0.6,0.8-0.8,1.8-0.8,2.8c0,1.3,1,4.1,3,8.5
				c1.2,2.8,1.9,4.5,2.2,4.9c0.1,0.1,0.2,0.3,0.4,0.6c0.2,0.3,0.4,0.6,0.6,0.9s0.5,0.7,0.8,1.1c0.3,0.4,0.8,1.6,1.5,3.3l1.3,3
				c0.8,2.5,1.4,3.8,1.8,3.8c1.8,0,4-4.1,6.8-12.4c0.5-1.5,0.9-2.5,1.1-3.2c0.9-1.6,1.6-3,2.3-4.3c0.8-1.3,1.1-2.6,1.1-3.8
				c0-1.3-0.3-2.6-1-4.2l-0.2-0.3c-0.1-0.2-0.2-0.4-0.4-0.7c-0.2-0.3-0.3-0.6-0.4-0.8l-0.3-0.3c-0.1-0.1-0.3-0.3-0.6-0.6
				c-0.3-0.3-0.5-0.6-0.8-1c-0.3-0.3-0.4-0.7-0.4-1.3c0-1.5,0.9-2.1,2.7-2.1h0.9c0.4,0,0.8,0,1.2,0.1c0.4,0.1,0.8,0.1,1,0.1
				c0.3,0.1,0.4,0.1,0.6,0.1c0.2,0,0.8-0.1,2-0.4c0.3-0.1,0.7-0.1,1.2-0.1c0.6,0,1.8,0.2,3.7,0.6c1.7,0.4,2.6,1.1,2.6,2.4
				c0,0.8-0.1,1.4-0.4,1.8c-0.3,0.4-1.3,1.3-3.1,2.6c-0.9,0.6-2,2.1-3.3,4.4l-0.2,0.4c-0.2,0.3-0.4,0.6-0.8,1.1
				c-0.3,0.5-0.7,1.1-1.1,1.7c-0.4,0.7-1.2,2.6-2.2,5.7l-1.4,3l-1,2.3l-0.6,1.3l-0.4,0.9l-0.9,2l-2.4,5.2c-1.1,1.8-1.8,3.3-2.1,4.7
				c-0.4,1.9-0.6,4.4-0.6,7.4v7.7v1.1c-0.2,2.3-0.3,3.6-0.3,3.8c0,0.3,0.1,1,0.3,2.1c0.1,1.1,0.2,2,0.1,2.3l-0.2,6.2l-0.1,4.2
				c-0.1,2.1,0.2,4.1,0.8,5.9c0.4,1.5,1.4,3,2.8,4.9c1.1,1.3,1.6,2.3,1.6,3.1s-0.3,1.1-0.8,0.9l-2-0.1c-0.3,0.1-0.9,0.1-2,0.1
				L40.4,427.6z"/>
		</g>
	</g>
	<g id="XMLID_490_">
		<path id="XMLID_491_" class="st2" d="M47.9,330.2l-7,11.9l-7-11.9l7-11.9L47.9,330.2z"/>
	</g>
	<g>
		<text id="XMLID_10_" transform="matrix(1 0 0 1 -41.1401 464.759)" class="st2 st3 st4">Gift Giving Cult</text>
		<g>
			<g>
				<g>
					<path class="st5" d="M110.3,540.8c-0.7,0.1-3.5,0.4-6.1,0.8c-3,0.4-5.2,1-7.8,2.1c-3.6,1.6-5.6,3.1-6.7,5.1c-0.6,1-1.1,3-1,3.8
						l0,0.2l0.4-0.3c0.9-0.7,1.4-1.4,1.7-2.3c0.2-0.5,0.4-1.1,0.4-1.4c0.1-0.3,0.1-0.5,0.2-0.5c0.1,0,0,1-0.3,2.1
						c-0.2,0.6-0.3,1.1-0.2,1.2c0.1,0,2.7-1.5,3.1-1.8c1.1-0.8,2.1-2.3,2.7-4.1c0.5-1.5,0.9-2.2,1-2.2c0,0,0,0.2-0.1,0.3
						c-0.1,0.1-0.3,0.9-0.6,1.6c-0.3,0.8-0.7,1.9-1,2.5c-0.3,0.6-0.5,1.1-0.5,1.1c0.1,0,2.2-1,3-1.4c2.8-1.5,3.5-2.2,4.8-4.9
						c0.3-0.7,0.6-1.2,0.6-1c0,0-0.2,0.5-0.5,1.1c-0.8,1.6-1,2.5-0.9,2.5c0.1,0,0.9-0.4,2.1-1l1.9-1.1l0.3-0.7
						c0.2-0.4,0.3-0.6,0.2-0.4c0,0.2-0.1,0.5-0.1,0.7l0,0.4l0.9-0.7c1.4-1,1.7-1.3,1.6-1.1c-0.1,0.1-0.5,0.5-1.1,0.9
						c-0.5,0.4-0.9,0.8-0.9,0.8c0,0.1,0.4,0,0.9,0c1.1-0.2,0.6,0-0.7,0.3c-0.6,0.1-1.1,0.3-1.6,0.6c-1.1,0.6-2.5,1.4-2.4,1.5
						c0,0,1.2,0,2.5-0.1c1.3-0.1,2.3-0.1,2.3-0.1c-0.1,0-1.2,0.1-2.4,0.2c-2.8,0.2-3.4,0.4-5.1,1.4c-0.6,0.4-1.1,0.7-1.2,0.8
						c0,0.1,0.5,0.1,2.7,0.2c0.6,0,2-0.1,3.2-0.2c1.2-0.1,1.9-0.1,1.7-0.1c-0.8,0.2-3.7,0.4-5.8,0.4c-2.5,0-2.9,0.1-4.8,0.9
						c-1.5,0.6-1.7,0.8-1.4,0.9c0.1,0,1.2,0.2,2.5,0.3c3.1,0.3,4.2,0.2,6.4-0.3c1.6-0.4,2.3-0.5,1.2-0.2c-0.3,0.1-0.9,0.2-1.3,0.4
						c-0.5,0.1-1.2,0.3-2.5,0.4c-1.7,0.2-1.9,0.2-3.7,0c-2.5-0.2-3.1-0.1-4.6,0.5c-0.6,0.3-1.3,0.6-1.5,0.7l-0.4,0.2l0.5,0
						c0.8,0,1.6,0.2,3.2,0.8c0.8,0.3,1.7,0.6,2.1,0.7c0.8,0.2,2.4,0.3,2.7,0.2c0.1,0,0.1,0,0,0.1c-0.1,0.1-0.3,0.1-1,0.1
						c-1.2,0-2.6-0.4-4-0.9c-1.5-0.6-2.4-0.8-3.2-0.7c-0.7,0.1-1.7,0.4-2.6,1c-0.3,0.2-1.1,0.6-1.8,0.9c-1.1,0.5-1.2,0.6-1.1,0.8
						c0.1,0.3,0.3,0.4,0.5,0.2c0.1-0.1,0.6-0.3,1.1-0.4c1.1-0.4,1.4-0.4,3.7-0.1c0.9,0.1,2,0.2,2.5,0.3v0c2.1,0.1,4.9-0.4,7.2-1.4
						c4.1-1.7,7.5-5.3,8.5-9.3c0.3-1.2,0.6-3.3,0.5-3.4C110.4,540.8,110.4,540.8,110.3,540.8z"/>
					<path id="XMLID_3_" class="st6" d="M76.7,559.6c0.2-1.3,0.6-2.4,1.4-3.3c0.9-1.1,2.1-1.6,3.5-1.5c0.2,0,0.4,0.1,0.6,0.1
						c-2.7,0.5-4.2,2.3-4.6,5.4c-0.1,0.4-0.1,0.9,0,1.3c4.1-1.4,6.2-2.9,6.4-4.3c0.1-0.6-0.2-1-0.8-1.1c-1,0.5-2.1,1.5-3.4,2.7
						c0.3-1.2,1.4-2.4,3.2-3.8c1.5,0.2,2.1,1,2,2.3c-0.2,1.5-1.6,2.8-4.3,4c-0.7,0.3-1.3,0.5-2,0.8c-0.8,0.3-1.4,0.7-1.8,1.1
						C76.6,561.7,76.6,560.5,76.7,559.6z"/>
					<path id="XMLID_1_" class="st7" d="M97.8,573.1c-3-0.3-5.6-1.2-7.8-2.8c-2.7-1.8-3.9-4.1-3.6-6.7c0.1-0.4,0.2-0.8,0.3-1.2
						c1.2,5.2,5.5,8.2,12.7,9c1,0.1,2,0.1,3,0c-3.4-7.8-6.8-12-10.2-12.3c-1.5-0.2-2.4,0.4-2.7,1.6c1.3,2,3.5,4.1,6.5,6.5
						c-2.7-0.6-5.7-2.6-9-6.2c0.4-2.9,2.3-4.1,5.5-3.8c3.5,0.4,6.7,3.2,9.4,8.4c0.6,1.3,1.2,2.6,1.8,3.9c0.8,1.5,1.6,2.7,2.5,3.5
						C102.7,573.3,99.9,573.4,97.8,573.1z"/>
				</g>
			</g>
			<g>
				<line class="st8" x1="40.9" y1="575.9" x2="16.9" y2="525.3"/>
				<g>
					<polyline class="st9" points="25.8,600.8 25.8,586.6 40.9,575.9 					"/>
				</g>
				<g>
					<polyline class="st9" points="57.2,600.8 57.2,586.6 42.1,575.9 					"/>
				</g>
				<line class="st8" x1="40.9" y1="575.9" x2="64.9" y2="525.3"/>
				<line class="st10" x1="122.8" y1="527.4" x2="-41.1" y2="527.4"/>
				<g>
					<path class="st2" d="M37.1,590.9v-11.7c-4.5-0.4-8.7-1.6-12.6-3.5s-7.3-4.3-10.2-7.3S9.2,562,7.6,558
						c-1.6-3.9-2.5-8.1-2.5-12.5c0-4.4,0.8-8.6,2.5-12.5c1.6-3.9,3.9-7.3,6.8-10.3c2.9-3,6.3-5.4,10.2-7.3s8.1-3.1,12.6-3.5v-11.1
						l-6.7,6.6h-8.3l18.7-17.3H41l18.7,17.3h-8.3l-6.8-6.7v11.2c4.5,0.4,8.7,1.6,12.5,3.5s7.3,4.3,10.1,7.3c2.9,3,5.1,6.4,6.8,10.3
						c1.7,3.9,2.5,8,2.5,12.5c0,4.4-0.8,8.6-2.5,12.5c-1.7,3.9-3.9,7.4-6.8,10.3c-2.9,3-6.3,5.4-10.1,7.3s-8.1,3.1-12.5,3.5v11.7
						H37.1z M13.6,545.5c0,3.4,0.6,6.7,1.8,9.7c1.2,3,2.8,5.7,4.9,8s4.6,4.3,7.4,5.8c2.9,1.5,6,2.5,9.4,2.9v-52.7
						c-3.4,0.4-6.6,1.4-9.4,2.9c-2.9,1.5-5.3,3.4-7.4,5.8c-2.1,2.3-3.7,5-4.9,8C14.2,538.9,13.6,542.1,13.6,545.5z M68.1,545.5
						c0-3.4-0.6-6.7-1.8-9.7c-1.2-3-2.8-5.7-4.9-8c-2.1-2.3-4.6-4.2-7.4-5.8c-2.9-1.5-6-2.5-9.4-2.9v52.7c3.4-0.4,6.6-1.4,9.4-2.9
						c2.9-1.5,5.3-3.4,7.4-5.8c2.1-2.3,3.7-5,4.9-8C67.6,552.2,68.1,549,68.1,545.5z"/>
				</g>
				<line class="st11" x1="40.9" y1="609.1" x2="40.9" y2="580.5"/>
			</g>
			<g>
				<g>
					<path class="st2" d="M85.6,678.2c-0.5-0.2-1.1-0.5-1.4-0.6c-0.6-0.2-0.5-0.2,0.6-1c1.6-1,1.9-1.7,1.3-3.1
						c-0.6-1.6-1.9-2.3-3.4-2c-1.3,0.3-1.9,0.9-2.2,2c-0.2,0.8-0.1,1,0.9,2.1c1,1.1,1.1,1.2,0.5,1c-1.2-0.4-1.9-1.1-2.6-2.5
						c-0.8-1.6-1.5-1.8-2.2-0.7c-0.5,0.9-0.7,4.1-0.3,5.1c0.5,1,1,1.2,4.8,1.4c2.7,0.2,3.5,0.1,4-0.2
						C86.6,679.2,86.6,678.8,85.6,678.2z"/>
					<path class="st2" d="M82.3,667.7c-0.2-0.3-0.6-0.8-0.9-1c-0.3-0.2-3-0.5-6.3-0.8c-3.1-0.3-7.9-0.8-10.6-1
						c-2.7-0.3-7.5-0.8-10.6-1.2c-3.2-0.3-8-0.9-10.8-1.2c-24.5-2.7-25.2-2.9-27.1-4.4c-1.1-1-1.3-1-1.9-0.4c-0.8,0.8-1,1.8-0.8,3.7
						c0.1,1,0.1,1.9,0,2c-0.1,0.1-0.2,0.4-0.1,0.5c0.1,0.1,0,0.1-0.2,0c-0.9-0.6-1.7-3.6-1.5-6.2c0.1-2.2-0.1-2.6-1.5-2
						c-0.7,0.3-0.7,0.3-0.6-0.1c0.2-0.7-2.2-3.2-3-3.1c-1.1,0.1-1,1.8,0.1,3.1c0.7,0.8,0.7,0.8,0.1,1c-0.8,0.3-1.4,1.5-1.2,2.3
						c0.2,0.7,0.7,0.9,2.7,1.3c1,0.2,1.6,1,1.3,1.7c-0.2,0.3-0.3,0.2-1-0.4c-0.7-0.7-1-0.7-2.2-0.7c-1,0.1-1.4,0-1.4-0.2
						c0-0.2,0-1.2,0.1-2.3c0.1-2.2,0.2-2-1.7-3.5l-0.7-0.6l0.9-0.1c0.7-0.1,1-0.2,1.2-0.9c0.2-0.6,0.2-0.9-0.2-1.3
						c-0.5-0.6-3.3-1.7-4.4-1.8c-1.1-0.1-1.1,1.1,0,2.4c0.3,0.4,0.4,0.9,0.3,1.4l-0.1,0.8l-0.6-0.6c-1.2-1.1-1.8-1.5-2.1-1.2
						c-0.5,0.4-0.1,1.9,1,3.9c1,1.7,1.2,1.9,2.4,2.4c1.9,0.7,2.5,1.3,3.9,4.5c1.1,2.6,1.4,2.9,2.1,3.2c0.6,0.2,0.8,0.4,0.8,0.9
						c-0.1,1.7,2.1,3.8,4.1,3.9c1.1,0.1,1.6-0.2,2.3-1.3c0.5-0.8,0-1.6-1.7-3.4c-1.5-1.5-2.1-1.7-3.2-1.1L9,666.4l0.5-0.8
						c0.6-1,1.4-1,2.6,0c0.5,0.4,1.3,1,1.7,1.3c0.5,0.4,1.2,0.9,1.5,1.2c0.8,0.8,1.5,0.8,2.4-0.1c0.7-0.7,0.8-0.7,3.3-0.6
						c2.3,0.1,9.5,1,22.2,2.7c2.8,0.4,5.7,0.8,6.4,0.9c0.7,0.1,5.3,0.9,10.2,1.7c4.9,0.8,9.2,1.5,9.5,1.6c1.1,0.3,2,0.9,3.3,2.2
						c1.8,1.7,2.1,1.6,2.2-0.8l0-1.9l2-1.5c1.1-0.8,2.2-1.4,2.4-1.4c0.2,0,0.9-0.1,1.5-0.2C82.2,670.5,83,669.1,82.3,667.7z"/>
					<path class="st2" d="M-0.7,644.4c-1.6-3.5-2.4-3.8-1.3-0.5l0.5,1.7l-1.1,0.6c-0.9,0.5-1.1,0.7-1.1,1.4c0,0.4,0.2,1.3,0.4,2
						c0.4,1.1,0.4,1.1,0,0.7c-0.6-0.6-1-0.6-1.2,0c-0.3,0.6,0.1,1.7,0.8,2.2c0.9,0.7,1,0.6,1-0.5c0-1,0.4-1.2,0.7-0.3
						c0.2,0.5,0.6,0.3,1.3-0.8c0.7-1.1,0.8-2,0.4-2.5c-0.2-0.2-0.2-0.3,0.2-0.4C0.5,647.6,0.4,646.8-0.7,644.4z"/>
					<path class="st2" d="M-3.1,643.3c-0.4-0.5-0.4-0.5-0.8,0c-0.5,0.6-0.6,2-0.2,2.4c0.3,0.3,0.4,0.2,0.8-0.2
						C-2.6,644.8-2.6,644-3.1,643.3z"/>
					<path class="st2" d="M-3.7,641.2c-0.2-0.1-0.5-0.1-0.7,0.1c-0.4,0.4-0.1,1.1,0.5,1.1C-3.3,642.4-3.1,641.5-3.7,641.2z"/>
				</g>
				<path class="st12" d="M54,656.6c-0.6,0.2-1,0.9-0.8,1.5c0.1,0.2,0.4,0.5,0.4,0.5c0,0,0-0.1,0-0.2c-0.1-0.2,0-0.6,0.1-0.7
					c0.2-0.3,0.6-0.4,1-0.2c0.4,0.1,0.6,0.6,0.4,1c-0.4,1-1.7,1.6-4,1.6c-0.5,0-1.7-0.1-2-0.1l-0.2-0.1l0.2-0.1
					c0.5-0.2,0.9-0.5,1.2-0.9c0.1-0.2,0.1-0.3,0.2-0.6c0-0.3,0-0.4,0-0.6c-0.2-0.6-1-1-1.6-0.7c-0.3,0.1-0.5,0.4-0.6,0.7
					c-0.1,0.2,0,0.6,0,0.7c0,0.1,0.1,0,0.1-0.1c0.1-0.4,0.4-0.7,0.9-0.7c0.3,0,0.4,0.2,0.5,0.4c0.2,0.5-0.2,1.1-0.9,1.4
					c-1,0.3-2.6-0.1-3.2-1c-0.2-0.3-0.3-0.6-0.3-1c0.1-0.7,0.9-1,1.5-0.6c0.3,0.2,0.3,0.6,0.1,0.8c-0.3,0.2-0.6,0-0.5-0.3
					c0-0.2,0-0.2-0.1-0.1c-0.4,0.2-0.3,0.8,0.2,1c0.6,0.3,1.3-0.2,1.2-0.9c0-0.4-0.3-0.7-0.7-1c-0.2-0.1-0.3-0.2-0.6-0.2
					c-0.3,0-0.4,0-0.6,0c-0.8,0.3-1.3,1.2-0.9,1.9c0,0.1,0.1,0.1,0.1,0.1c0,0-0.4-0.4-1.1-1c-1-1-1.4-1.4-2.1-1.7
					c-0.6-0.3-1.1-0.4-1.7-0.4c-1.3,0-2.4,0.3-4.9,1.5c-0.6,0.3-1.1,0.5-1.1,0.5c0,0,0-0.1,0.1-0.2c0.4-0.5,0.5-1.2,0.4-1.8
					c-0.1-0.3-0.3-0.6-0.6-0.8c-0.3-0.2-0.8-0.2-1.2-0.1c-0.7,0.2-1,0.9-0.7,1.5c0.1,0.1,0.1,0.2,0.1,0.2c0,0,0.1-0.1,0.1-0.2
					c0.1-0.3,0.3-0.6,0.6-0.7c0.1-0.1,0.5,0,0.7,0.1c0.4,0.2,0.6,0.9,0.3,1.5c-0.2,0.5-0.6,0.8-1.3,1c-0.8,0.3-2.1,0.3-3,0.1
					c-1.2-0.3-1.8-0.8-1.6-1.7c0.1-0.7,0.5-1,1.2-0.9c0.4,0.1,0.7,0.3,0.6,0.7c0,0.2,0,0.2-0.1,0.3c-0.1,0.1-0.2,0.1-0.3,0.1
					c-0.2,0-0.3-0.2-0.3-0.4c0-0.2,0-0.3-0.2-0.1c-0.2,0.3-0.1,0.7,0.2,0.9c0.8,0.5,1.6-0.3,1.3-1.2c-0.2-0.8-1.4-1.2-2.2-0.8
					c-0.4,0.2-0.8,0.7-0.8,1.1c-0.1,0.4,0.1,0.8,0.3,1.2c0.1,0.1,0.1,0.2,0.1,0.2c0,0-0.2-0.1-0.5-0.2c-0.6-0.3-1.4-0.8-1.8-1.2
					c-0.4-0.4-0.9-1-1.1-1.3c-0.1-0.1-0.1-0.3-0.2-0.3c-0.1,0,0.1,0.6,0.2,0.9c0.2,0.6,0.8,1.2,1.5,1.7c0.6,0.4,1.6,0.9,2.5,1.2
					c0.7,0.2,1.8,0.4,2.6,0.4c1,0,2-0.3,3.6-0.8c1.4-0.5,2.3-0.3,2.6,0.6c0.2,0.6-0.1,1.2-0.7,1.3c-0.4,0.1-0.7-0.1-0.8-0.4
					c-0.1-0.3,0.1-0.6,0.4-0.5c0.1,0,0.2,0,0.3,0.2l0.1,0.2l0-0.2c0.1-0.4-0.3-0.8-0.8-0.8c-0.4,0-0.6,0.3-0.7,0.6
					c-0.1,0.4,0.2,0.9,0.6,1.2c0.3,0.2,0.8,0.2,1.1,0.1c0.3-0.1,0.6-0.3,0.8-0.6c0.1-0.2,0.2-0.3,0.2-0.6c0-0.3,0-0.4,0-0.7
					c-0.1-0.4-0.4-0.7-0.8-0.9c-0.2-0.1-0.3-0.2-0.7-0.2c-0.2,0-0.4-0.1-0.4-0.1c0,0,1-0.4,1.5-0.6c2.1-0.7,3.8-0.5,4.5,0.3
					c0.4,0.5,0.5,1.1,0.4,1.6c-0.1,0.5-0.3,0.8-0.7,1c-0.4,0.3-1,0.3-1.4,0.1c-0.5-0.3-0.5-1,0-1.4c0.3-0.2,0.5-0.2,0.9,0
					c0.1,0,0.1,0,0-0.1c-0.6-0.7-1.6-0.6-2,0.2c-0.2,0.4-0.2,0.8-0.1,1.2c0.3,0.8,1.3,1.4,2.3,1.2c0.7-0.1,1.3-0.5,1.7-1
					c0.3-0.5,0.5-1.2,0.5-1.6c0,0,0-0.1,0-0.1c0,0,0.2,0.2,0.3,0.3c1,1.2,2.3,1.9,3.9,2.3c1.4,0.3,2.8,0.4,5.1,0.1
					c1-0.1,1.5-0.1,1.9,0c0.8,0.2,1.2,0.7,1.1,1.2c0,0.2-0.2,0.4-0.4,0.5c-0.3,0.1-0.7,0.1-0.8-0.1c-0.1-0.1-0.2-0.4-0.2-0.6
					c0-0.1,0-0.2,0-0.2c-0.1,0-0.2,0.1-0.2,0.3c-0.2,0.4,0,0.8,0.4,1.1c0.2,0.1,0.3,0.2,0.5,0.2c0.5,0,0.9-0.2,1.2-0.5
					c0.1-0.1,0.1-0.2,0.2-0.5c0-0.3,0-0.4-0.1-0.6c-0.1-0.2-0.2-0.4-0.3-0.5c-0.2-0.2-0.7-0.5-0.9-0.6c-0.1,0-0.2-0.1-0.2-0.1
					c0.1,0,1.2-0.3,1.8-0.4c0.8-0.1,1.8-0.2,2.6-0.2c0.6,0,0.8,0,1.8,0.1l1.1,0.1l-0.1-0.1c-0.2-0.2-0.6-0.5-0.9-0.6
					c-0.2-0.1-0.4-0.1-1-0.2c-0.7-0.1-0.7-0.1-1.3,0c-0.8,0.1-1.5,0.2-2.8,0.6c-1.5,0.4-1.4,0.4-1.1,0.2c0.5-0.4,0.7-1,0.7-1.5
					c0-0.5-0.3-1-0.7-1.2c-0.2-0.1-0.3-0.2-0.6-0.2C54.3,656.5,54.2,656.5,54,656.6z"/>
				<path class="st12" d="M51.7,679.1c0.3,0,0.4,0,0.6,0c0.5-0.1,0.8-0.5,1-1c0.2-0.5,0.1-1.1-0.3-1.6c-0.2-0.3-0.3-0.3,1,0.5
					c1.2,0.7,1.8,1,2.5,1.3c0.5,0.2,0.6,0.2,1.2,0.3c0.6,0.1,0.8,0.1,1,0.1c0.3,0,0.8-0.2,1-0.3l0.2-0.1l-1.1-0.2
					c-1-0.1-1.1-0.2-1.7-0.4c-0.7-0.2-1.6-0.6-2.4-0.9c-0.6-0.2-1.6-0.8-1.7-0.8c0,0,0.1,0,0.2,0c0.3,0,0.8-0.1,1.1-0.3
					c0.1-0.1,0.3-0.2,0.4-0.4c0.2-0.2,0.2-0.3,0.2-0.6c0-0.3,0-0.4,0-0.5c-0.1-0.4-0.5-0.7-1-0.8c-0.2,0-0.3,0-0.6,0
					c-0.5,0.2-0.8,0.5-0.7,0.9c0,0.2,0.1,0.4,0.1,0.4c0,0,0-0.1,0.1-0.2c0-0.2,0.2-0.5,0.3-0.5c0.2-0.1,0.6-0.1,0.8,0.1
					c0.1,0.1,0.2,0.4,0.2,0.6c-0.1,0.5-0.6,0.9-1.4,0.9c-0.4,0-0.8-0.1-1.8-0.5c-2.1-0.9-3.5-1.2-4.9-1.2c-1.7,0-3.1,0.3-4.5,1.2
					c-0.2,0.1-0.4,0.2-0.4,0.2c0,0,0,0,0-0.1c0.2-0.4,0.2-1.1,0-1.7c-0.2-0.7-0.7-1.2-1.3-1.4c-1-0.4-2.1-0.2-2.6,0.5
					c-0.2,0.3-0.3,0.8-0.3,1.2c0.2,0.8,1.1,1.2,1.9,0.7c0.2-0.1,0.2-0.1,0.1-0.1c-0.4,0-0.6,0-0.8-0.2c-0.4-0.5-0.2-1.1,0.4-1.3
					c0.4-0.1,1,0,1.4,0.4c0.3,0.3,0.4,0.6,0.3,1.2c0,0.6-0.3,1.1-0.8,1.5c-0.9,0.7-2.6,0.3-4.4-0.9c-0.4-0.3-1.3-0.9-1.2-0.9
					c0,0,0.2,0,0.4,0c0.4,0,0.4,0,0.7,0c0.4-0.1,0.8-0.4,1-0.7c0.2-0.2,0.2-0.3,0.2-0.6c0-0.3,0-0.4,0-0.6c-0.1-0.3-0.3-0.6-0.6-0.8
					c-0.3-0.2-0.8-0.3-1.1-0.2c-0.5,0.1-0.9,0.5-0.9,1c0,0.4,0.1,0.7,0.5,0.8c0.4,0.2,0.9-0.1,1-0.5l0-0.2l-0.2,0.2
					c-0.2,0.1-0.2,0.1-0.3,0.1c-0.3,0-0.5-0.3-0.3-0.6c0.2-0.3,0.5-0.3,0.9-0.1c0.6,0.2,0.7,0.9,0.3,1.5c-0.5,0.8-1.4,0.7-2.6-0.2
					c-1.3-1-2.2-1.5-3.2-1.8c-0.7-0.2-1.8-0.4-2.6-0.4c-1,0-2.1,0.2-2.8,0.5c-0.8,0.3-1.6,0.8-2,1.3c-0.2,0.3-0.5,0.8-0.5,0.8
					c0,0,0.1-0.1,0.2-0.2c0.3-0.3,1-0.8,1.5-1c0.5-0.2,1.4-0.5,2.1-0.6c0.3-0.1,0.6-0.1,0.6-0.1c0,0-0.1,0.1-0.1,0.1
					c-0.3,0.3-0.5,0.7-0.6,1c-0.1,0.4,0.1,1,0.5,1.3c0.7,0.6,1.9,0.5,2.4-0.2c0.5-0.8-0.1-1.8-0.9-1.5c-0.4,0.1-0.6,0.5-0.5,0.9
					c0.1,0.2,0.2,0.2,0.2,0c0-0.3,0.2-0.4,0.4-0.3c0.1,0,0.2,0.1,0.3,0.2c0.1,0.1,0.1,0.2,0,0.3c-0.1,0.4-0.4,0.6-0.8,0.5
					c-0.7-0.1-1-0.5-0.9-1.2c0.1-0.8,0.8-1.2,2.1-1.1c0.9,0,2.1,0.4,2.8,0.9c0.6,0.4,0.9,0.8,0.9,1.3c0.1,0.6-0.2,1.2-0.7,1.3
					c-0.2,0-0.5,0-0.7-0.1c-0.3-0.2-0.4-0.5-0.4-0.9c0-0.1,0-0.2,0-0.2c0,0-0.1,0.1-0.2,0.2c-0.5,0.5-0.4,1.2,0.2,1.6
					c0.3,0.2,0.8,0.3,1.1,0.2c0.3-0.1,0.6-0.3,0.8-0.6c0.3-0.5,0.4-1.2,0.2-1.8c-0.1-0.1-0.1-0.2,0-0.2c0,0,0.4,0.4,0.9,0.8
					c2,1.7,3,2.4,4.2,2.7c0.6,0.2,1.1,0.2,1.7,0.1c0.7-0.1,1.2-0.3,2.5-1c0.8-0.4,1.3-0.7,1.3-0.7c0,0,0,0.1-0.1,0.1
					c-0.6,0.6-0.4,1.6,0.3,2.1c0.2,0.1,0.3,0.2,0.6,0.2c0.3,0,0.4,0,0.6,0c0.5-0.1,0.8-0.4,0.9-0.8c0.3-0.7-0.2-1.3-0.9-1.2
					c-0.5,0.1-0.8,0.6-0.5,0.9c0.1,0.1,0.1,0.1,0.1-0.1c0-0.3,0.4-0.4,0.6-0.1c0.2,0.2,0,0.6-0.3,0.7c-0.7,0.3-1.3-0.3-1.2-1
					c0.1-0.4,0.2-0.6,0.5-0.9c0.8-0.6,2.4-0.7,3.3-0.1c0.6,0.4,0.8,1.1,0.5,1.5c-0.2,0.2-0.4,0.2-0.6,0.2c-0.4-0.1-0.7-0.4-0.6-0.9
					c0-0.1,0-0.2,0-0.1c-0.1,0.1-0.2,0.4-0.2,0.7c0,0.3,0.2,0.6,0.4,0.8c0.5,0.4,1.3,0.2,1.7-0.3c0.1-0.2,0.2-0.3,0.2-0.6
					c0-0.3,0-0.4,0-0.6c-0.1-0.4-0.4-0.9-0.9-1.2l-0.2-0.1l0.2,0c0.3,0,1.5,0.2,1.9,0.4c2.2,0.7,3.3,1.6,3.4,2.6
					c0,0.4-0.3,0.8-0.7,0.9c-0.4,0-0.7-0.2-0.8-0.5c-0.1-0.2,0-0.5,0.1-0.7c0.1-0.1,0.1-0.2,0.1-0.2c0,0-0.4,0.3-0.5,0.4
					c-0.4,0.5-0.2,1.2,0.3,1.6C51.3,679,51.4,679,51.7,679.1z"/>
			</g>
			<g>
				<g>
					<path class="st13" d="M65.4,602.2c-0.5,0.5-0.7,1.2-0.7,1.9c0,0.4,0,0.4,0.3,0.9l0.3,0.6l0.4,0.3c0.3,0.2,0.5,0.4,0.8,0.5
						c0.4,0.2,1.1,0.3,1.2,0.2c0,0-0.1-0.1-0.2-0.2c-0.2-0.2-0.5-0.7-0.5-1c-0.1-0.8,0.6-1.6,1.4-1.7c0.8-0.1,2,0.2,3.1,0.9
						c0.7,0.4,1.5,1,2.5,1.9c0.5,0.5,1,0.8,1.1,0.8c0,0,0.1-0.1,0.1-0.3l0.1-0.3l-0.7-0.6c-1.1-1.1-2.8-2.4-3.4-2.9
						c-1.6-1.2-3-1.7-4.3-1.5C66.3,601.6,65.7,601.9,65.4,602.2z"/>
					<path class="st13" d="M78.4,600.7c-0.6,0.4-1.3,1.3-1.7,2c-0.4,0.7-0.6,1.3-0.8,2.4c-0.1,0.6-0.4,1.5-0.5,2.2
						c-0.4,1.6-0.8,2.6-1.3,3.4c-0.5,0.7-1.1,1.3-1.7,1.6l-0.3,0.1l0-0.3c0-0.4-0.1-0.8-0.3-1.3c-0.6-1.3-1.6-2-2.8-2.1
						c-0.7,0-1,0-1.7,0.4c-0.8,0.5-1.2,0.9-1.6,1.7c-0.4,0.9-0.5,2-0.3,3.1c0.2,1.1,0.7,2,1.5,2.9c0.2,0.2,0.4,0.4,0.4,0.4
						c0,0-0.2,0-0.4-0.1c-1-0.2-2.5-0.5-3.2-0.5c-1.7-0.2-2.9,0-3.9,0.6c-1.2,0.7-1.9,2.1-1.7,3.3c0.1,0.3,0.1,0.4,0.3,0.8
						c0.3,0.6,0.6,0.8,1.2,1.1c1.3,0.6,2.5-0.1,2.5-1.6c0-0.3,0-0.5-0.1-0.4c-0.4,0.4-0.5,0.4-0.7,0.5c-0.7,0.1-1.5-0.6-1.5-1.5
						c0-0.3,0.1-0.8,0.3-1c0.2-0.2,0.2-0.3,0.9-0.6c0.6-0.3,0.8-0.4,1.1-0.4c1.2-0.2,2.3-0.1,4.5,0.4c1.5,0.3,2,0.4,3.1,0.5
						c1,0.1,1.6,0.1,2.3-0.1c0.3-0.1,0.6-0.2,1.3-0.5c1-0.5,1.4-0.8,2-1.6c0.9-1.1,1.4-2.1,2.4-5c0.2-0.6,0.4-1.1,0.4-1.2l0.1-0.2
						l-0.3-0.2c-0.2-0.1-0.3-0.2-0.4-0.2c0,0-0.3,0.7-0.6,1.4c-1.1,3-1.8,4.2-2.9,5.2c-0.5,0.4-1.6,1-2.2,1.1
						c-2,0.4-3.7-0.4-4.6-2.1c-0.3-0.6-0.4-1.1-0.5-1.7c-0.1-1.2,0.3-2.2,1.1-2.6c0.4-0.2,0.7-0.2,1.1-0.1c0.5,0.2,0.9,0.7,1,1.2
						c0.1,0.4,0,0.8-0.2,1c-0.2,0.3-0.7,0.5-1,0.4c-0.2,0-0.2,0-0.2,0.1c0,0.1,0.6,0.6,0.9,0.7c0.7,0.3,1.5,0.2,2.7-0.4
						c1.3-0.6,2.1-1.4,2.9-2.7c0.8-1.3,1.3-2.8,2-5.6c0.3-1.2,0.5-1.8,1-2.5c0.6-1,1.6-1.8,2.6-2.1c1.3-0.4,2.4-0.3,3.5,0.5
						c1.3,0.9,2.5,3,2.7,4.7c0.1,1.1-0.2,2.2-0.8,2.8c-0.3,0.3-0.9,0.6-1.3,0.6c-0.6,0-1.1-0.3-1.4-0.8c-0.1-0.2-0.2-0.4-0.2-0.5
						c0-0.3,0.1-0.8,0.3-1c0.2-0.2,0.6-0.3,0.8-0.3c0.4,0,0.9,0.3,1.1,0.7c0.1,0.3,0.2,0.3,0.3,0c0.2-0.9-0.5-2-1.5-2.4
						c-0.6-0.3-1.4-0.4-2-0.3c-1,0.1-2.2,0.8-3,1.8c-0.3,0.4-1.1,1.8-1.1,1.9c0,0,0.6,0.5,0.6,0.5c0,0,0.1-0.1,0.2-0.3
						c0.5-1,1.2-1.8,1.9-2.2l0.4-0.2l-0.1,0.3c-0.2,0.5-0.2,1.2,0,1.8c0.1,0.5,0.5,1.2,0.8,1.6c0.1,0.2,0.3,0.4,0.4,0.4
						c0.1,0.1,0.2,0.2,0.2,0.2c0,0-0.5,0-1-0.1c-1.4-0.3-2.4-0.8-4.1-2.2c-0.3-0.2-0.5-0.4-0.6-0.4c0,0-0.1,0.1-0.1,0.2l-0.1,0.3
						l0.6,0.5c1.9,1.6,4.1,2.6,6.3,2.8c1.7,0.2,3.1-0.3,4.1-1.3c0.3-0.3,0.8-1,1-1.6c0.4-1,0.5-2,0.6-4.7c0.1-2.7,0.1-3.1,0.5-3.8
						c0.4-0.6,1.2-0.9,1.7-0.5c0.4,0.3,0.4,0.2,0.4,0c0.1-0.7-0.5-1.5-1.3-1.8c-0.4-0.2-0.7-0.2-1.1-0.1c-0.4,0.1-0.5,0.2-0.9,0.5
						c-0.6,0.5-1,1.1-1.2,2c-0.1,0.6-0.2,1.1-0.1,2L87,603l-0.3-0.4c-1.7-2.3-4.1-3.3-6.4-2.8C79.9,599.9,78.8,600.4,78.4,600.7z"/>
				</g>
				<g>
					<g>
						<path class="st13" d="M14.9,601.6c-1.2-0.1-2.6,0.4-4.3,1.5c-0.6,0.4-2.3,1.8-3.4,2.9l-0.7,0.6l0.1,0.3c0,0.2,0.1,0.3,0.1,0.3
							c0,0,0.5-0.4,1.1-0.8c1-0.8,1.8-1.5,2.5-1.9c1.1-0.7,2.3-1,3.1-0.9c0.8,0.1,1.4,0.9,1.4,1.7c0,0.3-0.3,0.8-0.5,1
							c-0.1,0.1-0.2,0.2-0.2,0.2c0,0.1,0.8,0,1.2-0.2c0.3-0.1,0.5-0.2,0.8-0.5l0.4-0.3l0.3-0.6c0.3-0.5,0.3-0.6,0.3-0.9
							c0.1-0.7-0.2-1.4-0.7-1.9C16.1,601.9,15.4,601.6,14.9,601.6z"/>
						<path class="st13" d="M1.5,599.8c-2.3-0.5-4.7,0.6-6.4,2.8l-0.3,0.4l0.1-0.7c0.1-0.9,0.1-1.3-0.1-2c-0.2-0.8-0.6-1.5-1.2-2
							c-0.4-0.3-0.5-0.4-0.9-0.5c-0.4-0.1-0.7-0.1-1.1,0.1c-0.8,0.3-1.3,1.1-1.3,1.8c0,0.2,0,0.2,0.4,0c0.5-0.3,1.4-0.1,1.7,0.5
							c0.4,0.6,0.5,1.1,0.5,3.8c0.1,2.7,0.2,3.7,0.6,4.7c0.2,0.5,0.6,1.2,1,1.6c1,1,2.4,1.4,4.1,1.3c2.1-0.2,4.3-1.2,6.3-2.8
							l0.6-0.5l-0.1-0.3c0-0.1-0.1-0.3-0.1-0.2c0,0-0.3,0.2-0.6,0.4c-1.6,1.4-2.6,1.9-4.1,2.2c-0.5,0.1-1,0.2-1,0.1
							c0,0,0.1-0.1,0.2-0.2c0.1-0.1,0.3-0.3,0.4-0.4c0.3-0.4,0.7-1.1,0.8-1.6c0.2-0.6,0.1-1.3,0-1.8L1,606.4l0.4,0.2
							c0.7,0.4,1.4,1.2,1.9,2.2c0.1,0.2,0.2,0.3,0.2,0.3c0,0,0.6-0.4,0.6-0.5c0-0.2-0.8-1.5-1.1-1.9c-0.7-0.9-1.9-1.6-3-1.8
							c-0.7-0.1-1.4,0-2,0.3c-1,0.5-1.7,1.6-1.5,2.4c0.1,0.3,0.2,0.3,0.3,0c0.2-0.4,0.7-0.7,1.1-0.7c0.3,0,0.7,0.2,0.8,0.3
							c0.1,0.2,0.3,0.7,0.3,1c0,0.2-0.1,0.3-0.2,0.5c-0.3,0.5-0.7,0.8-1.4,0.8c-0.4,0-1-0.3-1.3-0.6c-0.6-0.6-0.9-1.8-0.8-2.8
							c0.2-1.8,1.4-3.8,2.7-4.7c1.1-0.8,2.3-0.9,3.5-0.5c1,0.3,2,1.1,2.6,2.1c0.4,0.7,0.7,1.3,1,2.5c0.7,2.8,1.2,4.3,2,5.6
							c0.8,1.3,1.6,2,2.9,2.7c1.1,0.6,1.9,0.7,2.7,0.4c0.3-0.1,0.9-0.6,0.9-0.7c0,0-0.1-0.1-0.2-0.1c-0.3,0-0.8-0.2-1-0.4
							c-0.2-0.3-0.3-0.7-0.2-1c0.1-0.5,0.6-1,1-1.2c0.3-0.1,0.7-0.1,1.1,0.1c0.8,0.4,1.2,1.4,1.1,2.6c0,0.6-0.2,1.1-0.5,1.7
							c-0.9,1.8-2.6,2.6-4.6,2.1c-0.6-0.1-1.7-0.7-2.2-1.1c-1.1-1-1.8-2.2-2.9-5.2c-0.3-0.8-0.6-1.4-0.6-1.4c0,0-0.2,0.1-0.4,0.2
							L3.8,610l0.1,0.2c0,0.1,0.2,0.6,0.4,1.2c1,2.8,1.5,3.9,2.4,5c0.7,0.8,1,1,2,1.6c0.7,0.4,1,0.5,1.3,0.5
							c0.6,0.1,1.3,0.1,2.3,0.1c1.1-0.1,1.6-0.2,3.1-0.5c2.3-0.5,3.4-0.6,4.5-0.4c0.4,0.1,0.5,0.1,1.1,0.4c0.7,0.3,0.7,0.4,0.9,0.6
							c0.2,0.3,0.3,0.7,0.3,1c-0.1,0.8-0.9,1.6-1.5,1.5c-0.3-0.1-0.3-0.1-0.7-0.5c-0.1-0.1-0.1,0-0.1,0.4c0,1.5,1.2,2.2,2.5,1.6
							c0.6-0.2,0.8-0.5,1.2-1.1c0.2-0.4,0.3-0.5,0.3-0.8c0.3-1.2-0.4-2.6-1.7-3.3c-1.1-0.6-2.2-0.8-3.9-0.6
							c-0.7,0.1-2.2,0.3-3.2,0.5c-0.2,0-0.4,0.1-0.4,0.1c0,0,0.2-0.2,0.4-0.4c0.8-0.9,1.2-1.8,1.5-2.9c0.2-1,0.1-2.2-0.3-3.1
							c-0.4-0.8-0.8-1.3-1.6-1.7c-0.7-0.4-1-0.5-1.7-0.4c-1.3,0.1-2.3,0.8-2.8,2.1c-0.2,0.5-0.3,0.8-0.3,1.3l0,0.3l-0.3-0.1
							c-0.6-0.3-1.2-0.9-1.7-1.6c-0.5-0.8-0.9-1.8-1.3-3.4c-0.2-0.6-0.4-1.6-0.5-2.2c-0.3-1.1-0.5-1.7-0.8-2.4
							c-0.4-0.7-1.1-1.6-1.7-2C3,600.4,1.9,599.9,1.5,599.8z"/>
					</g>
				</g>
			</g>
			<g transform="translate(0.000000,640.000000) scale(0.100000,-0.100000)">
				<path class="st2" d="M407.1-95c1.4-0.1,16.4,0.5,21.3,0.9c25.4,1.9,50.5,6.5,76.9,14.1c8.9,2.6,23.7,7.5,32.2,10.7l2.8,1l0.1,9
					l0.1,9l3.6,1.3c15,5.3,27.8,12.9,39,23.1l2.2,2l-1.1,0.9c-1.7,1.5-4.7,3.4-9.8,6.2c-5.2,2.8-8.2,4.7-8.2,4.9
					c0,0.1,0.5,0.7,1.1,1.5c3.3,3.8,7.9,11.5,10.4,17.6c3.5,8.6,6.4,19.2,9,33.3l0.2,1L586,41c-0.5-0.3-3.6-3.2-7-6.4
					s-7.2-6.7-8.5-7.8c-11-9.3-25.7-16.5-41.3-20.3c-3.1-0.7-8.9-2-9.4-2c-0.1,0-0.1-4.4-0.1-9.7V-15l-5.1-1.6
					c-15-4.7-30.2-8.7-45-11.7c-14.7-3-27.3-4.8-40-5.9c-7-0.6-29.6-0.7-37.2-0.1c-29.9,2.1-57.7,7.6-89.5,17.6l-5.5,1.7v9.8
					c0,5.4-0.1,9.7-0.2,9.7c-0.7,0-10,2.1-13,2.9c-11,3.1-22.2,8.3-30.9,14.2c-4.3,2.9-8.1,6.2-14.6,12.4c-6.4,6.1-7.9,7.4-8.2,7.1
					c-0.2-0.1,0.8-5.5,2.1-11.2c2.7-12.4,5.8-21.4,10.1-29.5c1.9-3.7,5.2-8.6,7.2-10.9c0.6-0.7,1.1-1.3,1.1-1.4
					c0-0.1-1.5-1-10.6-6.2c-3.8-2.1-8.3-5.3-8.3-5.8c0-0.6,6.9-6.4,11.6-9.9c9.2-6.7,19-11.8,29.7-15.5l3.3-1.2l0.1-9l0.1-9l2.8-1
					c1.5-0.6,5.8-2.1,9.6-3.4c38.2-13.3,75.7-20.7,111.4-21.9C403.9-94.9,406.7-95,407.1-95z"/>
			</g>
			<g transform="translate(0.000000,640.000000) scale(0.100000,-0.100000)">
				<path class="st2" d="M404.5-437.6c-19.1-0.7-39.2-4.6-59.7-11.8c-2-0.7-4.3-1.5-5.1-1.8l-1.5-0.6l-0.1-4.8l-0.1-4.8l-1.8-0.6
					c-5.8-1.9-11-4.7-15.9-8.3c-2.6-1.9-6.2-5-6.2-5.3c0-0.3,2.4-1.9,4.5-3.1c4.9-2.8,5.7-3.2,5.7-3.3c0,0-0.3-0.4-0.6-0.8
					c-1.1-1.2-2.8-3.9-3.8-5.8c-2.3-4.3-3.9-9.1-5.4-15.8c-0.7-3-1.2-5.9-1.1-6c0.2-0.2,1,0.5,4.4,3.8c3.5,3.3,5.5,5.1,7.8,6.6
					c4.6,3.2,10.6,6,16.5,7.6c1.6,0.5,6.6,1.6,7,1.6c0,0,0.1,2.4,0.1,5.2v5.2l3,0.9c17,5.3,31.9,8.3,47.9,9.4
					c4.1,0.3,16.2,0.2,19.9-0.1c6.8-0.6,13.6-1.6,21.4-3.2c7.9-1.6,16.1-3.7,24.1-6.3l2.7-0.9v-5.2c0-2.9,0-5.2,0.1-5.2
					c0.2,0,3.4-0.7,5-1.1c8.4-2,16.2-5.9,22.1-10.8c0.7-0.6,2.7-2.5,4.5-4.2c1.8-1.7,3.5-3.3,3.8-3.4l0.5-0.3L504-510
					c-1.4,7.6-2.9,13.2-4.8,17.8c-1.3,3.3-3.8,7.4-5.5,9.4c-0.3,0.4-0.6,0.7-0.6,0.8c0,0.1,1.6,1.1,4.4,2.6c2.7,1.5,4.3,2.5,5.2,3.3
					l0.6,0.5l-1.2,1.1c-6,5.5-12.9,9.6-20.9,12.4l-1.9,0.7l-0.1,4.8l-0.1,4.8l-1.5,0.6c-4.5,1.7-12.5,4.3-17.2,5.7
					c-14.1,4.1-27.5,6.5-41.2,7.5c-2.6,0.2-10.6,0.5-11.4,0.5C407.6-437.4,406.1-437.5,404.5-437.6z"/>
			</g>
			<g>
				<path class="st2" d="M30.6,623l8.2,2.5l2-8.1h0.1l1.9,8.1l8.3-2.5l0.1,0.1l-6.4,5.7l6.4,5.6l-0.1,0.1l-8.3-2.4l-1.9,8.2h-0.1
					l-1.9-8.2l-8.3,2.4l-0.1-0.1l6.4-5.6l-6.4-5.7L30.6,623z"/>
			</g>
			<g>
				<path class="st2" d="M37.7,692.1l2.5,0.8l0.6-2.5h0l0.6,2.5l2.6-0.8l0,0l-2,1.8l2,1.7l0,0l-2.6-0.8l-0.6,2.5h0l-0.6-2.5
					l-2.6,0.8l0,0l2-1.7L37.7,692.1L37.7,692.1z"/>
			</g>
			<g>
				<g>
					<path class="st5" d="M-27.9,542.7c-0.1,0.1,0.2,2.2,0.5,3.4c1.1,3.9,4.5,7.6,8.5,9.3c2.3,0.9,5.1,1.5,7.2,1.4h0
						c0.5,0,1.6-0.1,2.5-0.3c2.3-0.3,2.6-0.3,3.7,0.1c0.5,0.2,1,0.4,1.1,0.4c0.2,0.1,0.4,0.1,0.5-0.2c0.1-0.2,0-0.3-1.1-0.8
						c-0.7-0.3-1.4-0.7-1.8-0.9c-0.9-0.5-1.9-0.9-2.6-1c-0.8-0.1-1.7,0.1-3.2,0.7c-1.4,0.6-2.8,0.9-4,0.9c-0.7,0-0.9,0-1-0.1
						c-0.1-0.1-0.1-0.1,0-0.1c0.2,0.1,1.8,0,2.7-0.2c0.4-0.1,1.4-0.4,2.1-0.7c1.5-0.6,2.4-0.8,3.2-0.8l0.5,0l-0.4-0.2
						c-0.2-0.1-0.9-0.5-1.5-0.7c-1.5-0.7-2.1-0.7-4.6-0.5c-1.8,0.2-2,0.2-3.7,0c-1.3-0.1-2-0.2-2.5-0.4c-0.4-0.1-1-0.3-1.3-0.4
						c-1.1-0.3-0.4-0.2,1.2,0.2c2.2,0.5,3.3,0.6,6.4,0.3c1.3-0.1,2.4-0.2,2.5-0.3c0.3-0.1,0-0.3-1.4-0.9c-1.8-0.8-2.3-0.9-4.8-0.9
						c-2,0-5-0.3-5.8-0.4c-0.2,0,0.6,0,1.7,0.1c1.2,0.1,2.6,0.2,3.2,0.2c2.2,0,2.7-0.1,2.7-0.2c0-0.1-0.5-0.4-1.2-0.8
						c-1.7-1-2.3-1.2-5.1-1.4c-1.2-0.1-2.3-0.2-2.4-0.2s0.9,0,2.3,0.1c1.3,0.1,2.4,0.1,2.5,0.1c0.1-0.1-1.3-0.9-2.4-1.5
						c-0.5-0.3-1.1-0.5-1.6-0.6c-1.3-0.2-1.8-0.4-0.7-0.3c0.5,0.1,0.9,0.1,0.9,0c0,0-0.4-0.4-0.9-0.8c-0.5-0.4-1-0.8-1.1-0.9
						c-0.1-0.2,0.2,0,1.6,1.1l0.9,0.7l0-0.4c0-0.2-0.1-0.5-0.1-0.7c0-0.2,0.1,0,0.2,0.4l0.3,0.7l1.9,1.1c1.2,0.7,2,1.1,2.1,1
						c0.1-0.1-0.1-0.9-0.9-2.5c-0.3-0.6-0.5-1.1-0.5-1.1c0-0.2,0.3,0.3,0.6,1c1.3,2.7,1.9,3.4,4.8,4.9c0.8,0.4,2.8,1.3,3,1.4
						c0,0-0.2-0.5-0.5-1.1c-0.3-0.6-0.8-1.7-1-2.5c-0.3-0.8-0.5-1.5-0.6-1.6c-0.1-0.1-0.1-0.3-0.1-0.3c0.1,0,0.4,0.7,1,2.2
						c0.7,1.8,1.7,3.3,2.7,4.1c0.5,0.4,3.1,1.9,3.1,1.8c0,0-0.1-0.5-0.2-1.2c-0.3-1.2-0.4-2.2-0.3-2.1c0,0,0.1,0.2,0.2,0.5
						c0.1,0.3,0.2,0.9,0.4,1.4c0.3,0.9,0.9,1.6,1.7,2.3l0.4,0.3l0-0.2c0.1-0.8-0.5-2.8-1-3.8c-1.1-2-3.1-3.5-6.7-5.1
						c-2.5-1.1-4.7-1.7-7.8-2.1c-2.5-0.4-5.4-0.7-6.1-0.8C-27.8,542.7-27.9,542.7-27.9,542.7z"/>
					<path id="XMLID_7_" class="st6" d="M5.8,565c-0.4-0.4-1-0.7-1.8-1.1c-0.7-0.2-1.3-0.5-2-0.8c-2.7-1.1-4.1-2.5-4.3-4
						c-0.2-1.4,0.5-2.2,2-2.3c1.8,1.4,2.9,2.7,3.2,3.8c-1.2-1.3-2.3-2.2-3.4-2.7c-0.6,0.1-0.9,0.5-0.8,1.1c0.2,1.5,2.3,2.9,6.4,4.3
						c0.1-0.4,0.1-0.8,0-1.3c-0.4-3.1-1.9-4.8-4.6-5.4c0.2-0.1,0.4-0.1,0.6-0.1c1.4-0.1,2.5,0.4,3.5,1.5c0.8,0.9,1.3,2.1,1.4,3.3
						C6,562.4,6,563.5,5.8,565z"/>
					<path id="XMLID_5_" class="st7" d="M-23.6,574.9c0.9-0.8,1.8-2,2.5-3.5c0.6-1.3,1.2-2.6,1.8-3.9c2.7-5.2,5.8-8,9.4-8.4
						c3.3-0.3,5.1,0.9,5.5,3.8c-3.3,3.6-6.3,5.6-9,6.2c3-2.4,5.2-4.5,6.5-6.5c-0.2-1.2-1.1-1.8-2.7-1.6c-3.4,0.4-6.9,4.5-10.2,12.3
						c1,0.1,2,0.1,3,0c7.2-0.7,11.5-3.7,12.7-9c0.2,0.3,0.3,0.7,0.3,1.2c0.3,2.7-0.9,4.9-3.6,6.7c-2.2,1.5-4.9,2.4-7.8,2.8
						C-17.3,575.2-20.1,575.2-23.6,574.9z"/>
				</g>
			</g>
			<g>
				<g>
					<g id="XMLID_13529_">
						<path id="XMLID_13530_" class="st2" d="M2.6,514.5l-6.9,5.5l-1.6-8.5H-15l4.5-7.5l-6.9-5.6l8.5-3l-1.5-8.5l8.5,3l4.5-7.5
							l4.6,7.5l8.5-3l-1.6,8.5l8.5,3l-6.9,5.6l4.5,7.5h-9.1L9.6,520L2.6,514.5z M2.6,513.2c3.3,0,6.1-1.1,8.4-3.3s3.5-4.9,3.5-8
							c0-3.1-1.2-5.8-3.5-8s-5.1-3.3-8.4-3.3s-6.1,1.1-8.4,3.3s-3.5,4.9-3.5,8c0,3.1,1.2,5.8,3.5,8S-0.6,513.2,2.6,513.2z"/>
					</g>
					<g>
						<g id="XMLID_18_">
							<path id="XMLID_19_" class="st2" d="M2.6,508.7l-3.6,2.9l-0.8-4.4h-4.7l2.4-3.9l-3.6-2.9l4.4-1.5l-0.8-4.4l4.4,1.5l2.4-3.9
								L5,496l4.4-1.5l-0.8,4.4l4.4,1.5l-3.6,2.9l2.4,3.9H7l-0.8,4.4L2.6,508.7z M2.6,508c1.7,0,3.2-0.6,4.4-1.7
								c1.2-1.1,1.8-2.5,1.8-4.2c0-1.6-0.6-3-1.8-4.2s-2.7-1.7-4.4-1.7s-3.2,0.6-4.4,1.7s-1.8,2.5-1.8,4.2c0,1.6,0.6,3,1.8,4.2
								C-0.5,507.5,0.9,508,2.6,508z"/>
						</g>
						<g id="XMLID_24_">
							<path id="XMLID_26_" class="st2" d="M2.6,504.4l-1.2,1l-0.3-1.5h-1.6l0.8-1.3l-1.2-1l1.5-0.5l-0.3-1.5l1.5,0.5l0.8-1.3
								l0.8,1.3l1.5-0.5L4.7,501l1.5,0.5l-1.2,1l0.8,1.3H4.1l-0.3,1.5L2.6,504.4z M2.6,504.2c0.6,0,1.1-0.2,1.5-0.6s0.6-0.9,0.6-1.4
								s-0.2-1-0.6-1.4s-0.9-0.6-1.5-0.6s-1.1,0.2-1.5,0.6s-0.6,0.9-0.6,1.4s0.2,1,0.6,1.4S2,504.2,2.6,504.2z"/>
						</g>
					</g>
				</g>
				<g>
					<g id="XMLID_36_">
						<path id="XMLID_39_" class="st2" d="M79.1,515.1l-6.9,5.5l-1.6-8.5h-9.1l4.5-7.5l-6.9-5.6l8.5-3l-1.5-8.5l8.5,3l4.5-7.5
							l4.6,7.5l8.5-3l-1.6,8.5l8.5,3l-6.9,5.6l4.5,7.5h-9.1l-1.6,8.5L79.1,515.1z M79.1,513.7c3.3,0,6.1-1.1,8.4-3.3
							c2.3-2.2,3.5-4.9,3.5-8c0-3.1-1.2-5.8-3.5-8c-2.3-2.2-5.1-3.3-8.4-3.3s-6.1,1.1-8.4,3.3c-2.3,2.2-3.5,4.9-3.5,8
							c0,3.1,1.2,5.8,3.5,8C73.1,512.6,75.9,513.7,79.1,513.7z"/>
					</g>
					<g>
						<g id="XMLID_32_">
							<path id="XMLID_33_" class="st2" d="M79.1,509.3l-3.6,2.9l-0.8-4.4H70l2.4-3.9l-3.6-2.9l4.4-1.5l-0.8-4.4l4.4,1.5l2.4-3.9
								l2.4,3.9l4.4-1.5l-0.8,4.4l4.4,1.5l-3.6,2.9l2.4,3.9h-4.7l-0.8,4.4L79.1,509.3z M79.1,508.6c1.7,0,3.2-0.6,4.4-1.7
								s1.8-2.5,1.8-4.2c0-1.6-0.6-3-1.8-4.2s-2.7-1.7-4.4-1.7c-1.7,0-3.2,0.6-4.4,1.7s-1.8,2.5-1.8,4.2c0,1.6,0.6,3,1.8,4.2
								C76,508.1,77.4,508.6,79.1,508.6z"/>
						</g>
						<g id="XMLID_9_">
							<path id="XMLID_11_" class="st2" d="M79.1,505l-1.2,1l-0.3-1.5H76l0.8-1.3l-1.2-1l1.5-0.5l-0.3-1.5l1.5,0.5l0.8-1.3l0.8,1.3
								l1.5-0.5l-0.3,1.5l1.5,0.5l-1.2,1l0.8,1.3h-1.6l-0.3,1.5L79.1,505z M79.1,504.8c0.6,0,1.1-0.2,1.5-0.6
								c0.4-0.4,0.6-0.9,0.6-1.4s-0.2-1-0.6-1.4c-0.4-0.4-0.9-0.6-1.5-0.6s-1.1,0.2-1.5,0.6c-0.4,0.4-0.6,0.9-0.6,1.4s0.2,1,0.6,1.4
								S78.5,504.8,79.1,504.8z"/>
						</g>
					</g>
				</g>
			</g>
			<g id="XMLID_42_">
				<g id="XMLID_46_">
					<g>
						<path class="st2" d="M147.4,526.9c0.1,5.6-2,9.9-6.3,13c-3.5,2.4-7.5,3.6-12.2,3.6c-2.6,0-4.7-0.4-6.1-1.3
							c4.5,0,8-1.6,10.7-4.8c2-2.4,3.1-5.3,3.3-8.8c0.3-4.3-0.8-8-3.3-11.1c-2.5-3.1-6-4.6-10.7-4.8c1.6-1,3.9-1.5,7-1.3
							c4.2,0.1,8,1.3,11.3,3.6C145.2,518,147.3,521.9,147.4,526.9z M144.9,527.4c0-3.3-1.4-6.2-4.1-8.8c-2.4-2.3-5.4-3.9-8.9-4.8
							c4.8,2.9,7.2,6.9,7.4,11.8c0.5,6.7-2,11.8-7.4,15.3c3.6-0.9,6.5-2.4,8.7-4.6C143.4,533.8,144.9,530.8,144.9,527.4z"/>
						<path class="st2" d="M140.8,518.7c2.7,2.6,4.1,5.5,4.1,8.8c0,3.3-1.5,6.3-4.3,9c-2.2,2.2-5.1,3.7-8.7,4.6
							c5.4-3.4,7.9-8.5,7.4-15.3c-0.2-5-2.6-8.9-7.4-11.8C135.5,514.8,138.4,516.4,140.8,518.7z"/>
						<path class="st2" d="M-48.1,511.4c3-0.1,5.4,0.3,7,1.3c-4.7,0.1-8.2,1.7-10.7,4.8c-2.5,3.1-3.6,6.8-3.3,11.1
							c0.1,3.4,1.2,6.4,3.3,8.8c2.6,3.2,6.2,4.8,10.7,4.8c-1.5,0.9-3.5,1.3-6.1,1.3c-4.7,0-8.7-1.2-12.2-3.6
							c-4.4-3.1-6.5-7.4-6.3-13c0.1-5,2.2-8.9,6.3-11.8C-56,512.8-52.3,511.6-48.1,511.4z M-57,525.7c0.2-5,2.7-8.9,7.7-11.8
							c-3.7,0.9-6.8,2.5-9.3,4.8c-2.8,2.6-4.3,5.5-4.3,8.8c0,3.3,1.5,6.3,4.5,9c2.3,2.2,5.3,3.7,9,4.6
							C-55,537.6-57.6,532.5-57,525.7z"/>
						<path class="st2" d="M-49.3,513.9c-5,2.9-7.5,6.9-7.7,11.8c-0.5,6.8,2,11.8,7.7,15.3c-3.7-0.9-6.7-2.4-9-4.6
							c-3-2.7-4.5-5.7-4.5-9c0-3.3,1.4-6.2,4.3-8.8C-56.1,516.4-53,514.8-49.3,513.9z"/>
					</g>
					<g>
					</g>
				</g>
			</g>
		</g>
	</g>
</g>
</svg>
