<?xml version="1.0" encoding="utf-8"?>
<!-- Generator: Adobe Illustrator 19.0.0, SVG Export Plug-In . SVG Version: 6.00 Build 0)  -->
<svg version="1.1" id="Layer_1" xmlns="http://www.w3.org/2000/svg" xmlns:xlink="http://www.w3.org/1999/xlink" x="0px" y="0px"
	 viewBox="-7 230 596 334" style="enable-background:new -7 230 596 334;" xml:space="preserve">
<style type="text/css">
	.st0{fill:#FFFFFF;}
	.st1{font-family:'CaslonAntique';}
	.st2{font-size:39px;}
	.st3{fill:none;}
	.st4{font-size:35px;}
	.st5{fill:#FFFFFF;stroke:#FFFFFF;stroke-width:0.177;stroke-miterlimit:10;}
</style>
<g id="XMLID_5_">
	<g id="XMLID_28_">
		<g id="XMLID_21_">
			<path id="XMLID_22_" class="st0" d="M69,264.1c5.8,0,10.8,0.9,14.9,2.8c2.9,1.4,6.3,4,10.4,7.8c0.3,0.3,2.1,1.9,5.5,4.8l0.6,0.7
				c0.4,0.3,0.9,0.9,1.7,1.7c0.8,0.8,1.6,1.8,2.5,2.9c1.8,1.8,3.4,3.7,4.9,5.5c0.5,0.6,1.3,1.9,2.3,3.9l3.4,6.9
				c3,5.7,4.8,9,5.3,10.1c0.1,0.2,0.6,2.3,1.3,6.4c0.9,2.6,1.8,5.6,2.6,9c0,2.5,0.1,4.4,0.2,5.7l0.6,9.2c0,0.8-0.2,3.5-0.6,8.3
				l0.4,10.3c0.1,1.8-0.1,4.6-0.8,8.3c-0.4,1.8-1.9,6.1-4.5,12.9l-3,7.4l-2.8,4.1l-2.1,3l-2.6,3.9c-1.9,2.8-5.5,7.1-10.9,12.9
				c-10.4,8.1-22.3,12.2-35.5,12.2c-7.9,0-14-0.8-18.1-2.3c-14.1-5.1-24.8-16.2-32.1-33.3c-3.6-8.6-6.2-15.9-7.7-21.8
				c-1.1-4.3-2-8.4-2.5-12.4l-0.2-1.4c0-0.9,0-2.4-0.1-4.5c-0.1-2.1-0.1-4.3-0.1-6.6c0-0.5,0-1.1-0.1-1.8c-0.1-0.8-0.1-1.5-0.1-2.1
				l-0.2-0.7c0-5.7,1-12.2,3-19.5c0.9-3.2,3.2-8.7,7-16.6c0.3-0.5,2.6-4.8,7-13.1c5.5-7.2,12.4-13.1,20.7-17.7
				c5.8-3.1,9.6-4.8,11.5-5.3c0.4-0.2,3-0.5,7.9-0.9C64,264.3,67.5,264.1,69,264.1z M58.4,274.7c-2.5,0.3-4.9,1.4-7.2,3.2
				c-2.9,2.3-5.3,4.2-7.2,5.7c-3.1,3.8-6.1,8-8.9,12.4c-0.9,1.2-2.5,4.5-4.7,9.9l-2.6,5.7l-1.5,4.8c-0.1,0.5-0.9,2.8-2.5,7.1
				c-0.4,1.8-0.6,5.1-0.6,9.9c0,2.3,0.1,4.4,0.2,6.2v6.9l-0.4,14.7c0,0.8,0.9,5.9,2.8,15.4c0.6,2.8,1.4,6,2.3,9.7
				c0.1,0.6,2,3.4,5.7,8.3c1.5,3.2,2.7,5.4,3.6,6.4c1.5,1.2,3.2,2.7,5.1,4.4c4,3.7,6.9,5.9,8.7,6.7c1.3,0.6,4,1.1,8.3,1.6
				c0.9,0,1.7,0,2.5,0.1c0.8,0.1,1.5,0.2,2,0.2c0.5,0.1,0.8,0.1,0.9,0.1c3.8,0,6.6-0.4,8.5-1.1c1.5-0.8,3.2-2,5.1-3.7
				c1.3-1.2,4.1-3.5,8.5-6.9c1.4-1.2,2.9-3.5,4.5-6.9c0-0.3,0.4-1,1.1-2.1c2-3.4,5.2-9.9,9.4-19.5c0.8-3.2,1.2-6.3,1.3-9.2
				c0-0.8,0-1.5,0.1-2.1c0.1-0.6,0.1-1,0.1-1.1v-0.2v-6v-2.5v-3v-4.4v-0.9c0-0.5,0-1,0-1.5c0-0.5,0-1.3-0.1-2.4
				c-0.1-1.1-0.1-2.1-0.1-3.2c-0.1-1.1-0.2-2.8-0.3-5.3c-0.1-2.5-0.1-4.3-0.1-5.5c-0.3-0.6-0.6-2.2-1.1-4.8
				c-1.1-6.1-3.3-12.4-6.4-18.9c-1.4-3.2-4.7-8.3-9.8-15.2c-2.3-3.4-3.9-5.7-4.9-6.9c-0.9-1.1-3-2.1-6.4-3c-0.1,0-0.4-0.1-0.9-0.2
				c-0.5-0.2-0.8-0.3-0.9-0.5c-1.8-0.8-4.5-1.2-8.1-1.4L58.4,274.7z"/>
			<path id="XMLID_25_" class="st0" d="M149.3,400.7c0.9,0,2.6,0.8,5.3,2.3c3.1,1.7,4.9,2.8,5.3,3.2c0.9,1.1,1.3,3.2,1.3,6.4
				c0,3.7-0.6,6.3-1.9,7.8c-1.6,2-4.5,3-8.5,3c-1.3,0-3.3-1.5-6.2-4.6c-1.5-1.7-2.3-4.1-2.3-7.1
				C142.4,404.4,144.7,400.7,149.3,400.7z"/>
			<path id="XMLID_29_" class="st0" d="M247.8,400.7c0.9,0,2.6,0.8,5.3,2.3c3.1,1.7,4.9,2.8,5.3,3.2c0.9,1.1,1.3,3.2,1.3,6.4
				c0,3.7-0.6,6.3-1.9,7.8c-1.6,2-4.5,3-8.5,3c-1.3,0-3.3-1.5-6.2-4.6c-1.5-1.7-2.3-4.1-2.3-7.1
				C240.8,404.4,243.1,400.7,247.8,400.7z"/>
			<path id="XMLID_31_" class="st0" d="M344.9,264.1c5.8,0,10.8,0.9,14.9,2.8c2.9,1.4,6.3,4,10.4,7.8c0.3,0.3,2.1,1.9,5.5,4.8
				l0.6,0.7c0.4,0.3,0.9,0.9,1.7,1.7c0.8,0.8,1.6,1.8,2.5,2.9c1.8,1.8,3.4,3.7,4.9,5.5c0.5,0.6,1.3,1.9,2.3,3.9l3.4,6.9
				c3,5.7,4.8,9,5.3,10.1c0.1,0.2,0.6,2.3,1.3,6.4c0.9,2.6,1.8,5.6,2.6,9c0,2.5,0.1,4.4,0.2,5.7l0.6,9.2c0,0.8-0.2,3.5-0.6,8.3
				l0.4,10.3c0.1,1.8-0.1,4.6-0.8,8.3c-0.4,1.8-1.9,6.1-4.5,12.9l-3,7.4l-2.8,4.1l-2.1,3l-2.6,3.9c-1.9,2.8-5.5,7.1-10.9,12.9
				c-10.4,8.1-22.3,12.2-35.5,12.2c-7.9,0-14-0.8-18.1-2.3c-14.1-5.1-24.8-16.2-32.1-33.3c-3.6-8.6-6.2-15.9-7.7-21.8
				c-1.1-4.3-2-8.4-2.5-12.4l-0.2-1.4c0-0.9,0-2.4-0.1-4.5c-0.1-2.1-0.1-4.3-0.1-6.6c0-0.5,0-1.1-0.1-1.8c-0.1-0.8-0.1-1.5-0.1-2.1
				l-0.2-0.7c0-5.7,1-12.2,3-19.5c0.9-3.2,3.2-8.7,7-16.6c0.3-0.5,2.6-4.8,7-13.1c5.5-7.2,12.4-13.1,20.7-17.7
				c5.8-3.1,9.6-4.8,11.5-5.3c0.4-0.2,3-0.5,7.9-0.9C340,264.3,343.4,264.1,344.9,264.1z M334.4,274.7c-2.5,0.3-4.9,1.4-7.2,3.2
				c-2.9,2.3-5.3,4.2-7.2,5.7c-3.1,3.8-6.1,8-8.9,12.4c-0.9,1.2-2.5,4.5-4.7,9.9l-2.6,5.7l-1.5,4.8c-0.1,0.5-0.9,2.8-2.5,7.1
				c-0.4,1.8-0.6,5.1-0.6,9.9c0,2.3,0.1,4.4,0.2,6.2v6.9l-0.4,14.7c0,0.8,0.9,5.9,2.8,15.4c0.6,2.8,1.4,6,2.3,9.7
				c0.1,0.6,2,3.4,5.7,8.3c1.5,3.2,2.7,5.4,3.6,6.4c1.5,1.2,3.2,2.7,5.1,4.4c4,3.7,6.9,5.9,8.7,6.7c1.3,0.6,4,1.1,8.3,1.6
				c0.9,0,1.7,0,2.5,0.1c0.8,0.1,1.5,0.2,2,0.2c0.5,0.1,0.8,0.1,0.9,0.1c3.8,0,6.6-0.4,8.5-1.1c1.5-0.8,3.2-2,5.1-3.7
				c1.3-1.2,4.1-3.5,8.5-6.9c1.4-1.2,2.9-3.5,4.5-6.9c0-0.3,0.4-1,1.1-2.1c2-3.4,5.2-9.9,9.4-19.5c0.8-3.2,1.2-6.3,1.3-9.2
				c0-0.8,0-1.5,0.1-2.1c0.1-0.6,0.1-1,0.1-1.1v-0.2v-6v-2.5v-3v-4.4v-0.9c0-0.5,0-1,0-1.5c0-0.5,0-1.3-0.1-2.4
				c-0.1-1.1-0.1-2.1-0.1-3.2c-0.1-1.1-0.2-2.8-0.3-5.3c-0.1-2.5-0.1-4.3-0.1-5.5c-0.3-0.6-0.6-2.2-1.1-4.8
				c-1.1-6.1-3.3-12.4-6.4-18.9c-1.4-3.2-4.7-8.3-9.8-15.2c-2.3-3.4-3.9-5.7-4.9-6.9c-0.9-1.1-3-2.1-6.4-3c-0.1,0-0.4-0.1-0.9-0.2
				c-0.5-0.2-0.8-0.3-0.9-0.5c-1.8-0.8-4.5-1.2-8.1-1.4L334.4,274.7z"/>
		</g>
		<g id="XMLID_37_">
			<path id="XMLID_38_" class="st0" d="M205.1,426c-0.3,0-0.6,0.1-0.9,0.2c-2.7,0.3-4.2,0.4-4.4,0.4c-0.6,0-1.1-0.1-1.6-0.2
				c-1.1-0.1-2-0.2-2.8-0.2l-1.9,0.2h-3.4c-2.3,0.3-3.4-0.4-3.4-2.1c0-1.3,0.3-2.1,1-2.6l3.2-2.1c0.8-0.7,2.1-3.1,4-7.2
				c2-3.5,2.9-6.1,2.9-7.7v-1.1c0-0.6,0-1.1-0.1-1.5c-0.1-0.4-0.1-0.8-0.1-1.1c0-0.3,0-0.6,0-1.1l0.4-12.6c0-2.1,0.1-5.3,0.4-9.6
				c0-0.7,0-1.3,0.1-1.7l-0.6-11.5c-0.2-2.7-0.3-5.4-0.4-8.1c0-0.3-1.2-3.3-3.5-8.9c-0.4-1-2.1-5.2-5-12.6c-1.5-2.7-2.5-4.6-3.1-5.7
				c-1.9-3.4-3.2-6.3-4.1-8.7c-0.1-0.4-1.1-2.8-2.9-7c-2.3-5.4-3.7-8.6-4.4-9.6l-2.9-4l-2.7-4.3l-2.2-2.8c-2.6-2.4-3.9-3.8-4.1-4
				c-0.4-0.6-0.6-1.3-0.6-2.1c0-0.6,0.2-1.1,0.6-1.7c0.1-0.1,2.1-0.4,5.9-0.6c2.9-0.4,4.6-0.6,4.9-0.6c0.6,0,2,0.3,4.3,0.9
				c0.4,0,1.3-0.1,2.7-0.3c1.4-0.2,2.3-0.3,2.7-0.3c0.1,0,0.3,0,0.6,0.1c0.3,0.1,0.7,0.1,1.3,0.2c0.5,0.1,1.1,0.1,1.5,0.1
				c0.2,0.1,1.3,0.2,3.4,0.2c2.8,0,4.3,1.1,4.3,3.4c0,0.9-0.3,1.8-1,2.8l-2.2,3.6c-0.9,1.3-1.3,2.8-1.3,4.5c0,2,1.6,6.5,4.7,13.4
				c1.9,4.5,3,7.1,3.5,7.7c0.1,0.1,0.3,0.4,0.6,0.9c0.3,0.4,0.6,0.9,1,1.5c0.4,0.6,0.8,1.1,1.2,1.7c0.5,0.7,1.3,2.5,2.4,5.3l2.1,4.7
				c1.3,4,2.2,6,2.8,6c2.8,0,6.4-6.5,10.8-19.6c0.8-2.3,1.4-4,1.8-5.1c1.4-2.6,2.6-4.8,3.7-6.8c1.2-2.1,1.8-4.1,1.8-6
				c0-2-0.5-4.2-1.6-6.6l-0.3-0.4c-0.1-0.3-0.3-0.6-0.6-1.1c-0.3-0.4-0.5-0.9-0.7-1.3l-0.4-0.4c-0.2-0.1-0.5-0.5-0.9-1
				c-0.4-0.5-0.8-1-1.3-1.6c-0.4-0.4-0.6-1.1-0.6-2.1c0-2.3,1.4-3.4,4.3-3.4h1.5c0.6,0,1.2,0,1.9,0.1c0.7,0.1,1.2,0.1,1.6,0.2
				c0.4,0.1,0.7,0.1,0.9,0.1c0.3,0,1.3-0.2,3.1-0.6c0.5-0.1,1.1-0.2,1.9-0.2c0.9,0,2.8,0.3,5.9,0.9c2.7,0.6,4.1,1.8,4.1,3.8
				c0,1.3-0.2,2.2-0.7,2.9c-0.5,0.6-2.1,2-4.9,4.1c-1.5,1-3.2,3.3-5.3,7l-0.3,0.6c-0.3,0.4-0.7,1-1.3,1.8c-0.5,0.8-1.1,1.7-1.7,2.7
				c-0.7,1.1-1.9,4.2-3.5,9.1l-2.2,4.7l-1.6,3.6l-1,2.1l-0.7,1.5l-1.5,3.2l-3.8,8.3c-1.7,2.8-2.8,5.3-3.4,7.4c-0.7,3-1,6.9-0.9,11.7
				V372v1.7c-0.3,3.7-0.4,5.7-0.4,6c0,0.4,0.1,1.6,0.4,3.4c0.2,1.8,0.3,3.1,0.2,3.6l-0.3,9.8l-0.1,6.6c-0.1,3.4,0.3,6.5,1.2,9.4
				c0.7,2.3,2.2,4.8,4.4,7.7c1.7,2,2.5,3.6,2.5,4.9c0,1.3-0.4,1.8-1.2,1.5l-3.2-0.2c-0.5,0.1-1.5,0.2-3.1,0.2L205.1,426z"/>
		</g>
	</g>
	<text id="XMLID_3_" transform="matrix(1 0 0 1 103.7081 482.1035)" class="st0 st1 st2">Gift Giving Cult</text>
	<g id="XMLID_7_">
		<path id="XMLID_19_" class="st0" d="M431.4,259.7c1.6,0,3,0.2,4.1,0.6c0.8,0.3,1.8,0.9,2.9,1.8c0.1,0.1,0.6,0.4,1.5,1.1l0.2,0.2
			c0.1,0.1,0.3,0.2,0.5,0.4c0.2,0.2,0.4,0.4,0.7,0.6c0.5,0.4,0.9,0.8,1.4,1.2c0.1,0.1,0.3,0.4,0.6,0.9l0.9,1.6
			c0.8,1.3,1.3,2,1.5,2.3c0,0,0.2,0.5,0.4,1.5c0.2,0.6,0.5,1.3,0.7,2c0,0.6,0,1,0.1,1.3l0.2,2.1c0,0.2-0.1,0.8-0.2,1.9l0.1,2.3
			c0,0.4,0,1-0.2,1.9c-0.1,0.4-0.5,1.4-1.2,2.9l-0.8,1.7l-0.8,0.9l-0.6,0.7l-0.7,0.9c-0.5,0.6-1.5,1.6-3,2.9
			c-2.9,1.8-6.1,2.8-9.8,2.8c-2.2,0-3.8-0.2-5-0.5c-3.9-1.1-6.8-3.7-8.8-7.5c-1-1.9-1.7-3.6-2.1-4.9c-0.3-1-0.5-1.9-0.7-2.8
			l-0.1-0.3c0-0.2,0-0.5,0-1c0-0.5,0-1,0-1.5c0-0.1,0-0.2,0-0.4c0-0.2,0-0.3,0-0.5l-0.1-0.2c0-1.3,0.3-2.8,0.8-4.4
			c0.2-0.7,0.9-2,1.9-3.7c0.1-0.1,0.7-1.1,1.9-3c1.5-1.6,3.4-3,5.7-4c1.6-0.7,2.7-1.1,3.2-1.2c0.1,0,0.8-0.1,2.2-0.2
			C430.1,259.7,431,259.7,431.4,259.7z M428.5,262.1c-0.7,0.1-1.4,0.3-2,0.7c-0.8,0.5-1.5,1-2,1.3c-0.9,0.9-1.7,1.8-2.4,2.8
			c-0.2,0.3-0.7,1-1.3,2.2l-0.7,1.3l-0.4,1.1c0,0.1-0.3,0.6-0.7,1.6c-0.1,0.4-0.2,1.2-0.2,2.2c0,0.5,0,1,0.1,1.4v1.6l-0.1,3.3
			c0,0.2,0.3,1.3,0.8,3.5c0.2,0.6,0.4,1.4,0.6,2.2c0,0.1,0.6,0.8,1.6,1.9c0.4,0.7,0.7,1.2,1,1.5c0.4,0.3,0.9,0.6,1.4,1
			c1.1,0.8,1.9,1.3,2.4,1.5c0.3,0.1,1.1,0.3,2.3,0.4c0.2,0,0.5,0,0.7,0c0.2,0,0.4,0,0.5,0.1c0.1,0,0.2,0,0.3,0c1,0,1.8-0.1,2.3-0.3
			c0.4-0.2,0.9-0.5,1.4-0.8c0.3-0.3,1.1-0.8,2.3-1.6c0.4-0.3,0.8-0.8,1.2-1.6c0-0.1,0.1-0.2,0.3-0.5c0.6-0.8,1.4-2.2,2.6-4.4
			c0.2-0.7,0.3-1.4,0.4-2.1c0-0.2,0-0.3,0-0.5c0-0.1,0-0.2,0-0.3v-0.1v-1.4v-0.6v-0.7v-1v-0.2c0-0.1,0-0.2,0-0.3c0-0.1,0-0.3,0-0.5
			c0-0.2,0-0.5,0-0.7c0-0.2-0.1-0.6-0.1-1.2c0-0.6,0-1,0-1.2c-0.1-0.1-0.2-0.5-0.3-1.1c-0.3-1.4-0.9-2.8-1.8-4.3
			c-0.4-0.7-1.3-1.9-2.7-3.4c-0.6-0.8-1.1-1.3-1.4-1.6c-0.2-0.2-0.8-0.5-1.8-0.7c0,0-0.1,0-0.3-0.1c-0.1,0-0.2-0.1-0.3-0.1
			c-0.5-0.2-1.2-0.3-2.2-0.3L428.5,262.1z"/>
		<path id="XMLID_57_" class="st0" d="M456.3,284v1.4v1c0,0.3,0,0.6,0,0.9c0,0.3,0,0.5-0.1,0.7c0,0.2,0,0.3,0,0.3
			c0,0.2,0,0.7,0.1,1.4c0.1,0.7,0.1,1.2,0.1,1.4c0,1,0.4,1.8,1.3,2.2c1,0.6,1.5,1,1.5,1.5c0,0.5-0.4,0.7-1.1,0.7
			c-0.5,0-1.4-0.1-2.8-0.2h-0.4l-0.8,0.1c-0.3,0-0.7,0.1-0.9,0.1c-1.2,0-1.9-0.3-1.9-0.8c0-0.2,0.1-0.3,0.2-0.5l1-1
			c0.3-0.3,0.4-0.6,0.5-0.9c0-0.9,0.1-2.3,0.3-4.3l-0.1-1.7c0-0.9-0.1-2-0.2-3.4c-0.1-1.3-0.4-2.1-0.8-2.4l-0.5-0.3l-0.4-0.2
			c-0.4-0.2-0.6-0.4-0.6-0.8c0-0.3,0.2-0.5,0.5-0.8c0,0,0.5-0.3,1.4-0.8c0.9-0.5,1.5-0.9,2-1.4c0.2-0.1,0.5-0.3,1-0.4l0.6,1.4
			c0.7-0.3,1.2-0.6,1.6-0.9c0.1-0.1,0.4-0.2,0.8-0.3c0.8-0.2,1.3-0.3,1.5-0.3c0.8,0,1.5,0.3,2.1,0.9c0.6,0.6,0.9,1.4,0.9,2.2
			c0,0.9-0.3,1.5-0.8,2c-0.3,0.3-0.6,0.4-0.9,0.4c-0.5,0-0.9-0.2-1.4-0.6c-0.2-0.1-0.6-0.7-1.4-1.8c-0.1-0.1-0.1-0.1-0.2-0.1
			c-0.6,0-1.1,0.7-1.6,2.1C456.4,281.9,456.3,282.9,456.3,284z"/>
		<path id="XMLID_59_" class="st0" d="M473,276.5c1,0,1.8,0.4,2.4,1.1c0.3,0.4,0.5,0.6,0.6,0.6c0.2,0,0.4-0.2,0.4-0.7
			c0-0.1,0-0.3-0.1-0.6c0-0.3-0.1-0.6-0.1-0.7l0.2-1.5l0.1-1.1c0-0.4,0-1,0.1-1.7c0-0.3,0.1-0.6,0.1-0.9c0-0.1,0-0.5-0.1-1
			c0-0.5-0.1-0.9-0.1-1.1v-1.6c0-0.4-0.2-0.8-0.5-1.3c0-0.1-0.5-0.3-1.2-0.8c-0.2-0.1-0.3-0.3-0.3-0.7c0-0.3,0.2-0.7,0.6-0.9
			c0.1-0.1,0.4-0.2,0.8-0.5c0.5-0.1,1.4-0.5,2.5-1.2c0.6-0.5,1.2-0.7,1.7-0.7c0.7,0,1,0.3,1,0.9c0,0.2,0,0.4-0.1,0.8
			c-0.2,0.8-0.3,1.6-0.4,2.5c-0.1,0.3-0.2,1.1-0.3,2.4c0,0.1-0.1,0.2-0.1,0.4c0,0.3,0,0.9,0.1,1.9c0.1,1,0.1,1.6,0.1,1.9
			c0,0.1,0,0.3-0.1,0.8c0,0.5-0.1,0.8-0.1,1l-0.1,2.1l-0.1,14.9c0,0.5,0.1,0.8,0.2,1l0.5,0.7l0.4,0.9c0.3,0.6,0.5,1,0.5,1.2
			c0,0.5-0.4,0.8-1.2,0.8c-0.1,0-0.5,0-1.2-0.1c-0.1,0-0.2-0.1-0.4-0.1c-0.1,0-0.2,0-0.5,0c-0.3,0-0.4,0-0.5,0
			c-0.7,0-1.1-0.1-1.3-0.3l-0.5-0.9c0,0-0.1-0.1-0.2-0.1c-0.2,0-0.6,0.2-1.4,0.6c-0.6,0.3-1,0.5-1.1,0.5l-0.9,0.1l-1.1,0.2
			c-0.3,0-0.9-0.1-1.7-0.4c-0.8-0.2-1.4-0.5-1.7-0.8c-0.6-0.5-1.1-1.1-1.5-1.7c-0.6-0.8-1-1.6-1.4-2.3c-0.5-0.9-0.7-1.9-0.7-3
			c0-4,0.8-6.8,2.5-8.5c0.8-0.9,2.2-1.6,4.2-2L473,276.5z M473.7,280.4c-1,0-1.9,0.2-2.8,0.5c-1,0.4-1.8,1.2-2.4,2.3
			c-0.4,0.8-0.6,2.5-0.6,4.9c0,1,0.4,2.2,1.3,3.5c0.6,1,1.6,1.5,3,1.5c1.5,0,2.6-0.6,3.3-1.9c0.6-1.1,0.9-2,0.9-2.9l-0.1-2.4
			c0-0.1,0-0.2,0.1-0.3l0.1-1l-0.2-1.5c-0.1-1-0.2-1.6-0.3-1.8C475.5,280.6,474.8,280.4,473.7,280.4z"/>
		<path id="XMLID_112_" class="st0" d="M498.1,295.3c-0.9,0.2-1.6,0.4-2.3,0.4c-1.9,0-3.7-0.5-5.4-1.6c-1.1-0.8-1.9-1.3-2.2-1.7
			c-1.7-1.7-2.5-3.5-2.5-5.4c0,0,0-0.2,0-0.5c0-0.3,0-0.7,0-1.2c0-0.5,0-0.8,0-1c0-1.1,0.1-1.8,0.3-2.1c1.1-2.3,2.7-3.9,5-4.8
			c0.9-0.4,1.6-0.6,2.1-0.7c1-0.2,1.9-0.3,2.5-0.3c1.2,0,2,0.1,2.4,0.2c0,0,0.7,0.3,1.9,0.8c0.8,0.3,1.5,0.8,1.9,1.5l0.7,0.9
			c1.2,1.4,1.8,3.2,1.8,5.4c0,1.9-0.5,4-1.6,6.2c-0.5,1.1-1.4,2-2.7,2.9C499,294.8,498.4,295.2,498.1,295.3z M493.7,278.4
			c-0.6,0-1.2,0.1-1.6,0.4c-0.9,0.7-1.7,1.6-2.2,2.7c-0.4,0.8-0.6,1.9-0.6,3.3c0,1.2,0,2.1,0.1,2.4c0,0.1,0.2,0.8,0.7,2.1
			c0,0.1,0.1,0.4,0.2,0.8c0.1,0.4,0.2,0.6,0.3,0.9c0.4,0.6,0.8,0.9,1,1l0.6,0.3l0.7,0.4c0.9,0.6,1.4,0.9,1.6,0.9
			c0.9,0,1.9-0.3,2.9-0.8c0.9-0.5,1.7-1.5,2.2-3.1c0.4-1.3,0.6-2.6,0.6-3.8c0-0.6-0.1-1-0.2-1.2l-0.6-1.5c-0.4-1-0.8-1.9-1-2.4
			C497.4,279.1,495.9,278.4,493.7,278.4z"/>
		<path id="XMLID_126_" class="st0" d="M443.6,357.7c-0.1,0-0.2,0-0.3,0.1c-1,0.1-1.5,0.1-1.6,0.1c-0.2,0-0.4,0-0.6-0.1
			c-0.4,0-0.7-0.1-1-0.1l-0.7,0.1h-1.2c-0.8,0.1-1.2-0.1-1.2-0.5c0-0.3,0.1-0.5,0.4-0.6l1.1-0.5c0.3-0.2,0.7-0.8,1.4-1.8
			c0.7-0.9,1-1.5,1-1.9v-0.3c0-0.1,0-0.3,0-0.4c0-0.1,0-0.2,0-0.3c0-0.1,0-0.2,0-0.3l0.2-3.1c0-0.5,0.1-1.3,0.2-2.3
			c0-0.2,0-0.3,0.1-0.4l-0.2-2.8c-0.1-0.7-0.1-1.3-0.2-2c0-0.1-0.4-0.8-1.2-2.2c-0.1-0.2-0.7-1.3-1.8-3.1c-0.5-0.7-0.9-1.1-1.1-1.4
			c-0.7-0.8-1.1-1.5-1.5-2.1c0-0.1-0.4-0.7-1-1.7c-0.8-1.3-1.3-2.1-1.6-2.3l-1-1l-0.9-1l-0.8-0.7c-0.9-0.6-1.4-0.9-1.5-1
			c-0.1-0.1-0.2-0.3-0.2-0.5c0-0.1,0.1-0.3,0.2-0.4c0,0,0.7-0.1,2.1-0.2c1-0.1,1.6-0.2,1.7-0.2c0.2,0,0.7,0.1,1.5,0.2
			c0.1,0,0.5,0,1-0.1c0.5-0.1,0.8-0.1,1-0.1c0,0,0.1,0,0.2,0c0.1,0,0.3,0,0.4,0.1c0.2,0,0.4,0,0.5,0c0.1,0,0.5,0.1,1.2,0.1
			c1,0,1.5,0.3,1.5,0.8c0,0.2-0.1,0.4-0.4,0.7l-0.8,0.9c-0.3,0.3-0.5,0.7-0.5,1.1c0,0.5,0.6,1.6,1.7,3.3c0.7,1.1,1.1,1.7,1.2,1.9
			c0,0,0.1,0.1,0.2,0.2s0.2,0.2,0.4,0.4c0.1,0.1,0.3,0.3,0.4,0.4c0.2,0.2,0.5,0.6,0.8,1.3l0.7,1.1c0.5,1,0.8,1.5,1,1.5
			c1,0,2.3-1.6,3.8-4.8c0.3-0.6,0.5-1,0.6-1.2c0.5-0.6,0.9-1.2,1.3-1.7c0.4-0.5,0.6-1,0.6-1.5c0-0.5-0.2-1-0.6-1.6l-0.1-0.1
			c0-0.1-0.1-0.2-0.2-0.3s-0.2-0.2-0.3-0.3l-0.2-0.1c-0.1,0-0.2-0.1-0.3-0.2c-0.1-0.1-0.3-0.3-0.5-0.4c-0.1-0.1-0.2-0.3-0.2-0.5
			c0-0.6,0.5-0.8,1.5-0.8h0.5c0.2,0,0.4,0,0.7,0c0.2,0,0.4,0,0.6,0.1c0.1,0,0.2,0,0.3,0c0.1,0,0.5-0.1,1.1-0.2
			c0.2,0,0.4-0.1,0.7-0.1c0.3,0,1,0.1,2.1,0.2c1,0.1,1.5,0.5,1.5,0.9c0,0.3-0.1,0.5-0.3,0.7c-0.2,0.2-0.7,0.5-1.7,1
			c-0.5,0.2-1.1,0.8-1.9,1.7l-0.1,0.2c-0.1,0.1-0.3,0.3-0.4,0.4c-0.2,0.2-0.4,0.4-0.6,0.6c-0.2,0.3-0.7,1-1.2,2.2l-0.8,1.1l-0.6,0.9
			l-0.4,0.5l-0.3,0.4l-0.5,0.8l-1.4,2c-0.6,0.7-1,1.3-1.2,1.8c-0.2,0.7-0.3,1.7-0.3,2.9v3v0.4c-0.1,0.9-0.2,1.4-0.2,1.5
			c0,0.1,0,0.4,0.1,0.8c0.1,0.5,0.1,0.7,0.1,0.9l-0.1,2.4l-0.1,1.6c0,0.8,0.1,1.6,0.4,2.3c0.2,0.6,0.8,1.2,1.6,1.9
			c0.6,0.5,0.9,0.9,0.9,1.2c0,0.3-0.1,0.4-0.4,0.4l-1.1-0.1c-0.2,0-0.5,0.1-1.1,0.1L443.6,357.7z"/>
		<path id="XMLID_162_" class="st0" d="M455.5,339c0.2,0,0.3,0,0.4,0.1l1.4,0.3c1-0.2,1.6-0.3,1.8-0.3c1.3,0,1.9,0.5,1.9,1.5
			c0,0,0,0.1,0,0.3c0,0.2-0.1,0.5-0.1,0.8c-0.1,0.4-0.1,0.7-0.1,1.1l0.1,9c0,0,0,0.1,0,0.2c0,0.1,0,0.2-0.1,0.4c0,0.2,0,0.3,0,0.5
			c0,0.2-0.1,0.3-0.1,0.5c0,0.8,0.3,1.5,0.8,2.1c0.3,0.3,0.6,0.5,0.9,0.5c0.3,0,0.8-0.1,1.5-0.4c0.7-0.3,1.1-0.5,1.4-0.8
			c0.2-0.2,0.5-0.7,0.8-1.4c0.3-0.7,0.5-1.2,0.5-1.5l-0.2-2.2c0.1-1,0.2-1.6,0.2-1.8c0-0.1-0.1-0.6-0.2-1.5c0-0.2-0.1-0.4-0.1-0.7
			c0-0.4,0.1-1.3,0.2-2.8c0-0.1,0.1-0.3,0.1-0.5c0-0.4-0.1-0.7-0.2-1l-1.2-2c0.3-0.2,0.5-0.3,0.6-0.3c0,0,0.2,0,0.6,0.1
			c0.1,0,0.2,0,0.3,0c0.1,0,0.2,0,0.2,0.1c0.1,0,0.1,0,0.1,0l2.3-0.1c0.5,0,0.7,0.5,0.7,1.6v3.1l-0.1,1.9l0.1,2.9
			c0,0.5,0,0.9,0.1,1.2c0,0.2,0,0.3,0.1,0.4l-0.2,2.7c0,0.2,0.1,0.6,0.5,1.1c0.7,0.8,1,1.2,1,1.4c0,0.1-0.1,0.3-0.4,0.5l-1.3,0.9
			c-1.5,1.3-2.7,1.9-3.5,1.9c-0.3,0-0.5-0.1-0.5-0.4l-0.2-1.2c0-0.1-0.1-0.2-0.2-0.2c-0.1,0-0.7,0.4-1.8,1.1
			c-0.1,0.1-0.6,0.2-1.2,0.2c-1.8,0-3.3-1.1-4.6-3.3c-0.3-0.6-0.5-1.8-0.5-3.6c0-0.2,0-1.1,0.1-2.7c0.1-1.6,0.1-2.5,0.1-2.7
			c0-0.1-0.1-0.8-0.2-2c-0.1-0.9-0.2-1.4-0.3-1.7c-0.1-0.5-0.5-0.9-1-1.3c-0.9-0.7-1.3-1.1-1.3-1.4C454.7,339.1,455,339,455.5,339z"
			/>
		<path id="XMLID_164_" class="st0" d="M480.8,324.1c0.3,0,0.5,0.2,0.5,0.7l-0.2,1l0.1,1.6v0.1c0,0.1-0.1,0.2-0.1,0.3
			c0,0.1,0,0.2,0,0.3l-0.1,1.4c0,0.6,0,1.1-0.1,1.6v0.2l0.1,2.7l-0.1,0.5l-0.2,4.8l0.2,4.6l0.1,3.4v0.5c-0.1,0.8-0.2,1.3-0.2,1.5
			v0.1c0,0.1,0.1,0.2,0.1,0.3c0,0.1,0,0.2,0,0.3c0,0.1,0,0.3,0.1,0.4c0,0.1,0,0.3,0.1,0.5c0,0.2,0,0.4,0.1,0.6c0,0.3,0.2,1,0.4,2.3
			c0.3,0.7,0.5,1.2,0.7,1.7l0.3,0.4l0.7,0.6c0.1,0.2,0.2,0.4,0.2,0.7c0,0.3-0.1,0.6-0.4,0.6c-0.3,0-0.9,0.1-1.6,0.1h-0.8h-0.7h-0.3
			c-0.1,0-0.3,0-0.5,0c-0.2,0-0.4,0-0.5,0h-0.4l-1-0.1H477c-0.8,0.1-1.2,0.1-1.3,0.1c-0.5,0-0.7-0.2-0.7-0.5c0-0.3,0.1-0.5,0.2-0.6
			l0.9-1l0.5-0.7c0.3-0.5,0.5-0.9,0.6-1.2c0.1-0.3,0.1-0.9,0.1-1.6l0.2-1.5l0.1-0.6l0.1-0.5l-0.2-2.2v-1.7c0-0.3,0-0.6-0.1-0.8v-0.4
			c0-0.2,0.1-1.2,0.3-2.8v-0.2v-0.3c-0.1-0.6-0.2-1-0.2-1v-2c0-0.1,0-0.7,0.1-1.7c0-1,0.1-1.7,0.1-2.2c0-0.6,0-1-0.1-1.1l-0.4-1.4
			c0-0.5-0.1-1-0.3-1.4c-0.2-0.4-0.4-0.7-0.6-0.7l-1.1-0.6c-0.1,0-0.2-0.3-0.2-0.7c0-0.5,0.6-1,1.8-1.6c0.3-0.1,0.7-0.4,1.2-0.9
			l1.2-0.7c0.2-0.1,0.4-0.3,0.6-0.4c0.2-0.1,0.4-0.3,0.5-0.3c0.1-0.1,0.2-0.2,0.3-0.2C480.6,324.2,480.7,324.2,480.8,324.1
			L480.8,324.1z"/>
		<path id="XMLID_166_" class="st0" d="M493.8,338.6c1.9,0,3.8,0.9,5.5,2.8c0.8,0.9,1.1,1.7,1.1,2.4c0,1.2-0.5,1.8-1.6,1.8
			c-0.1,0-0.3,0-0.7-0.1c-0.3,0-0.6-0.1-0.7-0.1c-0.6,0-1,0-1.4,0.1c-0.9,0.1-1.4,0.1-1.5,0.1h-0.5h-0.3c-0.5,0-0.8,0-1-0.1
			c-1-0.1-1.6-0.2-1.9-0.2c-0.7,0-1.3,0.2-1.8,0.7c-0.2,0.2-0.4,0.6-0.4,1c0,0.3,0,0.6,0.1,0.9c0.2,1.4,0.3,2.1,0.4,2.3
			c0.3,0.6,1,1.3,2,2.2c0.8,0.7,1.4,1.1,1.9,1.2c0.7,0.2,1.2,0.3,1.8,0.3c0.7,0,1.7-0.2,3.1-0.5c0.5-0.1,0.9-0.3,1.4-0.5
			c0.1-0.1,0.2-0.1,0.3-0.1c0.2,0,0.4,0.1,0.4,0.4c0,0.2-0.1,0.4-0.2,0.7l-0.1,0.1c0,0,0,0.1,0,0.2c0,0.1,0,0.1,0,0.2
			c-0.2,0.7-0.5,1.2-0.9,1.6c-0.1,0.1-0.3,0.3-0.7,0.6c-0.5,0.4-1.1,0.7-1.6,0.9c-0.7,0.3-1.7,0.4-3.1,0.4c-0.4,0-1-0.2-2-0.5
			c-0.9-0.3-1.3-0.5-1.4-0.6c-0.4-0.2-0.9-0.8-1.5-1.6c-0.3-0.5-1-1.5-1.9-3c-0.5-1.5-0.7-2.5-0.7-3.2c0,0,0.1-0.7,0.3-2
			c0.4-2.3,0.9-3.8,1.6-4.6c0.4-0.6,1-1.3,1.7-2.3C491,339.2,492.4,338.6,493.8,338.6z M493.1,340.5c-0.9,0-1.8,0.4-2.4,1.1
			c-0.5,0.5-0.7,1-0.7,1.5c0,0.3,0.2,0.6,0.5,0.7c0.6,0.2,2.1,0.3,4.8,0.3c0.9,0,1.4-0.3,1.4-0.8c0-0.7-0.4-1.3-1.1-2
			C494.9,340.8,494.1,340.5,493.1,340.5z"/>
		<path id="XMLID_169_" class="st0" d="M428.8,384.5c1.6,0,3,0.2,4.1,0.6c0.8,0.3,1.8,0.9,2.9,1.8c0.1,0.1,0.6,0.4,1.5,1.1l0.2,0.2
			c0.1,0.1,0.3,0.2,0.5,0.4c0.2,0.2,0.4,0.4,0.7,0.6c0.5,0.4,0.9,0.8,1.4,1.2c0.1,0.1,0.3,0.4,0.6,0.9l0.9,1.6
			c0.8,1.3,1.3,2,1.5,2.3c0,0,0.2,0.5,0.4,1.5c0.2,0.6,0.5,1.3,0.7,2c0,0.6,0,1,0.1,1.3l0.2,2.1c0,0.2-0.1,0.8-0.2,1.9l0.1,2.3
			c0,0.4,0,1-0.2,1.9c-0.1,0.4-0.5,1.4-1.2,2.9l-0.8,1.7l-0.8,0.9l-0.6,0.7l-0.7,0.9c-0.5,0.6-1.5,1.6-3,2.9
			c-2.9,1.8-6.1,2.8-9.8,2.8c-2.2,0-3.8-0.2-5-0.5c-3.9-1.1-6.8-3.7-8.8-7.5c-1-1.9-1.7-3.6-2.1-4.9c-0.3-1-0.5-1.9-0.7-2.8
			l-0.1-0.3c0-0.2,0-0.5,0-1c0-0.5,0-1,0-1.5c0-0.1,0-0.2,0-0.4c0-0.2,0-0.3,0-0.5l-0.1-0.2c0-1.3,0.3-2.8,0.8-4.4
			c0.2-0.7,0.9-2,1.9-3.7c0.1-0.1,0.7-1.1,1.9-3c1.5-1.6,3.4-3,5.7-4c1.6-0.7,2.7-1.1,3.2-1.2c0.1,0,0.8-0.1,2.2-0.2
			C427.4,384.5,428.4,384.5,428.8,384.5z M425.9,386.9c-0.7,0.1-1.4,0.3-2,0.7c-0.8,0.5-1.5,1-2,1.3c-0.9,0.9-1.7,1.8-2.4,2.8
			c-0.2,0.3-0.7,1-1.3,2.2l-0.7,1.3l-0.4,1.1c0,0.1-0.3,0.6-0.7,1.6c-0.1,0.4-0.2,1.2-0.2,2.2c0,0.5,0,1,0.1,1.4v1.6l-0.1,3.3
			c0,0.2,0.3,1.3,0.8,3.5c0.2,0.6,0.4,1.4,0.6,2.2c0,0.1,0.6,0.8,1.6,1.9c0.4,0.7,0.7,1.2,1,1.5c0.4,0.3,0.9,0.6,1.4,1
			c1.1,0.8,1.9,1.3,2.4,1.5c0.3,0.1,1.1,0.3,2.3,0.4c0.2,0,0.5,0,0.7,0c0.2,0,0.4,0,0.5,0.1c0.1,0,0.2,0,0.3,0c1,0,1.8-0.1,2.3-0.3
			c0.4-0.2,0.9-0.5,1.4-0.8c0.3-0.3,1.1-0.8,2.3-1.6c0.4-0.3,0.8-0.8,1.2-1.6c0-0.1,0.1-0.2,0.3-0.5c0.6-0.8,1.4-2.2,2.6-4.4
			c0.2-0.7,0.3-1.4,0.4-2.1c0-0.2,0-0.3,0-0.5c0-0.1,0-0.2,0-0.3v-0.1v-1.4v-0.6v-0.7v-1v-0.2c0-0.1,0-0.2,0-0.3c0-0.1,0-0.3,0-0.5
			c0-0.2,0-0.5,0-0.7c0-0.2-0.1-0.6-0.1-1.2c0-0.6,0-1,0-1.2c-0.1-0.1-0.2-0.5-0.3-1.1c-0.3-1.4-0.9-2.8-1.8-4.3
			c-0.4-0.7-1.3-1.9-2.7-3.4c-0.6-0.8-1.1-1.3-1.4-1.6c-0.2-0.2-0.8-0.5-1.8-0.7c0,0-0.1,0-0.3-0.1c-0.1,0-0.2-0.1-0.3-0.1
			c-0.5-0.2-1.2-0.3-2.2-0.3L425.9,386.9z"/>
		<path id="XMLID_173_" class="st0" d="M453.6,408.8v1.4v1c0,0.3,0,0.6,0,0.9c0,0.3,0,0.5-0.1,0.7c0,0.2,0,0.3,0,0.3
			c0,0.2,0,0.7,0.1,1.4c0.1,0.7,0.1,1.2,0.1,1.4c0,1,0.4,1.8,1.3,2.2c1,0.6,1.5,1,1.5,1.5c0,0.5-0.4,0.7-1.1,0.7
			c-0.5,0-1.4-0.1-2.8-0.2h-0.4l-0.8,0.1c-0.3,0-0.7,0.1-0.9,0.1c-1.2,0-1.9-0.3-1.9-0.8c0-0.2,0.1-0.3,0.2-0.5l1-1
			c0.3-0.3,0.4-0.6,0.5-0.9c0-0.9,0.1-2.3,0.3-4.3l-0.1-1.7c0-0.9-0.1-2-0.2-3.4c-0.1-1.3-0.4-2.1-0.8-2.4l-0.5-0.3l-0.4-0.2
			c-0.4-0.2-0.6-0.4-0.6-0.8c0-0.3,0.2-0.5,0.5-0.8c0,0,0.5-0.3,1.4-0.8c0.9-0.5,1.5-0.9,2-1.4c0.2-0.1,0.5-0.3,1-0.4l0.6,1.4
			c0.7-0.3,1.2-0.6,1.6-0.9c0.1-0.1,0.4-0.2,0.8-0.3c0.8-0.2,1.3-0.3,1.5-0.3c0.8,0,1.5,0.3,2.1,0.9c0.6,0.6,0.9,1.4,0.9,2.2
			c0,0.9-0.3,1.5-0.8,2c-0.3,0.3-0.6,0.4-0.9,0.4c-0.5,0-0.9-0.2-1.4-0.6c-0.2-0.1-0.6-0.7-1.4-1.8c-0.1-0.1-0.1-0.1-0.2-0.1
			c-0.6,0-1.1,0.7-1.6,2.1C453.8,406.7,453.6,407.7,453.6,408.8z"/>
		<path id="XMLID_175_" class="st0" d="M468.7,402.7c0.2,0,0.6-0.2,0.9-0.6c0.9-0.7,1.8-1.1,2.8-1.1c1.5,0,2.8,0.3,4.1,0.9
			c1.1,0.5,1.8,1.1,2.1,1.7c0.1,0.1,0.3,0.5,0.5,1.1c0.3,0.6,0.6,1.5,0.9,2.6c0.1,0.3,0.2,0.7,0.2,1c0,1,0,2.2,0.1,3.4l0.1,1.4
			c0,1-0.5,2.3-1.7,4c-0.8,1-1.7,1.8-2.7,2.5c-0.8,0.4-1.2,0.6-1.4,0.7c-0.2,0.1-0.7,0.2-1.6,0.3l-1,0.1l-3-0.6
			c-0.3,0-0.5,0.8-0.6,2.2l-0.1,0.7l0.2,1.8l-0.1,5c0,1.1,0.5,2,1.4,2.5c0,0,0.1,0,0.3,0.1c0.1,0.1,0.3,0.2,0.6,0.3
			c0.2,0.1,0.5,0.2,0.7,0.3c0.2,0.1,0.3,0.2,0.3,0.5c0,0.4-0.3,0.6-0.8,0.6c-0.1,0-0.4,0-0.8,0c-0.4,0-0.6,0-0.7,0
			c-0.3,0-1.1,0.1-2.1,0.2c-0.1,0-0.2,0.1-0.3,0.1c-0.1,0-0.5,0-1.1-0.1c-0.6-0.1-1-0.1-1.1-0.1c-0.1,0-0.3,0-0.6,0
			c-0.3,0-0.6,0-0.6,0c-0.8,0-1.1-0.2-1.1-0.7c0-0.1,0.1-0.3,0.4-0.5c0.6-0.5,1-0.9,1.1-1.2c0.2-0.5,0.3-0.9,0.5-1.3
			c0-0.3,0-1.4,0.1-3.4l0.2-2.1c0,0,0-0.1-0.1-0.2l-0.1-3.4v-0.6l0.1-2.1l-0.1-0.9c0-0.2,0-0.4,0.1-0.6c0-0.1,0-0.2,0-0.3
			c0-0.1,0-0.2,0.1-0.3c0-0.1,0-0.1,0-0.2v-0.1l-0.1-1.4l-0.1-1.3c0-0.5,0-0.8-0.1-1.1c0-0.2-0.1-0.4-0.1-0.5l0.1-1.3l0.1-2.5
			l0.2-1.4c0-0.5-0.2-0.9-0.6-1.2c-0.2-0.1-0.5-0.2-0.9-0.4c-0.3-0.1-0.5-0.4-0.5-0.7c0-0.3,0.2-0.6,0.6-0.9c0.2-0.2,0.9-0.6,2-1.1
			c0.3-0.3,0.7-0.7,1-1.2c0.7-0.8,1.4-1.2,2.1-1.2c0.5,0,0.8,0.3,0.8,0.8c0,0.4-0.1,0.8-0.3,1.1c-0.2,0.3-0.3,0.5-0.3,0.6
			L468.7,402.7z M471.2,404.4c-1.4,0-2.2,0.4-2.5,1.3c0,0.1-0.2,1.1-0.4,3.1l0.1,1.3l-0.1,0.9v2.2v0.7l0.1,1v1
			c0.4,1,0.6,1.6,0.6,1.6c0.4,0.6,1.3,0.9,2.7,0.9c0.1,0,0.5,0,1.3,0.1c0.7,0.1,1.4-0.3,2-1.1c1.2-1.4,1.8-3,1.8-4.8
			C476.8,407.1,475,404.4,471.2,404.4z"/>
		<path id="XMLID_215_" class="st0" d="M488.9,385.7c0.3,0,0.6,0.2,0.9,0.5c0.2,0.2,0.3,0.3,0.3,0.4c-0.3,2.4-0.5,3.8-0.5,4.2v1.7
			v0.7c0,0.7,0.1,1.4,0.1,2.2v0.9l0.1,1.5c-0.1,0.2-0.1,0.5-0.2,1c-0.2,1.6-0.3,2.4-0.3,2.4c0,0.5,0.2,0.7,0.5,0.7
			c0.1,0,0.5-0.2,1-0.6c0.3-0.2,0.9-0.3,1.8-0.3c1.2,0,2.5,0.3,3.6,1c0.9,0.6,1.5,1.1,1.9,1.6c0.2,0.3,0.5,1.1,0.7,2.1
			c0.2,1.1,0.4,2.3,0.5,3.4c0.1,0.5,0.1,1,0.2,1.8c0,0.1,0.1,0.2,0.1,0.3c0,0.1,0,0.3-0.1,0.4c0,0.3-0.1,0.6-0.1,0.9l0.1,1.7v1.7
			c0,0.8,0,1.5,0.1,2.1c0,0.3,0.3,0.7,0.7,1c0.6,0.5,0.9,0.9,0.9,1.1c0,0.3-0.3,0.4-1,0.4c-0.2,0-1.1-0.1-2.7-0.4
			c-0.1,0-0.3-0.1-0.7-0.1c-0.2,0-0.3,0-0.4,0.1l-1.5,0.3c-0.3,0-0.5-0.2-0.5-0.5c0-0.3,0.1-0.6,0.4-1c0.4-0.6,0.7-1.2,0.9-1.9
			c0.1-0.5,0.1-1.2,0.1-2.2c0,0,0-0.2,0.1-0.5c0.1-0.3,0.1-0.7,0.1-1.2c0-0.5,0.1-0.9,0.1-1.4c0-0.4-0.1-1-0.4-1.7
			c-0.2-0.6-0.3-1.5-0.3-2.5c0-0.1,0-0.3,0-0.5c0-0.3,0-0.5,0-0.6c0-0.7-0.3-1.4-0.8-2.1c-0.5-0.8-1.1-1.1-1.8-1.1
			c-0.8,0-1.5,0.2-2.1,0.5c-1,0.5-1.4,1.4-1.4,2.7l0.2,2.5l0.1,2.1c-0.1,0.8-0.2,1.4-0.2,1.7c0,0.4,0.1,1.1,0.3,2.2
			c0,0,0.1,0.1,0.1,0.3c-0.1,1-0.2,1.6-0.2,1.7c0,0.4,0.1,0.8,0.3,1.4c0,0.2,0.3,0.6,0.9,1c0.5,0.3,0.7,0.7,0.7,1
			c0,0.2-0.3,0.4-0.8,0.4c-0.4,0-1.1-0.1-2.1-0.2c-0.5,0-1.1,0-1.8-0.1L486,420c-0.8,0.1-1.4,0.2-1.8,0.2c-0.7,0-1-0.2-1-0.5
			c0-0.2,0.1-0.4,0.4-0.6c0.1-0.1,0.4-0.3,0.9-0.6c0.3-0.2,0.5-0.5,0.6-0.8l0.1-0.7c0.2-0.7,0.4-1.4,0.4-1.9c0-0.4,0-0.7-0.1-0.8
			c0-0.4,0-1-0.1-1.7v-0.9v-0.9v-0.6l0.1-0.5l0.1-2.1l0.2-1.6v-0.5c0-0.8-0.1-2.1-0.3-3.7l0.1-0.6c0,0,0-0.2,0-0.8
			c0-0.6,0-1.2,0-1.8l0.1-1.6v-0.6l-0.1-1.3c0,0,0-0.1,0-0.2c0-0.1,0-0.3,0.1-0.5c0-0.2,0-0.5,0-0.7c-0.2-0.7-0.3-1.3-0.5-1.8
			c-0.1-0.3-0.3-0.5-0.4-0.5l-1.1-0.4c-0.3,0-0.5-0.3-0.5-0.7c0-0.3,0.5-0.8,1.6-1.4c0.3-0.2,1-0.6,1.8-1.4c0.1-0.1,0.2-0.2,0.4-0.4
			c0.2-0.2,0.4-0.4,0.5-0.5C488.1,386,488.6,385.7,488.9,385.7z"/>
		<path id="XMLID_218_" class="st0" d="M509.8,401.2c0.5,0,0.7,0.4,0.7,1.1c0,0.2-0.1,0.8-0.2,1.8l0.1,0.5v0.6c0,0.2,0,0.9-0.1,2.2
			c-0.1,1.2-0.1,2-0.1,2.1l0.2,1.4v4l0.1,0.8c0,1,0.3,1.9,0.7,2.4c0.5,0.8,0.7,1.3,0.7,1.5c0,0.5-0.5,0.7-1.6,0.7
			c-0.1,0-0.6,0-1.4-0.1c-0.2,0-0.6-0.1-1-0.1h-0.4l-1.7,0.2c-0.4,0-0.6-0.3-0.6-0.8c0-0.2,0-0.3,0.1-0.4c0.2-0.1,0.5-0.5,0.9-1.1
			c0.3-0.4,0.4-0.6,0.4-0.7v-1.6l0.2-1.5l0.1-3.6c0-0.1-0.1-0.7-0.2-1.8v-0.1c0-0.2,0-0.5,0.1-0.9l0.1-0.6c0-0.1,0.1-0.3,0.1-0.5
			c0-0.2,0-0.4,0-0.5c0-0.2-0.1-0.5-0.3-0.7c-0.1-0.1-0.5-0.5-1.2-0.9c-0.1-0.1-0.1-0.3-0.1-0.5c0-0.4,0.3-0.8,0.9-1
			c0.6-0.3,1.1-0.5,1.4-0.7C508.8,401.6,509.5,401.2,509.8,401.2z M508.1,394.5c0.7,0,1.3,0.2,1.9,0.6c0.6,0.4,0.9,1,0.9,1.7
			c0,0.5-0.3,1-0.8,1.7c-0.5,0.6-1,0.9-1.5,0.9c-0.4,0-1-0.2-1.8-0.7c-0.4-0.1-0.6-0.5-0.6-0.9c-0.1-0.7-0.2-1.1-0.2-1.1
			c0-0.4,0.2-0.9,0.6-1.5C507,394.8,507.5,394.5,508.1,394.5z"/>
		<path id="XMLID_221_" class="st0" d="M523.5,401.1c1,0,2.1,0,3.4,0.1c1.2,0.1,2.2,0.7,3,1.7c0.4,0.6,0.6,1.2,0.6,1.7
			c0,0.4-0.1,0.8-0.4,1.1c-0.3,0.3-0.6,0.5-1,0.5c-0.9,0-2-0.7-3.1-2c-0.5-0.6-0.9-1-1.4-1c-0.2,0-0.9-0.1-2.1-0.2
			c-0.7,0-1.4,0.6-2.2,1.7c-0.6,0.8-0.8,2.2-0.8,4.3c0,0.1,0,0.2,0,0.4c0,0.2,0,0.4,0,0.4v1.4c0,0.1,0.2,0.5,0.6,1.4
			c0.1,0.3,0.3,0.5,0.4,0.8c0.1,0.3,0.2,0.5,0.3,0.6l0.1,0.2c0.4,0.9,0.8,1.7,1.4,2.5c0.2,0.3,0.7,0.7,1.3,1.1
			c0.7,0.4,1.2,0.6,1.5,0.6h0.7c1.2-0.1,2.3-0.3,3.1-0.7c0.5-0.3,0.7-0.4,0.9-0.4c0.2,0,0.3,0.1,0.3,0.3c0,0.2-0.2,0.4-0.6,0.7
			c-1.9,1.6-3.2,2.3-3.7,2.3c-2.1,0-3.7-0.2-4.7-0.7c-0.5-0.2-1.2-0.7-1.9-1.2c-0.5-0.4-1.1-1-1.6-1.8c-0.5-0.6-0.9-1.2-1.1-1.9
			c-0.1-0.5-0.3-1.2-0.4-2c-0.3-1.5-0.5-2.4-0.5-2.8c0-2.2,0.7-4.2,2.2-5.8c0.8-0.9,1.5-1.6,2.1-2
			C520.8,401.6,522.1,401.2,523.5,401.1z"/>
	</g>
	<rect id="XMLID_48_" x="375.4" y="446" class="st3" width="197.9" height="72.2"/>
	<text id="XMLID_262_" transform="matrix(1 0 0 1 375.3901 469.0294)"><tspan x="0" y="0" class="st0 st1 st4">Together, we are </tspan><tspan x="0" y="42" class="st0 st1 st4">All Powerful. </tspan></text>
	<path id="XMLID_4_" class="st5" d="M484.2,341.1c0.5-0.5,1.1-0.9,1.8-1.1c0.8-0.2,1.5-0.2,2,0.2c0.2,0.1,0.4,0.3,0.5,0.5
		c-0.6-0.3-1.2-0.4-1.7-0.3c-0.6,0.1-1.1,0.3-1.7,0.7c-0.6,0.4-1,0.9-1.3,1.3l0.2,0.1c2.5,0.8,4,0.7,4.5-0.1c0.2-0.3,0.2-0.5,0-0.7
		c-0.3-0.1-0.8-0.1-1.3,0c-0.4,0.1-0.9,0.1-1.3,0.2c0.6-0.5,1.6-0.7,3-0.8c0.4,0.5,0.5,1,0.1,1.5c-0.6,1-1.9,1.3-3.8,0.8
		c-0.4-0.1-0.8-0.2-1.2-0.3c-0.5-0.1-0.9-0.2-1.2-0.1C483.3,342.1,483.8,341.5,484.2,341.1z M489.3,334.3c0.6-0.2,1-0.3,1.4-0.1
		c0.2,0.1,0.4,0.5,0.4,1.1c-0.1-0.1-0.3-0.3-0.5-0.4c-0.3-0.2-0.7-0.2-1.1,0c-0.4,0.2-0.8,0.5-1,0.9c-0.2,0.3-0.3,0.6-0.3,1
		c0,0.4,0,0.7,0.2,0.8c0.2,0.1,0.6,0.1,1.1-0.2c0.4-0.3,0.7-0.5,0.9-0.8c0.1-0.2,0.1-0.3,0-0.4c-0.2-0.1-0.5,0-0.8,0.4
		c0-0.3,0-0.5,0.2-0.8c0.3-0.4,0.6-0.5,1-0.2c0.5,0.3,0.5,0.7,0.2,1.3c-0.2,0.4-0.7,0.8-1.3,1.1c-0.7,0.3-1.2,0.4-1.6,0.1
		c-0.3-0.2-0.5-0.6-0.5-1.2c0-0.6,0.2-1.1,0.4-1.5C488.2,334.9,488.7,334.5,489.3,334.3z M491.7,336.8c0.5-0.8,0.6-1.6,0.3-2.2
		c0.1,0,0.2,0.1,0.4,0.2c0.7,0.4,1.3,1,1.6,1.8c0.4,0.8,0.4,1.6,0,2.3c-0.2,0.3-0.5,0.6-0.8,0.8c-0.9,0.5-1.7,0.6-2.6,0.3
		c-0.8-0.3-1.7-0.6-2.5-0.9l-0.1-0.4C489.9,338.4,491.1,337.7,491.7,336.8z M493.4,328.6c0.9,0.5,1.6,1.2,2,2c0.6,1,0.6,1.9,0.1,2.7
		c-0.1,0.1-0.2,0.2-0.3,0.3c0.4-1.9-0.5-3.5-2.6-4.8c-0.3-0.2-0.6-0.3-0.9-0.4c-0.1,3.1,0.3,4.9,1.3,5.5c0.5,0.3,0.8,0.2,1.1-0.1
		c-0.1-0.8-0.5-1.9-1-3.1c0.8,0.6,1.4,1.7,1.9,3.3c-0.6,0.9-1.3,1-2.3,0.4c-1.1-0.6-1.6-2-1.7-4.1c0-0.5,0-1,0-1.5
		c0-0.6-0.1-1.1-0.3-1.5C491.9,327.9,492.8,328.2,493.4,328.6z M496.4,334.1c-0.2,0.5-0.1,1,0.2,1.6c0.3,0.5,0.7,0.9,1.1,1.2
		c0.7,0.4,1.8,0.7,3.2,0.8l0,0.4c-0.8,0.4-1.6,0.8-2.4,1.2c-0.9,0.4-1.7,0.4-2.6,0.1c-0.1-0.1-0.3-0.1-0.4-0.2c-0.7-0.4-1-1-1-1.8
		c0-0.7,0.2-1.3,0.6-2C495.4,334.9,495.8,334.4,496.4,334.1z M498.7,333.3c0.4,0.1,0.8,0.2,1.2,0.4c0.5,0.3,0.9,0.8,1.2,1.5
		c0.3,0.7,0.2,1.2,0,1.7c-0.2,0.3-0.6,0.5-1.2,0.3c-0.5-0.1-0.9-0.2-1.3-0.5c-0.9-0.5-1.1-1.1-0.7-1.7c0.2-0.4,0.6-0.5,1-0.2
		c0.3,0.2,0.4,0.5,0.4,0.9c-0.1-0.1-0.3-0.2-0.4-0.3c-0.3-0.2-0.4-0.2-0.5,0c-0.1,0.2,0.1,0.4,0.6,0.8c0.8,0.5,1.4,0.6,1.6,0.3
		c0.2-0.3,0.2-0.7,0-1.1c-0.2-0.4-0.5-0.8-0.9-1c-1-0.6-1.7-0.5-2.2,0.3c0-0.4,0-0.7,0.1-0.9C497.7,333.4,498.1,333.2,498.7,333.3z
		 M501.4,339.1c0.9,0,1.8,0.3,2.8,0.9c0.6,0.4,1.4,1.1,2.4,2.2c-0.4,0-0.9,0.1-1.5,0.3c-0.5,0.2-0.9,0.4-1.4,0.6
		c-1.8,0.7-3.2,0.8-4.2,0.2c-0.4-0.3-0.7-0.6-0.9-1.1c-0.2-0.4-0.1-0.9,0.2-1.3l0-0.1c1.7-0.2,3,0,3.8,0.5c-1.9,0-2.9,0.1-3.2,0.2
		c-0.3,0.4-0.1,0.8,0.4,1.1c1,0.6,2.9,0.3,5.5-1c-0.3-0.4-0.8-0.8-1.5-1.2c-1.7-1-3.3-1.1-4.7-0.1c0-0.1,0.1-0.2,0.1-0.3
		C499.7,339.5,500.4,339.1,501.4,339.1z"/>
</g>
<g id="XMLID_490_">
	<path id="XMLID_491_" class="st0" d="M217,271.7l-11.1,18.9l-11.1-18.9l11.1-18.9L217,271.7z"/>
</g>
</svg>
