<?xml version="1.0" encoding="utf-8"?>
<!-- Generator: Adobe Illustrator 19.0.0, SVG Export Plug-In . SVG Version: 6.00 Build 0)  -->
<svg version="1.1" xmlns="http://www.w3.org/2000/svg" xmlns:xlink="http://www.w3.org/1999/xlink" x="0px" y="0px"
	 viewBox="-103 308.3 403.7 397.3" style="enable-background:new -103 308.3 403.7 397.3;" xml:space="preserve">
<style type="text/css">
	.st0{stroke:#020202;stroke-width:1.0202;stroke-miterlimit:10;}
	.st1{stroke:#FFFFFF;stroke-width:0.1713;stroke-miterlimit:10;}
	.st2{stroke:#FFFFFF;stroke-width:0.3663;stroke-miterlimit:10;}
	.st3{font-family:'CaslonAntique';}
	.st4{font-size:20.6339px;}
	.st5{stroke:#000000;stroke-width:6.0913;stroke-miterlimit:10;}
	.st6{fill:none;stroke:#000000;stroke-width:4.8876;stroke-linecap:round;stroke-miterlimit:10;}
	.st7{stroke:#000000;stroke-width:5.1011;stroke-linecap:round;stroke-miterlimit:10;}
	.st8{stroke:#000000;stroke-width:5.5768;stroke-linecap:round;stroke-miterlimit:10;}
	.st9{stroke:#000000;stroke-width:0.3915;stroke-miterlimit:10;}
	.st10{stroke:#000000;stroke-width:0.3728;stroke-miterlimit:10;}
	.st11{fill:#231F20;}
</style>
<g id="Layer_2">
</g>
<g id="Layer_1">
	<g id="XMLID_28_">
		<g id="XMLID_21_">
			<path id="XMLID_22_" d="M-34.6,323.6c5.8,0,10.8,0.9,14.9,2.8c2.9,1.4,6.3,4,10.4,7.8c0.3,0.3,2.1,1.9,5.5,4.8l0.6,0.7
				c0.4,0.3,0.9,0.9,1.7,1.7c0.8,0.8,1.6,1.8,2.5,2.9c1.8,1.8,3.4,3.7,4.9,5.5c0.5,0.6,1.3,1.9,2.3,3.9l3.4,6.9
				c3,5.7,4.8,9,5.3,10.1c0.1,0.2,0.6,2.3,1.3,6.4c0.9,2.6,1.8,5.6,2.6,9c0,2.5,0.1,4.4,0.2,5.7l0.6,9.2c0,0.8-0.2,3.5-0.6,8.3
				l0.4,10.3c0.1,1.8-0.1,4.6-0.8,8.3c-0.4,1.8-1.9,6.1-4.5,12.9l-3,7.4l-2.8,4.1l-2.1,3l-2.6,3.9c-1.9,2.8-5.5,7.1-10.9,12.9
				c-10.4,8.1-22.3,12.2-35.5,12.2c-7.9,0-14-0.8-18.1-2.3c-14.1-5.1-24.8-16.2-32.1-33.3c-3.6-8.6-6.2-15.9-7.7-21.8
				c-1.1-4.3-2-8.4-2.5-12.4l-0.2-1.4c0-0.9,0-2.4-0.1-4.5s-0.1-4.3-0.1-6.6c0-0.5,0-1.1-0.1-1.8c-0.1-0.8-0.1-1.5-0.1-2.1l-0.2-0.7
				c0-5.7,1-12.2,3-19.5c0.9-3.2,3.2-8.7,7-16.6c0.3-0.5,2.6-4.8,7-13.1c5.5-7.2,12.4-13.1,20.7-17.7c5.8-3.1,9.6-4.8,11.5-5.3
				c0.4-0.2,3-0.5,7.9-0.9C-39.6,323.8-36.1,323.6-34.6,323.6z M-45.2,334.2c-2.5,0.3-4.9,1.4-7.2,3.2c-2.9,2.3-5.3,4.2-7.2,5.7
				c-3.1,3.8-6.1,8-8.9,12.4c-0.9,1.2-2.5,4.5-4.7,9.9l-2.6,5.7l-1.5,4.8c-0.1,0.5-0.9,2.8-2.5,7.1c-0.4,1.8-0.6,5.1-0.6,9.9
				c0,2.3,0.1,4.4,0.2,6.2v6.9l-0.4,14.7c0,0.8,0.9,5.9,2.8,15.4c0.6,2.8,1.4,6,2.3,9.7c0.1,0.6,2,3.4,5.7,8.3
				c1.5,3.2,2.7,5.4,3.6,6.4c1.5,1.2,3.2,2.7,5.1,4.4c4,3.7,6.9,5.9,8.7,6.7c1.3,0.6,4,1.1,8.3,1.6c0.9,0,1.7,0,2.5,0.1
				s1.5,0.2,2,0.2c0.5,0.1,0.8,0.1,0.9,0.1c3.8,0,6.6-0.4,8.5-1.1c1.5-0.8,3.2-2,5.1-3.7c1.3-1.2,4.1-3.5,8.5-6.9
				c1.4-1.2,2.9-3.5,4.5-6.9c0-0.3,0.4-1,1.1-2.1c2-3.4,5.2-9.9,9.4-19.5c0.8-3.2,1.2-6.3,1.3-9.2c0-0.8,0-1.5,0.1-2.1
				s0.1-1,0.1-1.1v-0.2v-6v-2.5v-3v-4.4V404c0-0.5,0-1,0-1.5s0-1.3-0.1-2.4s-0.1-2.1-0.1-3.2c-0.1-1.1-0.2-2.8-0.3-5.3
				c-0.1-2.5-0.1-4.3-0.1-5.5c-0.3-0.6-0.6-2.2-1.1-4.8c-1.1-6.1-3.3-12.4-6.4-18.9c-1.4-3.2-4.7-8.3-9.8-15.2
				c-2.3-3.4-3.9-5.7-4.9-6.9c-0.9-1.1-3-2.1-6.4-3c-0.1,0-0.4-0.1-0.9-0.2c-0.5-0.2-0.8-0.3-0.9-0.5c-1.8-0.8-4.5-1.2-8.1-1.4
				L-45.2,334.2z"/>
			<path id="XMLID_25_" d="M45.7,460.2c0.9,0,2.6,0.8,5.3,2.3c3.1,1.7,4.9,2.8,5.3,3.2c0.9,1.1,1.3,3.2,1.3,6.4
				c0,3.7-0.6,6.3-1.9,7.8c-1.6,2-4.5,3-8.5,3c-1.3,0-3.3-1.5-6.2-4.6c-1.5-1.7-2.3-4.1-2.3-7.1C38.8,463.9,41.1,460.2,45.7,460.2z"
				/>
			<path id="XMLID_29_" d="M144.2,460.2c0.9,0,2.6,0.8,5.3,2.3c3.1,1.7,4.9,2.8,5.3,3.2c0.9,1.1,1.3,3.2,1.3,6.4
				c0,3.7-0.6,6.3-1.9,7.8c-1.6,2-4.5,3-8.5,3c-1.3,0-3.3-1.5-6.2-4.6c-1.5-1.7-2.3-4.1-2.3-7.1
				C137.2,463.9,139.5,460.2,144.2,460.2z"/>
			<path id="XMLID_31_" d="M241.3,323.6c5.8,0,10.8,0.9,14.9,2.8c2.9,1.4,6.3,4,10.4,7.8c0.3,0.3,2.1,1.9,5.5,4.8l0.6,0.7
				c0.4,0.3,0.9,0.9,1.7,1.7c0.8,0.8,1.6,1.8,2.5,2.9c1.8,1.8,3.4,3.7,4.9,5.5c0.5,0.6,1.3,1.9,2.3,3.9l3.4,6.9
				c3,5.7,4.8,9,5.3,10.1c0.1,0.2,0.6,2.3,1.3,6.4c0.9,2.6,1.8,5.6,2.6,9c0,2.5,0.1,4.4,0.2,5.7l0.6,9.2c0,0.8-0.2,3.5-0.6,8.3
				l0.4,10.3c0.1,1.8-0.1,4.6-0.8,8.3c-0.4,1.8-1.9,6.1-4.5,12.9l-3,7.4l-2.8,4.1l-2.1,3l-2.6,3.9c-1.9,2.8-5.5,7.1-10.9,12.9
				c-10.4,8.1-22.3,12.2-35.5,12.2c-7.9,0-14-0.8-18.1-2.3c-14.1-5.1-24.8-16.2-32.1-33.3c-3.6-8.6-6.2-15.9-7.7-21.8
				c-1.1-4.3-2-8.4-2.5-12.4l-0.2-1.4c0-0.9,0-2.4-0.1-4.5s-0.1-4.3-0.1-6.6c0-0.5,0-1.1-0.1-1.8c-0.1-0.8-0.1-1.5-0.1-2.1l-0.2-0.7
				c0-5.7,1-12.2,3-19.5c0.9-3.2,3.2-8.7,7-16.6c0.3-0.5,2.6-4.8,7-13.1c5.5-7.2,12.4-13.1,20.7-17.7c5.8-3.1,9.6-4.8,11.5-5.3
				c0.4-0.2,3-0.5,7.9-0.9C236.4,323.8,239.8,323.6,241.3,323.6z M230.8,334.2c-2.5,0.3-4.9,1.4-7.2,3.2c-2.9,2.3-5.3,4.2-7.2,5.7
				c-3.1,3.8-6.1,8-8.9,12.4c-0.9,1.2-2.5,4.5-4.7,9.9l-2.6,5.7l-1.5,4.8c-0.1,0.5-0.9,2.8-2.5,7.1c-0.4,1.8-0.6,5.1-0.6,9.9
				c0,2.3,0.1,4.4,0.2,6.2v6.9l-0.4,14.7c0,0.8,0.9,5.9,2.8,15.4c0.6,2.8,1.4,6,2.3,9.7c0.1,0.6,2,3.4,5.7,8.3
				c1.5,3.2,2.7,5.4,3.6,6.4c1.5,1.2,3.2,2.7,5.1,4.4c4,3.7,6.9,5.9,8.7,6.7c1.3,0.6,4,1.1,8.3,1.6c0.9,0,1.7,0,2.5,0.1
				s1.5,0.2,2,0.2c0.5,0.1,0.8,0.1,0.9,0.1c3.8,0,6.6-0.4,8.5-1.1c1.5-0.8,3.2-2,5.1-3.7c1.3-1.2,4.1-3.5,8.5-6.9
				c1.4-1.2,2.9-3.5,4.5-6.9c0-0.3,0.4-1,1.1-2.1c2-3.4,5.2-9.9,9.4-19.5c0.8-3.2,1.2-6.3,1.3-9.2c0-0.8,0-1.5,0.1-2.1
				s0.1-1,0.1-1.1v-0.2v-6v-2.5v-3v-4.4V404c0-0.5,0-1,0-1.5s0-1.3-0.1-2.4s-0.1-2.1-0.1-3.2c-0.1-1.1-0.2-2.8-0.3-5.3
				c-0.1-2.5-0.1-4.3-0.1-5.5c-0.3-0.6-0.6-2.2-1.1-4.8c-1.1-6.1-3.3-12.4-6.4-18.9c-1.4-3.2-4.7-8.3-9.8-15.2
				c-2.3-3.4-3.9-5.7-4.9-6.9c-0.9-1.1-3-2.1-6.4-3c-0.1,0-0.4-0.1-0.9-0.2c-0.5-0.2-0.8-0.3-0.9-0.5c-1.8-0.8-4.5-1.2-8.1-1.4
				L230.8,334.2z"/>
		</g>
		<g id="XMLID_37_">
			<path id="XMLID_38_" d="M101.5,485.5c-0.3,0-0.6,0.1-0.9,0.2c-2.7,0.3-4.2,0.4-4.4,0.4c-0.6,0-1.1-0.1-1.6-0.2
				c-1.1-0.1-2-0.2-2.8-0.2l-1.9,0.2h-3.4c-2.3,0.3-3.4-0.4-3.4-2.1c0-1.3,0.3-2.1,1-2.6l3.2-2.1c0.8-0.7,2.1-3.1,4-7.2
				c2-3.5,2.9-6.1,2.9-7.7v-1.1c0-0.6,0-1.1-0.1-1.5s-0.1-0.8-0.1-1.1c0-0.3,0-0.6,0-1.1l0.4-12.6c0-2.1,0.1-5.3,0.4-9.6
				c0-0.7,0-1.3,0.1-1.7L94.3,424c-0.2-2.7-0.3-5.4-0.4-8.1c0-0.3-1.2-3.3-3.5-8.9c-0.4-1-2.1-5.2-5-12.6c-1.5-2.7-2.5-4.6-3.1-5.7
				c-1.9-3.4-3.2-6.3-4.1-8.7c-0.1-0.4-1.1-2.8-2.9-7c-2.3-5.4-3.7-8.6-4.4-9.6l-2.9-4l-2.7-4.3l-2.2-2.8c-2.6-2.4-3.9-3.8-4.1-4
				c-0.4-0.6-0.6-1.3-0.6-2.1c0-0.6,0.2-1.1,0.6-1.7c0.1-0.1,2.1-0.4,5.9-0.6c2.9-0.4,4.6-0.6,4.9-0.6c0.6,0,2,0.3,4.3,0.9
				c0.4,0,1.3-0.1,2.7-0.3c1.4-0.2,2.3-0.3,2.7-0.3c0.1,0,0.3,0,0.6,0.1s0.7,0.1,1.3,0.2c0.5,0.1,1.1,0.1,1.5,0.1
				c0.2,0.1,1.3,0.2,3.4,0.2c2.8,0,4.3,1.1,4.3,3.4c0,0.9-0.3,1.8-1,2.8l-2.2,3.6c-0.9,1.3-1.3,2.8-1.3,4.5c0,2,1.6,6.5,4.7,13.4
				c1.9,4.5,3,7.1,3.5,7.7c0.1,0.1,0.3,0.4,0.6,0.9c0.3,0.4,0.6,0.9,1,1.5s0.8,1.1,1.2,1.7c0.5,0.7,1.3,2.5,2.4,5.3l2.1,4.7
				c1.3,4,2.2,6,2.8,6c2.8,0,6.4-6.5,10.8-19.6c0.8-2.3,1.4-4,1.8-5.1c1.4-2.6,2.6-4.8,3.7-6.8c1.2-2.1,1.8-4.1,1.8-6
				c0-2-0.5-4.2-1.6-6.6l-0.3-0.4c-0.1-0.3-0.3-0.6-0.6-1.1c-0.3-0.4-0.5-0.9-0.7-1.3l-0.4-0.4c-0.2-0.1-0.5-0.5-0.9-1
				s-0.8-1-1.3-1.6c-0.4-0.4-0.6-1.1-0.6-2.1c0-2.3,1.4-3.4,4.3-3.4h1.5c0.6,0,1.2,0,1.9,0.1s1.2,0.1,1.6,0.2
				c0.4,0.1,0.7,0.1,0.9,0.1c0.3,0,1.3-0.2,3.1-0.6c0.5-0.1,1.1-0.2,1.9-0.2c0.9,0,2.8,0.3,5.9,0.9c2.7,0.6,4.1,1.8,4.1,3.8
				c0,1.3-0.2,2.2-0.7,2.9c-0.5,0.6-2.1,2-4.9,4.1c-1.5,1-3.2,3.3-5.3,7l-0.3,0.6c-0.3,0.4-0.7,1-1.3,1.8c-0.5,0.8-1.1,1.7-1.7,2.7
				c-0.7,1.1-1.9,4.2-3.5,9.1l-2.2,4.7l-1.6,3.6l-1,2.1l-0.7,1.5l-1.5,3.2l-3.8,8.3c-1.7,2.8-2.8,5.3-3.4,7.4c-0.7,3-1,6.9-0.9,11.7
				v12.2v1.7c-0.3,3.7-0.4,5.7-0.4,6c0,0.4,0.1,1.6,0.4,3.4c0.2,1.8,0.3,3.1,0.2,3.6l-0.3,9.8l-0.1,6.6c-0.1,3.4,0.3,6.5,1.2,9.4
				c0.7,2.3,2.2,4.8,4.4,7.7c1.7,2,2.5,3.6,2.5,4.9s-0.4,1.8-1.2,1.5l-3.2-0.2c-0.5,0.1-1.5,0.2-3.1,0.2L101.5,485.5z"/>
		</g>
	</g>
	<g id="XMLID_490_">
		<path id="XMLID_491_" d="M113.4,331.2l-11.1,18.9l-11.1-18.9l11.1-18.9L113.4,331.2z"/>
	</g>
	<g>
		<g>
			<path class="st0" d="M150.5,583c-0.5,0-2.6,0.3-4.4,0.6c-2.2,0.3-3.8,0.8-5.7,1.6c-2.6,1.2-4.1,2.3-4.9,3.7
				c-0.4,0.7-0.8,2.2-0.8,2.8l0,0.2l0.3-0.2c0.6-0.5,1-1,1.3-1.7c0.1-0.4,0.3-0.8,0.3-1c0-0.2,0.1-0.4,0.1-0.4c0.1,0,0,0.7-0.2,1.6
				c-0.1,0.5-0.2,0.8-0.2,0.8c0.1,0,1.9-1.1,2.3-1.3c0.8-0.6,1.5-1.7,2-3c0.4-1.1,0.6-1.6,0.7-1.6c0,0,0,0.1,0,0.2
				c0,0.1-0.2,0.6-0.4,1.2c-0.2,0.6-0.5,1.4-0.7,1.8c-0.2,0.5-0.4,0.8-0.4,0.8c0.1,0,1.6-0.7,2.2-1c2.1-1.1,2.6-1.6,3.5-3.6
				c0.3-0.5,0.5-0.9,0.5-0.7c0,0-0.2,0.4-0.4,0.8c-0.6,1.2-0.8,1.8-0.7,1.8c0.1,0,0.6-0.3,1.5-0.7l1.4-0.8l0.2-0.5
				c0.1-0.3,0.2-0.4,0.2-0.3c0,0.1,0,0.3-0.1,0.5l0,0.3l0.6-0.5c1-0.8,1.2-0.9,1.1-0.8c0,0.1-0.4,0.4-0.8,0.7
				c-0.4,0.3-0.7,0.6-0.7,0.6c0,0,0.3,0,0.7,0c0.8-0.1,0.4,0-0.5,0.2c-0.4,0.1-0.8,0.2-1.2,0.4c-0.8,0.4-1.8,1-1.8,1.1
				c0,0,0.8,0,1.8-0.1c1-0.1,1.7-0.1,1.6-0.1s-0.8,0.1-1.7,0.2c-2,0.1-2.5,0.3-3.7,1c-0.5,0.3-0.8,0.5-0.8,0.6c0,0.1,0.4,0.1,2,0.1
				c0.4,0,1.5-0.1,2.3-0.1c0.8-0.1,1.4-0.1,1.3-0.1c-0.6,0.1-2.7,0.3-4.2,0.3c-1.8,0-2.1,0.1-3.5,0.7c-1.1,0.5-1.3,0.6-1,0.7
				c0.1,0,0.9,0.1,1.8,0.2c2.3,0.2,3,0.2,4.7-0.2c1.1-0.3,1.7-0.3,0.9-0.1c-0.2,0.1-0.6,0.2-0.9,0.3c-0.4,0.1-0.9,0.2-1.8,0.3
				c-1.2,0.1-1.4,0.1-2.7,0c-1.8-0.2-2.2-0.1-3.3,0.4c-0.4,0.2-0.9,0.4-1.1,0.5l-0.3,0.2l0.4,0c0.6,0,1.2,0.2,2.3,0.6
				c0.6,0.2,1.3,0.5,1.6,0.5c0.6,0.1,1.8,0.2,1.9,0.1c0.1,0,0.1,0,0,0c-0.1,0.1-0.2,0.1-0.7,0.1c-0.9,0-1.9-0.3-2.9-0.7
				c-1.1-0.4-1.8-0.6-2.3-0.5c-0.5,0-1.2,0.3-1.9,0.7c-0.2,0.1-0.8,0.4-1.3,0.7c-0.8,0.4-0.9,0.4-0.8,0.6c0.1,0.2,0.2,0.3,0.4,0.2
				c0.1,0,0.4-0.2,0.8-0.3c0.8-0.3,1-0.3,2.7-0.1c0.7,0.1,1.5,0.2,1.8,0.2l0,0c1.5,0.1,3.6-0.3,5.2-1c3-1.2,5.4-3.9,6.2-6.8
				c0.2-0.9,0.5-2.4,0.4-2.5C150.6,583,150.6,583,150.5,583z"/>
			<path id="XMLID_3_" class="st1" d="M126,596.7c0.1-0.9,0.5-1.7,1-2.4c0.7-0.8,1.5-1.2,2.5-1.1c0.2,0,0.3,0,0.4,0.1
				c-2,0.4-3.1,1.7-3.4,3.9c0,0.3,0,0.6,0,0.9c3-1,4.5-2.1,4.6-3.2c0.1-0.5-0.1-0.7-0.6-0.8c-0.7,0.4-1.6,1.1-2.5,2
				c0.2-0.8,1-1.8,2.3-2.8c1.1,0.1,1.6,0.7,1.4,1.7c-0.1,1.1-1.2,2.1-3.2,2.9c-0.5,0.2-1,0.4-1.5,0.6c-0.6,0.2-1,0.5-1.3,0.8
				C125.9,598.2,125.9,597.4,126,596.7z"/>
			<path id="XMLID_1_" class="st2" d="M141.4,606.6c-2.2-0.2-4.1-0.9-5.7-2c-2-1.3-2.8-3-2.6-4.9c0-0.3,0.1-0.6,0.2-0.8
				c0.9,3.8,4,6,9.3,6.5c0.8,0.1,1.5,0.1,2.2,0c-2.5-5.7-4.9-8.7-7.5-9c-1.1-0.1-1.8,0.3-1.9,1.2c0.9,1.4,2.5,3,4.7,4.7
				c-2-0.4-4.2-1.9-6.6-4.5c0.3-2.1,1.6-3,4-2.8c2.6,0.3,4.9,2.3,6.8,6.1c0.5,0.9,0.9,1.9,1.3,2.8c0.6,1.1,1.2,1.9,1.8,2.5
				C144.9,606.7,142.9,606.8,141.4,606.6z"/>
		</g>
	</g>
	<text id="XMLID_10_" transform="matrix(1 0 0 1 40.0333 527.5673)" class="st3 st4">Gift Giving Cult</text>
	<g>
		<line class="st5" x1="99.8" y1="608.7" x2="82.4" y2="571.7"/>
		<g>
			<polyline class="st6" points="88.8,626.8 88.8,616.4 99.8,608.7 			"/>
		</g>
		<g>
			<polyline class="st6" points="111.8,626.8 111.8,616.4 100.8,608.7 			"/>
		</g>
		<line class="st5" x1="99.8" y1="608.7" x2="117.3" y2="571.7"/>
		<line class="st7" x1="159.6" y1="573.3" x2="40.1" y2="573.3"/>
		<g>
			<path d="M97.1,619.6V611c-3.3-0.3-6.3-1.2-9.2-2.6c-2.8-1.4-5.3-3.2-7.4-5.3c-2.1-2.2-3.7-4.7-4.9-7.5c-1.2-2.8-1.8-5.9-1.8-9.1
				c0-3.2,0.6-6.2,1.8-9.1c1.2-2.8,2.8-5.3,4.9-7.5c2.1-2.2,4.6-4,7.4-5.3c2.8-1.4,5.9-2.2,9.2-2.6v-8.1l-4.9,4.8h-6.1l13.6-12.6
				h0.2l13.7,12.6h-6.1l-4.9-4.9v8.2c3.3,0.3,6.3,1.2,9.1,2.6c2.8,1.4,5.3,3.2,7.4,5.3c2.1,2.2,3.8,4.7,5,7.5
				c1.2,2.8,1.8,5.9,1.8,9.1c0,3.2-0.6,6.3-1.8,9.1c-1.2,2.8-2.9,5.4-5,7.5c-2.1,2.2-4.6,4-7.4,5.3c-2.8,1.4-5.9,2.2-9.1,2.6v8.5
				H97.1z M80,586.5c0,2.5,0.4,4.9,1.3,7.1s2,4.2,3.6,5.9c1.5,1.7,3.3,3.1,5.4,4.2s4.4,1.8,6.9,2.1v-38.5c-2.5,0.3-4.8,1-6.9,2.1
				s-3.9,2.5-5.4,4.2c-1.5,1.7-2.7,3.6-3.6,5.8C80.4,581.6,80,584,80,586.5z M119.7,586.5c0-2.5-0.4-4.9-1.3-7
				c-0.9-2.2-2-4.1-3.6-5.8c-1.5-1.7-3.3-3.1-5.4-4.2s-4.4-1.8-6.9-2.1v38.5c2.5-0.3,4.8-1,6.9-2.1s3.9-2.5,5.4-4.2
				c1.5-1.7,2.7-3.7,3.6-5.9S119.7,589,119.7,586.5z"/>
		</g>
		<line class="st8" x1="99.8" y1="632.8" x2="99.8" y2="612"/>
	</g>
	<g>
		<g>
			<path d="M132.5,683.3c-0.3-0.2-0.8-0.4-1-0.5c-0.4-0.1-0.4-0.2,0.4-0.7c1.1-0.7,1.4-1.2,0.9-2.3c-0.4-1.1-1.4-1.7-2.5-1.4
				c-0.9,0.2-1.4,0.6-1.6,1.5c-0.1,0.6-0.1,0.7,0.7,1.6c0.7,0.8,0.8,0.9,0.4,0.8c-0.8-0.3-1.4-0.8-1.9-1.8c-0.6-1.1-1.1-1.3-1.6-0.5
				c-0.4,0.6-0.5,3-0.2,3.7c0.3,0.7,0.7,0.9,3.5,1c1.9,0.1,2.5,0.1,2.9-0.1C133.2,684,133.2,683.7,132.5,683.3z"/>
			<path d="M130.1,675.6c-0.1-0.2-0.4-0.6-0.6-0.7c-0.2-0.1-2.2-0.4-4.6-0.6c-2.3-0.2-5.7-0.6-7.7-0.8c-2-0.2-5.4-0.6-7.7-0.8
				c-2.3-0.3-5.8-0.6-7.8-0.8c-17.9-2-18.4-2.1-19.7-3.2c-0.8-0.7-0.9-0.7-1.4-0.3c-0.6,0.6-0.8,1.3-0.6,2.7c0.1,0.8,0.1,1.4,0,1.5
				c-0.1,0.1-0.1,0.3,0,0.3c0.1,0.1,0,0.1-0.1,0c-0.7-0.4-1.2-2.6-1.1-4.5c0.1-1.6-0.1-1.9-1.1-1.5c-0.5,0.2-0.5,0.2-0.4-0.1
				c0.2-0.5-1.6-2.3-2.2-2.3c-0.8,0.1-0.8,1.3,0.1,2.3c0.5,0.6,0.5,0.6,0.1,0.7c-0.6,0.2-1.1,1.1-0.9,1.7c0.1,0.5,0.5,0.7,2,1
				c0.8,0.2,1.2,0.7,1,1.2c-0.1,0.2-0.2,0.2-0.7-0.3c-0.5-0.5-0.7-0.5-1.6-0.5c-0.8,0-1,0-1-0.2c0-0.1,0-0.9,0.1-1.7
				c0.1-1.6,0.2-1.4-1.2-2.5l-0.5-0.4l0.7-0.1c0.5,0,0.7-0.2,0.9-0.6c0.2-0.5,0.1-0.7-0.1-1c-0.3-0.4-2.4-1.3-3.2-1.3
				c-0.8,0-0.8,0.8,0,1.8c0.2,0.3,0.3,0.6,0.2,1l-0.1,0.6l-0.5-0.4c-0.9-0.8-1.3-1.1-1.5-0.9c-0.4,0.3-0.1,1.4,0.7,2.8
				c0.7,1.3,0.9,1.4,1.7,1.7c1.4,0.5,1.8,1,2.8,3.3c0.8,1.9,1,2.1,1.5,2.3c0.5,0.2,0.6,0.3,0.6,0.6c-0.1,1.2,1.5,2.7,3,2.8
				c0.8,0.1,1.2-0.2,1.7-1c0.3-0.6,0-1.2-1.2-2.5c-1.1-1.1-1.5-1.2-2.3-0.8l-0.5,0.3l0.4-0.6c0.4-0.7,1-0.7,1.9,0
				c0.3,0.3,0.9,0.7,1.3,1c0.3,0.3,0.8,0.7,1.1,0.9c0.6,0.6,1.1,0.5,1.7-0.1c0.5-0.5,0.6-0.5,2.4-0.4c1.7,0.1,6.9,0.8,16.2,2
				c2,0.3,4.2,0.6,4.7,0.7c0.5,0.1,3.9,0.6,7.4,1.2c3.6,0.6,6.7,1.1,7,1.2c0.8,0.2,1.4,0.7,2.4,1.6c1.3,1.3,1.6,1.2,1.6-0.6l0-1.4
				l1.4-1.1c0.8-0.6,1.6-1.1,1.7-1s0.6-0.1,1.1-0.2C130,677.6,130.6,676.6,130.1,675.6z"/>
			<path d="M69.5,658.6c-1.2-2.6-1.7-2.8-0.9-0.3l0.4,1.2l-0.8,0.4c-0.7,0.3-0.8,0.5-0.8,1c0,0.3,0.1,1,0.3,1.4
				c0.3,0.8,0.3,0.8,0,0.5c-0.4-0.4-0.7-0.4-0.9,0c-0.2,0.5,0.1,1.2,0.6,1.6c0.6,0.5,0.7,0.4,0.7-0.4c0-0.7,0.3-0.9,0.5-0.2
				c0.1,0.4,0.4,0.2,0.9-0.6c0.5-0.8,0.6-1.4,0.3-1.8c-0.2-0.2-0.1-0.2,0.1-0.3C70.4,660.9,70.3,660.3,69.5,658.6z"/>
			<path d="M67.8,657.8c-0.3-0.4-0.3-0.4-0.6,0c-0.4,0.4-0.5,1.5-0.1,1.8c0.2,0.2,0.3,0.1,0.6-0.2C68.1,658.9,68.1,658.3,67.8,657.8
				z"/>
			<path d="M67.3,656.3c-0.1-0.1-0.4,0-0.5,0.1c-0.3,0.3-0.1,0.8,0.4,0.8C67.6,657.2,67.8,656.5,67.3,656.3z"/>
		</g>
		<path class="st9" d="M109.5,667.5c-0.5,0.1-0.7,0.6-0.6,1.1c0,0.1,0.3,0.4,0.3,0.4c0,0,0-0.1,0-0.1c-0.1-0.2,0-0.4,0.1-0.5
			c0.1-0.2,0.4-0.3,0.7-0.2c0.3,0.1,0.4,0.4,0.3,0.7c-0.3,0.7-1.3,1.1-2.9,1.2c-0.4,0-1.2-0.1-1.4-0.1l-0.1,0l0.2-0.1
			c0.4-0.1,0.7-0.4,0.8-0.7c0.1-0.1,0.1-0.2,0.1-0.4c0-0.2,0-0.3,0-0.5c-0.2-0.5-0.7-0.7-1.1-0.5c-0.2,0.1-0.4,0.3-0.5,0.5
			c0,0.2,0,0.4,0,0.5c0,0,0,0,0.1-0.1c0-0.3,0.3-0.5,0.6-0.5c0.2,0,0.3,0.1,0.4,0.3c0.2,0.3-0.2,0.8-0.6,1c-0.7,0.2-1.9-0.1-2.3-0.7
			c-0.2-0.2-0.2-0.5-0.2-0.7c0.1-0.5,0.7-0.7,1.1-0.4c0.2,0.1,0.2,0.5,0.1,0.6c-0.2,0.1-0.4,0-0.4-0.2c0-0.1,0-0.2-0.1-0.1
			c-0.3,0.2-0.2,0.6,0.2,0.7c0.5,0.2,0.9-0.2,0.9-0.7c0-0.3-0.2-0.5-0.5-0.7c-0.1-0.1-0.2-0.1-0.4-0.1c-0.2,0-0.3,0-0.5,0
			c-0.6,0.2-0.9,0.9-0.6,1.4c0,0,0,0.1,0,0.1c0,0-0.3-0.3-0.8-0.7c-0.8-0.8-1.1-1-1.5-1.2c-0.4-0.2-0.8-0.3-1.2-0.3
			c-0.9,0-1.7,0.2-3.5,1.1c-0.4,0.2-0.8,0.4-0.8,0.4c0,0,0-0.1,0.1-0.1c0.3-0.4,0.4-0.9,0.3-1.3c-0.1-0.2-0.2-0.4-0.4-0.6
			c-0.2-0.1-0.6-0.2-0.8-0.1c-0.5,0.2-0.7,0.7-0.5,1.1c0,0.1,0.1,0.2,0.1,0.2c0,0,0-0.1,0.1-0.1c0-0.2,0.2-0.5,0.4-0.5
			c0.1,0,0.4,0,0.5,0.1c0.3,0.2,0.4,0.6,0.2,1.1c-0.2,0.4-0.5,0.6-0.9,0.8c-0.6,0.2-1.5,0.3-2.2,0.1c-0.9-0.2-1.3-0.6-1.2-1.2
			c0.1-0.5,0.4-0.7,0.9-0.6c0.3,0,0.5,0.2,0.5,0.5c0,0.1,0,0.2-0.1,0.2c-0.1,0.1-0.1,0.1-0.2,0.1c-0.2,0-0.2-0.1-0.2-0.3
			c0-0.2,0-0.2-0.1-0.1c-0.2,0.2-0.1,0.5,0.1,0.7c0.6,0.4,1.2-0.2,1-0.9c-0.2-0.6-1-0.9-1.6-0.6c-0.3,0.1-0.6,0.5-0.6,0.8
			c0,0.3,0,0.6,0.2,0.8c0,0.1,0.1,0.1,0.1,0.1c0,0-0.2-0.1-0.4-0.2c-0.5-0.2-1-0.6-1.3-0.8c-0.3-0.3-0.7-0.7-0.8-1
			c-0.1-0.1-0.1-0.2-0.1-0.2c0,0,0.1,0.4,0.2,0.7c0.2,0.4,0.6,0.9,1.1,1.3c0.4,0.3,1.2,0.7,1.8,0.9c0.5,0.2,1.3,0.3,1.9,0.3
			c0.7,0,1.5-0.2,2.6-0.6c1-0.4,1.7-0.2,1.9,0.4c0.1,0.5-0.1,0.9-0.5,1c-0.3,0-0.5-0.1-0.6-0.3c-0.1-0.2,0.1-0.4,0.3-0.4
			c0.1,0,0.1,0,0.2,0.2l0.1,0.1l0-0.1c0-0.3-0.2-0.6-0.6-0.6c-0.3,0-0.4,0.2-0.5,0.5c-0.1,0.3,0.1,0.7,0.5,0.8
			c0.2,0.1,0.6,0.2,0.8,0.1c0.2-0.1,0.5-0.2,0.6-0.4c0.1-0.1,0.1-0.2,0.2-0.4c0-0.2,0-0.3,0-0.5c-0.1-0.3-0.3-0.5-0.5-0.7
			c-0.2-0.1-0.2-0.1-0.5-0.2c-0.2,0-0.3,0-0.3-0.1c0,0,0.7-0.3,1.1-0.4c1.5-0.5,2.8-0.4,3.3,0.3c0.3,0.4,0.4,0.8,0.3,1.2
			c-0.1,0.4-0.2,0.6-0.5,0.7c-0.3,0.2-0.8,0.2-1,0c-0.4-0.2-0.3-0.7,0-1c0.2-0.1,0.3-0.1,0.6,0c0.1,0,0.1,0,0-0.1
			c-0.4-0.5-1.2-0.4-1.5,0.1c-0.1,0.3-0.2,0.6-0.1,0.9c0.2,0.6,0.9,1,1.7,0.9c0.5-0.1,0.9-0.3,1.2-0.8c0.3-0.4,0.4-0.9,0.3-1.2
			c0,0,0-0.1,0-0.1c0,0,0.1,0.1,0.2,0.3c0.8,0.8,1.7,1.4,2.9,1.7c1,0.3,2,0.3,3.7,0.1c0.8-0.1,1.1-0.1,1.4,0
			c0.6,0.2,0.9,0.5,0.8,0.9c0,0.2-0.1,0.3-0.3,0.4c-0.2,0.1-0.5,0.1-0.6-0.1c-0.1-0.1-0.1-0.3-0.1-0.4c0-0.1,0-0.1,0-0.1
			c0,0-0.1,0.1-0.2,0.2c-0.1,0.3,0,0.6,0.3,0.8c0.2,0.1,0.2,0.1,0.4,0.1c0.3,0,0.7-0.1,0.9-0.4c0.1-0.1,0.1-0.2,0.1-0.4
			c0-0.2,0-0.3,0-0.5c0-0.1-0.1-0.3-0.2-0.3c-0.2-0.2-0.5-0.4-0.7-0.4c-0.1,0-0.1,0-0.1-0.1c0,0,0.9-0.2,1.3-0.3
			c0.6-0.1,1.3-0.2,1.9-0.2c0.5,0,0.6,0,1.3,0.1l0.8,0.1l-0.1-0.1c-0.1-0.1-0.4-0.3-0.6-0.4c-0.1-0.1-0.3-0.1-0.7-0.2
			c-0.5-0.1-0.5-0.1-0.9,0c-0.6,0.1-1.1,0.2-2.1,0.4c-1.1,0.3-1,0.3-0.8,0.1c0.3-0.3,0.5-0.7,0.5-1.1c0-0.4-0.2-0.7-0.5-0.9
			c-0.2-0.1-0.2-0.1-0.4-0.1C109.7,667.4,109.6,667.4,109.5,667.5z"/>
		<path class="st9" d="M107.7,683.9c0.2,0,0.3,0,0.5,0c0.4-0.1,0.6-0.4,0.7-0.7c0.1-0.4,0-0.8-0.2-1.2c-0.1-0.2-0.2-0.2,0.8,0.3
			c0.9,0.5,1.3,0.8,1.8,1c0.4,0.1,0.4,0.2,0.9,0.2c0.4,0.1,0.6,0.1,0.7,0c0.2,0,0.6-0.2,0.7-0.2l0.1-0.1l-0.8-0.1
			c-0.7-0.1-0.8-0.1-1.3-0.3c-0.5-0.2-1.2-0.4-1.8-0.7c-0.4-0.2-1.2-0.6-1.2-0.6c0,0,0.1,0,0.1,0c0.2,0,0.6-0.1,0.8-0.2
			c0.1-0.1,0.2-0.2,0.3-0.3c0.1-0.2,0.1-0.2,0.2-0.4c0-0.2,0-0.3,0-0.4c-0.1-0.3-0.4-0.5-0.7-0.6c-0.2,0-0.2,0-0.4,0
			c-0.4,0.1-0.6,0.4-0.5,0.7c0,0.2,0.1,0.3,0.1,0.3c0,0,0-0.1,0-0.1c0-0.1,0.1-0.3,0.2-0.4c0.2-0.1,0.4-0.1,0.6,0.1
			c0.1,0.1,0.2,0.3,0.1,0.4c-0.1,0.4-0.4,0.6-1,0.6c-0.3,0-0.6-0.1-1.3-0.4c-1.6-0.6-2.5-0.9-3.6-0.9c-1.2,0-2.3,0.3-3.2,0.9
			c-0.2,0.1-0.3,0.2-0.3,0.2c0,0,0,0,0-0.1c0.1-0.3,0.1-0.8,0-1.2c-0.2-0.5-0.5-0.8-1-1.1c-0.7-0.3-1.5-0.1-1.9,0.4
			c-0.2,0.3-0.3,0.6-0.2,0.9c0.1,0.6,0.8,0.9,1.4,0.5c0.1-0.1,0.1-0.1,0-0.1c-0.3,0-0.5,0-0.6-0.2c-0.3-0.3-0.2-0.8,0.3-1
			c0.3-0.1,0.7,0,1,0.3c0.2,0.2,0.3,0.4,0.2,0.8c0,0.4-0.3,0.8-0.6,1.1c-0.7,0.5-1.9,0.2-3.2-0.6c-0.3-0.2-0.9-0.7-0.9-0.7
			c0,0,0.1,0,0.3,0c0.3,0,0.3,0,0.5,0c0.3-0.1,0.6-0.3,0.7-0.5c0.1-0.2,0.1-0.2,0.2-0.5c0-0.2,0-0.3,0-0.5c-0.1-0.2-0.3-0.4-0.4-0.6
			c-0.2-0.1-0.6-0.2-0.8-0.1c-0.4,0.1-0.7,0.4-0.7,0.7c0,0.3,0.1,0.5,0.3,0.6c0.3,0.1,0.7-0.1,0.7-0.4l0-0.1l-0.1,0.1
			c-0.1,0.1-0.1,0.1-0.2,0.1c-0.2,0-0.3-0.2-0.2-0.4c0.1-0.2,0.4-0.2,0.7-0.1c0.4,0.2,0.5,0.7,0.2,1.1c-0.4,0.6-1.1,0.5-1.9-0.1
			c-1-0.7-1.6-1.1-2.3-1.3c-0.5-0.2-1.3-0.3-1.9-0.3c-0.7,0-1.5,0.2-2,0.4c-0.6,0.2-1.2,0.6-1.4,0.9c-0.2,0.2-0.4,0.6-0.4,0.6
			c0,0,0.1-0.1,0.2-0.2c0.2-0.2,0.7-0.6,1.1-0.7c0.4-0.2,1-0.4,1.5-0.5c0.2,0,0.4-0.1,0.4-0.1c0,0,0,0.1-0.1,0.1
			c-0.2,0.2-0.4,0.5-0.4,0.8c0,0.3,0.1,0.7,0.3,0.9c0.5,0.4,1.4,0.4,1.7-0.1c0.4-0.6,0-1.3-0.7-1.1c-0.3,0.1-0.4,0.4-0.3,0.6
			c0.1,0.2,0.1,0.1,0.1,0c0-0.2,0.1-0.3,0.3-0.3c0.1,0,0.1,0,0.2,0.1c0.1,0.1,0.1,0.1,0,0.2c-0.1,0.3-0.3,0.4-0.6,0.4
			c-0.5-0.1-0.7-0.4-0.6-0.9c0.1-0.6,0.6-0.9,1.5-0.8c0.7,0,1.5,0.3,2,0.7c0.4,0.3,0.6,0.6,0.7,1c0.1,0.5-0.2,0.9-0.5,1
			c-0.1,0-0.4,0-0.5-0.1c-0.2-0.1-0.3-0.4-0.3-0.6c0-0.1,0-0.2,0-0.2c0,0-0.1,0.1-0.1,0.1c-0.3,0.4-0.3,0.9,0.2,1.2
			c0.2,0.1,0.6,0.2,0.8,0.1c0.2-0.1,0.5-0.2,0.6-0.4c0.2-0.3,0.3-0.9,0.1-1.3c0-0.1-0.1-0.2,0-0.1c0,0,0.3,0.3,0.7,0.6
			c1.5,1.3,2.2,1.7,3.1,2c0.4,0.1,0.8,0.1,1.3,0.1c0.5-0.1,0.9-0.2,1.8-0.8c0.6-0.3,1-0.5,0.9-0.5c0,0,0,0.1-0.1,0.1
			c-0.4,0.4-0.3,1.2,0.2,1.5c0.1,0.1,0.2,0.1,0.4,0.1c0.2,0,0.3,0,0.5,0c0.3-0.1,0.6-0.3,0.7-0.6c0.2-0.5-0.2-1-0.7-0.9
			c-0.4,0-0.6,0.4-0.4,0.7c0.1,0.1,0.1,0.1,0.1-0.1c0-0.2,0.3-0.3,0.4-0.1c0.1,0.1,0,0.4-0.2,0.5c-0.5,0.2-1-0.2-0.9-0.7
			c0-0.3,0.2-0.5,0.4-0.6c0.6-0.5,1.8-0.5,2.4-0.1c0.4,0.3,0.6,0.8,0.3,1.1c-0.1,0.1-0.3,0.2-0.5,0.2c-0.3,0-0.5-0.3-0.5-0.6
			c0-0.1,0-0.1,0-0.1c-0.1,0-0.2,0.3-0.2,0.5c0,0.2,0.1,0.5,0.3,0.6c0.4,0.3,1,0.2,1.3-0.2c0.1-0.1,0.1-0.2,0.2-0.4
			c0-0.2,0-0.3,0-0.4c-0.1-0.3-0.3-0.6-0.6-0.9l-0.1-0.1l0.2,0c0.2,0,1.1,0.2,1.4,0.3c1.6,0.5,2.4,1.1,2.5,1.9
			c0,0.3-0.2,0.6-0.5,0.6c-0.3,0-0.5-0.1-0.6-0.4c0-0.2,0-0.4,0.1-0.5c0-0.1,0.1-0.1,0.1-0.1c0,0-0.3,0.2-0.4,0.3
			c-0.3,0.4-0.2,0.9,0.3,1.2C107.5,683.8,107.5,683.9,107.7,683.9z"/>
	</g>
	<g>
		<g>
			<path class="st10" d="M117.7,627.8c-0.3,0.3-0.5,0.9-0.5,1.4c0,0.3,0,0.3,0.2,0.7l0.2,0.4l0.3,0.2c0.2,0.2,0.3,0.3,0.6,0.4
				c0.3,0.1,0.8,0.2,0.9,0.1c0,0-0.1-0.1-0.1-0.2c-0.2-0.2-0.4-0.5-0.4-0.8c-0.1-0.6,0.4-1.2,1-1.2c0.6-0.1,1.5,0.2,2.3,0.7
				c0.5,0.3,1.1,0.7,1.8,1.4c0.4,0.3,0.7,0.6,0.8,0.6c0,0,0.1-0.1,0.1-0.2l0-0.2l-0.5-0.5c-0.8-0.8-2-1.8-2.5-2.1
				c-1.2-0.8-2.2-1.2-3.1-1.1C118.4,627.4,117.9,627.6,117.7,627.8z"/>
			<path class="st10" d="M127.2,626.7c-0.4,0.3-1,0.9-1.3,1.5c-0.3,0.5-0.4,0.9-0.6,1.7c-0.1,0.4-0.3,1.1-0.4,1.6
				c-0.3,1.2-0.6,1.9-1,2.5c-0.3,0.5-0.8,0.9-1.2,1.1l-0.2,0.1l0-0.2c0-0.3-0.1-0.6-0.2-0.9c-0.4-0.9-1.2-1.5-2.1-1.5
				c-0.5,0-0.7,0-1.2,0.3c-0.6,0.3-0.9,0.7-1.2,1.3c-0.3,0.6-0.4,1.5-0.2,2.2c0.2,0.8,0.5,1.5,1.1,2.1c0.2,0.2,0.3,0.3,0.3,0.3
				c0,0-0.1,0-0.3,0c-0.7-0.2-1.8-0.3-2.3-0.4c-1.3-0.1-2.1,0-2.9,0.5c-0.9,0.5-1.4,1.5-1.2,2.4c0,0.2,0.1,0.3,0.2,0.6
				c0.2,0.4,0.4,0.6,0.8,0.8c1,0.4,1.8-0.1,1.8-1.2c0-0.3,0-0.3-0.1-0.3c-0.3,0.3-0.3,0.3-0.5,0.3c-0.5,0.1-1.1-0.4-1.1-1.1
				c0-0.2,0.1-0.6,0.2-0.8c0.1-0.1,0.2-0.2,0.7-0.4c0.5-0.2,0.6-0.3,0.8-0.3c0.9-0.1,1.7-0.1,3.3,0.3c1.1,0.3,1.5,0.3,2.2,0.4
				c0.7,0.1,1.2,0.1,1.7,0c0.2,0,0.4-0.1,0.9-0.4c0.7-0.4,1-0.6,1.5-1.1c0.7-0.8,1-1.6,1.7-3.6c0.1-0.4,0.3-0.8,0.3-0.9l0-0.1
				l-0.2-0.2c-0.1-0.1-0.2-0.2-0.3-0.1s-0.2,0.5-0.4,1c-0.8,2.2-1.3,3-2.1,3.8c-0.3,0.3-1.2,0.7-1.6,0.8c-1.4,0.3-2.7-0.3-3.3-1.6
				c-0.2-0.4-0.3-0.8-0.4-1.2c-0.1-0.9,0.2-1.6,0.8-1.9c0.3-0.2,0.5-0.2,0.8-0.1c0.3,0.1,0.7,0.5,0.8,0.9c0.1,0.3,0,0.6-0.2,0.8
				c-0.2,0.2-0.5,0.3-0.8,0.3c-0.1,0-0.2,0-0.2,0c0,0.1,0.4,0.4,0.7,0.5c0.5,0.2,1.1,0.2,1.9-0.3c0.9-0.5,1.5-1,2.1-1.9
				c0.6-0.9,1-2.1,1.5-4.1c0.2-0.9,0.4-1.3,0.7-1.8c0.5-0.7,1.2-1.3,1.9-1.6c0.9-0.3,1.8-0.2,2.6,0.4c1,0.7,1.8,2.2,2,3.5
				c0.1,0.8-0.1,1.6-0.6,2.1c-0.2,0.2-0.7,0.4-0.9,0.4c-0.5,0-0.8-0.2-1-0.6c-0.1-0.1-0.1-0.3-0.1-0.4c0-0.2,0.1-0.6,0.2-0.7
				c0.1-0.1,0.4-0.3,0.6-0.2c0.3,0,0.7,0.2,0.8,0.5c0.1,0.2,0.2,0.2,0.2,0c0.2-0.6-0.3-1.4-1.1-1.8c-0.5-0.2-1-0.3-1.5-0.2
				c-0.8,0.1-1.6,0.6-2.2,1.3c-0.2,0.3-0.8,1.3-0.8,1.4c0,0,0.4,0.4,0.5,0.3c0,0,0.1-0.1,0.1-0.2c0.4-0.7,0.9-1.3,1.4-1.6l0.3-0.2
				l-0.1,0.2c-0.1,0.4-0.1,0.9,0,1.3c0.1,0.3,0.4,0.9,0.6,1.2c0.1,0.1,0.2,0.3,0.3,0.3c0.1,0.1,0.1,0.1,0.1,0.1c0,0-0.4,0-0.7-0.1
				c-1.1-0.2-1.8-0.6-3-1.6c-0.2-0.2-0.4-0.3-0.4-0.3c0,0-0.1,0.1-0.1,0.2l-0.1,0.2l0.4,0.3c1.4,1.2,3,1.9,4.6,2
				c1.3,0.1,2.3-0.2,3-0.9c0.2-0.2,0.6-0.7,0.7-1.1c0.3-0.7,0.4-1.4,0.4-3.4c0.1-2,0.1-2.3,0.4-2.8c0.3-0.5,0.9-0.6,1.3-0.4
				c0.3,0.2,0.3,0.2,0.3,0c0.1-0.5-0.4-1.1-0.9-1.3c-0.3-0.1-0.5-0.1-0.8-0.1c-0.3,0.1-0.4,0.1-0.7,0.3c-0.4,0.4-0.7,0.8-0.9,1.4
				c-0.1,0.5-0.1,0.8-0.1,1.4l0,0.5l-0.2-0.3c-1.2-1.6-3-2.4-4.7-2.1C128.3,626.1,127.5,626.5,127.2,626.7z"/>
		</g>
		<g>
			<g>
				<path class="st10" d="M80.9,627.4c-0.9-0.1-1.9,0.3-3.1,1.1c-0.5,0.3-1.7,1.3-2.5,2.1l-0.5,0.5l0,0.2c0,0.1,0.1,0.2,0.1,0.2
					c0,0,0.4-0.3,0.8-0.6c0.7-0.6,1.3-1.1,1.8-1.4c0.8-0.5,1.7-0.7,2.3-0.7c0.6,0.1,1.1,0.7,1,1.2c0,0.2-0.2,0.6-0.4,0.8
					c-0.1,0.1-0.1,0.1-0.1,0.2c0,0.1,0.6,0,0.9-0.1c0.2-0.1,0.4-0.2,0.6-0.4l0.3-0.2l0.2-0.4c0.2-0.4,0.2-0.4,0.2-0.7
					c0-0.5-0.2-1-0.5-1.4C81.8,627.6,81.3,627.4,80.9,627.4z"/>
				<path class="st10" d="M71.1,626.1c-1.7-0.4-3.5,0.4-4.7,2.1l-0.2,0.3l0-0.5c0.1-0.6,0-1-0.1-1.4c-0.1-0.6-0.4-1.1-0.9-1.4
					c-0.3-0.2-0.4-0.3-0.7-0.3c-0.3-0.1-0.5,0-0.8,0.1c-0.6,0.2-1,0.8-0.9,1.3c0,0.2,0,0.2,0.3,0c0.4-0.3,1-0.1,1.3,0.4
					c0.3,0.5,0.3,0.8,0.4,2.8c0.1,2,0.2,2.7,0.4,3.4c0.2,0.4,0.5,0.9,0.7,1.1c0.7,0.7,1.7,1,3,0.9c1.6-0.1,3.2-0.8,4.6-2l0.4-0.3
					l-0.1-0.2c0-0.1-0.1-0.2-0.1-0.2c0,0-0.2,0.2-0.4,0.3c-1.2,1-1.9,1.4-3,1.6c-0.4,0.1-0.7,0.1-0.7,0.1c0,0,0.1-0.1,0.1-0.1
					c0.1-0.1,0.2-0.2,0.3-0.3c0.2-0.3,0.5-0.8,0.6-1.2c0.1-0.4,0.1-1,0-1.3l-0.1-0.2L71,631c0.5,0.3,1,0.9,1.4,1.6
					c0.1,0.1,0.1,0.2,0.1,0.2c0,0,0.5-0.3,0.5-0.3c0-0.1-0.6-1.1-0.8-1.4c-0.5-0.7-1.4-1.2-2.2-1.3c-0.5-0.1-1,0-1.5,0.2
					c-0.8,0.3-1.2,1.1-1.1,1.8c0.1,0.2,0.1,0.2,0.2,0c0.1-0.3,0.5-0.5,0.8-0.5c0.2,0,0.5,0.1,0.6,0.2c0.1,0.1,0.2,0.5,0.2,0.7
					c0,0.1,0,0.2-0.1,0.4c-0.2,0.4-0.5,0.6-1,0.6c-0.3,0-0.8-0.2-0.9-0.4c-0.4-0.5-0.7-1.3-0.6-2.1c0.2-1.3,1-2.8,2-3.5
					c0.8-0.6,1.6-0.7,2.6-0.4c0.7,0.2,1.4,0.8,1.9,1.6c0.3,0.5,0.5,0.9,0.7,1.8c0.5,2,0.9,3.2,1.5,4.1c0.6,0.9,1.1,1.5,2.1,1.9
					c0.8,0.4,1.4,0.5,1.9,0.3c0.2-0.1,0.7-0.4,0.7-0.5c0,0-0.1,0-0.2,0c-0.2,0-0.6-0.1-0.8-0.3c-0.2-0.2-0.3-0.5-0.2-0.8
					c0.1-0.4,0.4-0.8,0.8-0.9c0.3-0.1,0.5-0.1,0.8,0.1c0.6,0.3,0.9,1,0.8,1.9c0,0.4-0.1,0.8-0.4,1.2c-0.7,1.3-1.9,1.9-3.3,1.6
					c-0.4-0.1-1.3-0.5-1.6-0.8c-0.8-0.7-1.3-1.6-2.1-3.8c-0.2-0.6-0.4-1-0.4-1s-0.1,0.1-0.3,0.1l-0.2,0.2l0,0.1
					c0,0.1,0.2,0.5,0.3,0.9c0.7,2.1,1.1,2.8,1.7,3.6c0.5,0.6,0.7,0.8,1.5,1.1c0.5,0.3,0.7,0.3,0.9,0.4c0.5,0.1,0.9,0.1,1.7,0
					c0.8-0.1,1.1-0.1,2.2-0.4c1.7-0.4,2.4-0.5,3.3-0.3c0.3,0,0.4,0.1,0.8,0.3c0.5,0.2,0.5,0.3,0.7,0.4c0.1,0.2,0.3,0.5,0.2,0.8
					c0,0.6-0.6,1.2-1.1,1.1c-0.2,0-0.2-0.1-0.5-0.3c-0.1-0.1-0.1,0-0.1,0.3c0,1.1,0.8,1.6,1.8,1.2c0.4-0.2,0.6-0.4,0.8-0.8
					c0.2-0.3,0.2-0.4,0.2-0.6c0.2-0.9-0.3-1.9-1.2-2.4c-0.8-0.4-1.6-0.6-2.9-0.5c-0.5,0.1-1.6,0.2-2.3,0.4c-0.2,0-0.3,0.1-0.3,0
					c0,0,0.1-0.2,0.3-0.3c0.6-0.6,0.9-1.3,1.1-2.1c0.2-0.8,0.1-1.6-0.2-2.2c-0.3-0.6-0.6-0.9-1.2-1.3c-0.5-0.3-0.8-0.3-1.2-0.3
					c-0.9,0.1-1.7,0.6-2.1,1.5c-0.2,0.4-0.2,0.6-0.2,0.9l0,0.2l-0.2-0.1c-0.4-0.2-0.9-0.7-1.2-1.1c-0.4-0.6-0.7-1.3-1-2.5
					c-0.1-0.5-0.3-1.2-0.4-1.6c-0.2-0.8-0.4-1.2-0.6-1.7c-0.3-0.5-0.8-1.2-1.3-1.5C72.2,626.5,71.4,626.1,71.1,626.1z"/>
			</g>
		</g>
	</g>
	<g transform="translate(0.000000,640.000000) scale(0.100000,-0.100000)">
		<path d="M997.3-223.2c1-0.1,12,0.4,15.5,0.6c18.5,1.4,36.8,4.7,56.1,10.3c6.5,1.9,17.3,5.4,23.5,7.8l2,0.8l0.1,6.6l0.1,6.6
			l2.6,0.9c10.9,3.8,20.3,9.4,28.4,16.9l1.6,1.5l-0.8,0.7c-1.3,1.1-3.5,2.5-7.1,4.5c-3.8,2.1-6,3.4-6,3.6c0,0.1,0.4,0.5,0.8,1.1
			c2.4,2.8,5.7,8.4,7.6,12.8c2.6,6.3,4.7,14,6.5,24.3l0.1,0.8l-0.6-0.4c-0.3-0.2-2.7-2.3-5.1-4.7c-2.5-2.4-5.3-4.9-6.2-5.7
			c-8-6.8-18.7-12-30.1-14.8c-2.3-0.5-6.5-1.5-6.8-1.5c0,0-0.1-3.2-0.1-7.1v-7.1l-3.7-1.2c-11-3.5-22-6.3-32.9-8.5
			c-10.7-2.2-19.9-3.5-29.2-4.3c-5.1-0.4-21.6-0.5-27.1-0.1c-21.8,1.6-42.1,5.6-65.3,12.8l-4,1.3v7.1c0,3.9-0.1,7.1-0.1,7.1
			c-0.5,0-7.3,1.5-9.5,2.1c-8,2.3-16.2,6-22.5,10.4c-3.1,2.1-5.9,4.5-10.7,9c-4.7,4.4-5.8,5.4-6,5.2c-0.1-0.1,0.6-4,1.5-8.2
			c2-9.1,4.2-15.6,7.3-21.5c1.4-2.7,3.8-6.3,5.2-8c0.4-0.5,0.8-1,0.8-1c0-0.1-1.1-0.7-7.7-4.5c-2.8-1.6-6.1-3.8-6.1-4.2
			c0-0.4,5-4.7,8.5-7.2c6.7-4.9,13.9-8.6,21.7-11.3l2.4-0.8l0.1-6.6l0.1-6.6l2-0.8c1.1-0.4,4.3-1.5,7-2.5
			c27.9-9.7,55.2-15.1,81.3-16C995-223.1,997.1-223.2,997.3-223.2z"/>
	</g>
	<g transform="translate(0.000000,640.000000) scale(0.100000,-0.100000)">
		<path d="M995.4-473c-13.9-0.5-28.6-3.4-43.5-8.6c-1.5-0.5-3.2-1.1-3.8-1.3l-1.1-0.4l-0.1-3.5l-0.1-3.5l-1.3-0.4
			c-4.2-1.4-8-3.4-11.6-6c-1.9-1.4-4.5-3.6-4.5-3.9c0-0.2,1.8-1.4,3.3-2.2c3.5-2,4.1-2.4,4.1-2.4c0,0-0.2-0.3-0.4-0.6
			c-0.8-0.9-2-2.8-2.8-4.3c-1.7-3.2-2.9-6.7-3.9-11.5c-0.5-2.2-0.9-4.3-0.8-4.4c0.1-0.1,0.7,0.4,3.2,2.8c2.5,2.4,4,3.7,5.7,4.8
			c3.4,2.3,7.8,4.3,12.1,5.6c1.2,0.3,4.8,1.1,5.1,1.1c0,0,0.1,1.7,0.1,3.8v3.8l2.2,0.7c12.4,3.9,23.3,6,34.9,6.9
			c3,0.2,11.8,0.2,14.5-0.1c5-0.4,9.9-1.1,15.6-2.3c5.8-1.2,11.7-2.7,17.6-4.6l2-0.6v-3.8c0-2.1,0-3.8,0-3.8c0.2,0,2.4-0.5,3.7-0.8
			c6.1-1.5,11.8-4.3,16.1-7.9c0.5-0.4,2-1.8,3.3-3.1s2.6-2.4,2.8-2.5l0.3-0.2l-0.1,0.4c-1,5.5-2.1,9.6-3.5,13c-1,2.4-2.7,5.4-4,6.9
			c-0.2,0.3-0.4,0.5-0.4,0.6c0,0.1,1.2,0.8,3.2,1.9c2,1.1,3.1,1.8,3.8,2.4l0.4,0.4l-0.9,0.8c-4.4,4-9.4,7-15.2,9l-1.4,0.5l-0.1,3.5
			l-0.1,3.5l-1.1,0.4c-3.3,1.2-9.1,3.2-12.6,4.2c-10.3,3-20.1,4.8-30,5.5c-1.9,0.1-7.8,0.4-8.3,0.3C997.7-472.9,996.6-473,995.4-473
			z"/>
	</g>
	<g>
		<path d="M92.4,643l6,1.8l1.4-5.9h0.1l1.4,5.9l6.1-1.8l0,0.1l-4.7,4.2l4.7,4.1l0,0.1l-6.1-1.8l-1.4,5.9h-0.1l-1.4-5.9l-6,1.8l0-0.1
			l4.7-4.1L92.4,643L92.4,643z"/>
	</g>
	<g>
		<path d="M97.5,693.4l1.9,0.6l0.4-1.8h0l0.4,1.8l1.9-0.6l0,0l-1.4,1.3l1.4,1.3l0,0l-1.9-0.5l-0.4,1.8h0l-0.4-1.8l-1.9,0.5l0,0
			l1.4-1.3L97.5,693.4L97.5,693.4z"/>
	</g>
	<g>
		<g>
			<path class="st0" d="M49.7,584.4c-0.1,0.1,0.1,1.6,0.4,2.5c0.8,2.9,3.2,5.6,6.2,6.8c1.7,0.7,3.7,1.1,5.2,1h0
				c0.3,0,1.2-0.1,1.8-0.2c1.7-0.2,1.9-0.2,2.7,0.1c0.4,0.1,0.7,0.3,0.8,0.3c0.2,0.1,0.3,0,0.4-0.2c0.1-0.1,0-0.2-0.8-0.6
				c-0.5-0.2-1.1-0.5-1.3-0.7c-0.7-0.4-1.4-0.7-1.9-0.7c-0.6-0.1-1.2,0.1-2.3,0.5c-1.1,0.4-2,0.6-2.9,0.7c-0.5,0-0.6,0-0.7-0.1
				c-0.1-0.1-0.1-0.1,0,0c0.2,0.1,1.3,0,1.9-0.1c0.3-0.1,1-0.3,1.6-0.5c1.1-0.5,1.7-0.6,2.3-0.6l0.4,0l-0.3-0.2
				c-0.2-0.1-0.7-0.3-1.1-0.5c-1.1-0.5-1.5-0.5-3.3-0.4c-1.3,0.1-1.5,0.1-2.7,0c-0.9-0.1-1.5-0.2-1.8-0.3c-0.3-0.1-0.7-0.2-0.9-0.3
				c-0.8-0.2-0.3-0.2,0.9,0.1c1.6,0.4,2.4,0.4,4.7,0.2c0.9-0.1,1.8-0.2,1.8-0.2c0.2-0.1,0-0.2-1-0.7c-1.3-0.6-1.7-0.7-3.5-0.7
				c-1.5,0-3.6-0.2-4.2-0.3c-0.2,0,0.4,0,1.3,0.1c0.8,0.1,1.9,0.1,2.3,0.1c1.6,0,2,0,2-0.1c0,0-0.4-0.3-0.8-0.6
				c-1.2-0.7-1.7-0.8-3.7-1c-0.9-0.1-1.7-0.1-1.7-0.2s0.7,0,1.6,0.1c1,0.1,1.8,0.1,1.8,0.1c0.1-0.1-0.9-0.7-1.8-1.1
				c-0.4-0.2-0.8-0.3-1.2-0.4c-1-0.2-1.3-0.3-0.5-0.2c0.4,0.1,0.6,0.1,0.7,0c0,0-0.3-0.3-0.7-0.6c-0.4-0.3-0.7-0.6-0.8-0.7
				c-0.1-0.2,0.1,0,1.1,0.8l0.6,0.5l0-0.3c0-0.1,0-0.4-0.1-0.5c0-0.1,0.1,0,0.2,0.3l0.2,0.5l1.4,0.8c0.9,0.5,1.5,0.8,1.5,0.7
				c0.1-0.1-0.1-0.6-0.7-1.8c-0.2-0.4-0.4-0.8-0.4-0.8c0-0.1,0.2,0.2,0.5,0.7c0.9,2,1.4,2.5,3.5,3.6c0.5,0.3,2.1,1,2.2,1
				c0,0-0.1-0.4-0.4-0.8c-0.2-0.5-0.5-1.3-0.7-1.8c-0.2-0.6-0.4-1.1-0.4-1.2c0-0.1-0.1-0.2,0-0.2c0.1,0,0.3,0.5,0.7,1.6
				c0.5,1.3,1.2,2.4,2,3c0.3,0.3,2.2,1.4,2.3,1.3c0,0-0.1-0.4-0.2-0.8c-0.2-0.8-0.3-1.6-0.2-1.6c0,0,0.1,0.2,0.1,0.4
				c0,0.2,0.2,0.7,0.3,1c0.2,0.7,0.6,1.2,1.3,1.7l0.3,0.2l0-0.2c0.1-0.6-0.3-2-0.8-2.8c-0.8-1.5-2.3-2.6-4.9-3.7
				c-1.9-0.8-3.4-1.3-5.7-1.6c-1.9-0.3-3.9-0.5-4.4-0.6C49.7,584.4,49.7,584.4,49.7,584.4z"/>
			<path id="XMLID_7_" class="st1" d="M74.3,600.7c-0.3-0.3-0.7-0.5-1.3-0.8c-0.5-0.2-1-0.4-1.5-0.6c-2-0.8-3-1.8-3.2-2.9
				c-0.1-1,0.3-1.6,1.4-1.7c1.3,1,2.1,1.9,2.3,2.8c-0.9-0.9-1.7-1.6-2.5-2c-0.5,0.1-0.7,0.3-0.6,0.8c0.1,1.1,1.7,2.1,4.6,3.2
				c0-0.3,0-0.6,0-0.9c-0.3-2.2-1.4-3.5-3.4-3.9c0.1-0.1,0.3-0.1,0.4-0.1c1-0.1,1.9,0.3,2.5,1.1c0.6,0.7,0.9,1.5,1,2.4
				C74.4,598.8,74.4,599.6,74.3,600.7z"/>
			<path id="XMLID_5_" class="st2" d="M52.8,607.9c0.7-0.6,1.3-1.4,1.8-2.5c0.4-0.9,0.9-1.9,1.3-2.8c2-3.8,4.3-5.8,6.8-6.1
				c2.4-0.2,3.7,0.7,4,2.8c-2.4,2.6-4.6,4.1-6.6,4.5c2.2-1.7,3.8-3.3,4.7-4.7c-0.2-0.9-0.8-1.3-1.9-1.2c-2.5,0.3-5,3.3-7.5,9
				c0.7,0.1,1.4,0.1,2.2,0c5.3-0.5,8.4-2.7,9.3-6.5c0.1,0.2,0.2,0.5,0.2,0.8c0.2,1.9-0.7,3.6-2.6,4.9c-1.6,1.1-3.5,1.8-5.7,2
				C57.4,608.2,55.4,608.1,52.8,607.9z"/>
		</g>
	</g>
	<g>
		<g>
			<g id="XMLID_13529_">
				<path id="XMLID_13530_" d="M71.9,563.8l-5.1,4l-1.2-6.2h-6.6l3.3-5.5l-5.1-4.1l6.2-2.2l-1.1-6.2l6.2,2.2l3.3-5.5l3.3,5.5
					l6.2-2.2l-1.1,6.2l6.2,2.2l-5.1,4.1l3.3,5.5h-6.6l-1.2,6.2L71.9,563.8z M71.9,562.9c2.4,0,4.4-0.8,6.1-2.4
					c1.7-1.6,2.5-3.5,2.5-5.8c0-2.3-0.8-4.2-2.5-5.8c-1.7-1.6-3.7-2.4-6.1-2.4c-2.4,0-4.4,0.8-6.1,2.4c-1.7,1.6-2.5,3.5-2.5,5.8
					c0,2.3,0.8,4.2,2.5,5.8C67.5,562.1,69.6,562.9,71.9,562.9z"/>
			</g>
			<g>
				<g id="XMLID_18_">
					<path id="XMLID_19_" d="M71.9,559.6l-2.6,2.1l-0.6-3.2h-3.4l1.7-2.8l-2.6-2.1l3.2-1.1l-0.6-3.2l3.2,1.1l1.7-2.8l1.7,2.8
						l3.2-1.1l-0.6,3.2l3.2,1.1l-2.6,2.1l1.7,2.8h-3.4l-0.6,3.2L71.9,559.6z M71.9,559.1c1.2,0,2.3-0.4,3.2-1.3
						c0.9-0.8,1.3-1.8,1.3-3c0-1.2-0.4-2.2-1.3-3c-0.9-0.8-1.9-1.3-3.2-1.3c-1.2,0-2.3,0.4-3.2,1.3s-1.3,1.8-1.3,3
						c0,1.2,0.4,2.2,1.3,3S70.7,559.1,71.9,559.1z"/>
				</g>
				<g id="XMLID_24_">
					<path id="XMLID_26_" d="M71.9,556.5l-0.9,0.7l-0.2-1.1h-1.2l0.6-1l-0.9-0.7l1.1-0.4l-0.2-1.1l1.1,0.4l0.6-1l0.6,1l1.1-0.4
						l-0.2,1.1l1.1,0.4l-0.9,0.7l0.6,1h-1.2l-0.2,1.1L71.9,556.5z M71.9,556.3c0.4,0,0.8-0.1,1.1-0.4s0.5-0.6,0.5-1
						c0-0.4-0.2-0.8-0.5-1s-0.7-0.4-1.1-0.4s-0.8,0.1-1.1,0.4s-0.5,0.6-0.5,1c0,0.4,0.2,0.8,0.5,1C71.2,556.2,71.5,556.3,71.9,556.3
						z"/>
				</g>
			</g>
		</g>
		<g>
			<g id="XMLID_36_">
				<path id="XMLID_39_" d="M127.8,564.3l-5.1,4l-1.2-6.2h-6.6l3.3-5.5l-5.1-4.1l6.2-2.2l-1.1-6.2l6.2,2.2l3.3-5.5l3.3,5.5l6.2-2.2
					l-1.1,6.2l6.2,2.2l-5.1,4.1l3.3,5.5H134l-1.2,6.2L127.8,564.3z M127.8,563.3c2.4,0,4.4-0.8,6.1-2.4c1.7-1.6,2.5-3.5,2.5-5.8
					c0-2.3-0.8-4.2-2.5-5.8c-1.7-1.6-3.7-2.4-6.1-2.4s-4.4,0.8-6.1,2.4c-1.7,1.6-2.5,3.5-2.5,5.8c0,2.3,0.8,4.2,2.5,5.8
					S125.4,563.3,127.8,563.3z"/>
			</g>
			<g>
				<g id="XMLID_32_">
					<path id="XMLID_33_" d="M127.8,560.1l-2.6,2.1l-0.6-3.2h-3.4l1.7-2.8l-2.6-2.1l3.2-1.1l-0.6-3.2l3.2,1.1l1.7-2.8l1.7,2.8
						l3.2-1.1l-0.6,3.2l3.2,1.1l-2.6,2.1l1.7,2.8H131l-0.6,3.2L127.8,560.1z M127.8,559.6c1.2,0,2.3-0.4,3.2-1.3
						c0.9-0.8,1.3-1.8,1.3-3c0-1.2-0.4-2.2-1.3-3c-0.9-0.8-1.9-1.3-3.2-1.3c-1.2,0-2.3,0.4-3.2,1.3s-1.3,1.8-1.3,3
						c0,1.2,0.4,2.2,1.3,3C125.5,559.1,126.5,559.6,127.8,559.6z"/>
				</g>
				<g id="XMLID_9_">
					<path id="XMLID_11_" d="M127.8,556.9l-0.9,0.7l-0.2-1.1h-1.2l0.6-1l-0.9-0.7l1.1-0.4l-0.2-1.1l1.1,0.4l0.6-1l0.6,1l1.1-0.4
						l-0.2,1.1l1.1,0.4l-0.9,0.7l0.6,1h-1.2l-0.2,1.1L127.8,556.9z M127.8,556.7c0.4,0,0.8-0.1,1.1-0.4c0.3-0.3,0.5-0.6,0.5-1
						c0-0.4-0.2-0.8-0.5-1c-0.3-0.3-0.7-0.4-1.1-0.4s-0.8,0.1-1.1,0.4c-0.3,0.3-0.5,0.6-0.5,1c0,0.4,0.2,0.8,0.5,1
						C127,556.6,127.3,556.7,127.8,556.7z"/>
				</g>
			</g>
		</g>
	</g>
	<g id="XMLID_42_">
		<g id="XMLID_46_">
			<g>
				<path class="st11" d="M177.6,572.9c0.1,4.1-1.4,7.3-4.6,9.5c-2.5,1.8-5.5,2.7-8.9,2.7c-1.9,0-3.4-0.3-4.4-1
					c3.3,0,5.9-1.2,7.8-3.5c1.5-1.8,2.3-3.9,2.4-6.4c0.2-3.2-0.6-5.9-2.4-8.1c-1.8-2.2-4.4-3.4-7.8-3.5c1.2-0.8,2.9-1.1,5.1-1
					c3.1,0.1,5.8,1,8.3,2.7C175.9,566.4,177.5,569.3,177.6,572.9z M175.7,573.3c0-2.4-1-4.5-3-6.4c-1.7-1.7-3.9-2.8-6.5-3.5
					c3.5,2.1,5.3,5,5.4,8.6c0.4,4.9-1.4,8.6-5.4,11.1c2.6-0.7,4.7-1.8,6.3-3.3C174.7,577.9,175.7,575.7,175.7,573.3z"/>
				<path class="st11" d="M172.7,566.9c2,1.9,3,4,3,6.4c0,2.4-1.1,4.6-3.2,6.5c-1.6,1.6-3.7,2.7-6.3,3.3c4-2.5,5.8-6.2,5.4-11.1
					c-0.1-3.6-1.9-6.5-5.4-8.6C168.8,564.1,171,565.2,172.7,566.9z"/>
				<path class="st11" d="M35,561.6c2.2-0.1,3.9,0.2,5.1,1c-3.4,0.1-6,1.3-7.8,3.5c-1.8,2.2-2.6,4.9-2.4,8.1
					c0.1,2.5,0.9,4.6,2.4,6.4c1.9,2.3,4.5,3.5,7.8,3.5c-1.1,0.7-2.5,1-4.4,1c-3.4,0-6.3-0.9-8.9-2.7c-3.2-2.2-4.7-5.4-4.6-9.5
					c0.1-3.6,1.6-6.5,4.6-8.6C29.2,562.6,31.9,561.7,35,561.6z M28.4,572.1c0.1-3.6,2-6.5,5.6-8.6c-2.7,0.7-5,1.8-6.8,3.5
					c-2.1,1.9-3.1,4-3.1,6.4c0,2.4,1.1,4.6,3.3,6.5c1.7,1.6,3.9,2.7,6.6,3.3C29.9,580.7,28.1,577,28.4,572.1z"/>
				<path class="st11" d="M34.1,563.4c-3.6,2.1-5.5,5-5.6,8.6c-0.4,4.9,1.5,8.6,5.6,11.1c-2.7-0.6-4.9-1.8-6.6-3.3
					c-2.2-2-3.3-4.1-3.3-6.5c0-2.4,1-4.5,3.1-6.4C29.1,565.2,31.4,564.1,34.1,563.4z"/>
			</g>
			<g>
			</g>
		</g>
	</g>
</g>
</svg>
