<?xml version="1.0" encoding="utf-8"?>
<!-- Generator: Adobe Illustrator 19.0.0, SVG Export Plug-In . SVG Version: 6.00 Build 0)  -->
<svg version="1.1" xmlns="http://www.w3.org/2000/svg" xmlns:xlink="http://www.w3.org/1999/xlink" x="0px" y="0px"
	 viewBox="-234 360.4 141.9 72.6" style="enable-background:new -234 360.4 141.9 72.6;" xml:space="preserve">
<style type="text/css">
	.st0{display:none;}
	.st1{display:inline;fill:#231F20;}
	.st2{fill:#FFFFFF;}
	.st3{font-family:'CaslonAntique';}
	.st4{font-size:14.5984px;}
</style>
<g id="Layer_2" class="st0">
	<rect x="-238.7" y="353.4" class="st1" width="170.7" height="96.7"/>
</g>
<g id="Layer_1">
	<g id="XMLID_118_">
		<g id="XMLID_124_">
			<path id="XMLID_125_" class="st2" d="M-217.2,385c0-0.5,0.1-0.9,0.2-1.3c0.1-0.4,0.3-0.8,0.5-1.2s0.5-0.7,0.8-1
				c0.3-0.3,0.6-0.6,1-0.8c0.4-0.2,0.8-0.4,1.2-0.5c0.4-0.1,0.9-0.2,1.3-0.2c0.5,0,0.9,0.1,1.3,0.2c0.4,0.1,0.8,0.3,1.2,0.5
				c0.4,0.2,0.7,0.5,1,0.8c0.3,0.3,0.6,0.6,0.8,1c0.2,0.4,0.4,0.8,0.5,1.2c0.1,0.4,0.2,0.9,0.2,1.3c0,0.5-0.1,0.9-0.2,1.3
				c-0.1,0.4-0.3,0.8-0.5,1.2c-0.2,0.4-0.5,0.7-0.8,1c-0.3,0.3-0.6,0.6-1,0.8c-0.4,0.2-0.8,0.4-1.2,0.5c-0.4,0.1-0.9,0.2-1.3,0.2
				c-0.5,0-0.9-0.1-1.3-0.2s-0.8-0.3-1.2-0.5c-0.4-0.2-0.7-0.5-1-0.8c-0.3-0.3-0.6-0.6-0.8-1s-0.4-0.8-0.5-1.2
				S-217.2,385.5-217.2,385z"/>
		</g>
		<g id="XMLID_121_">
			<path id="XMLID_122_" class="st2" d="M-115.8,385c0-0.5,0.1-0.9,0.2-1.3c0.1-0.4,0.3-0.8,0.5-1.2s0.5-0.7,0.8-1
				c0.3-0.3,0.6-0.6,1-0.8c0.4-0.2,0.8-0.4,1.2-0.5c0.4-0.1,0.9-0.2,1.3-0.2s0.9,0.1,1.3,0.2c0.4,0.1,0.8,0.3,1.2,0.5
				c0.4,0.2,0.7,0.5,1,0.8c0.3,0.3,0.6,0.6,0.8,1c0.2,0.4,0.4,0.8,0.5,1.2c0.1,0.4,0.2,0.9,0.2,1.3c0,0.5-0.1,0.9-0.2,1.3
				c-0.1,0.4-0.3,0.8-0.5,1.2s-0.5,0.7-0.8,1c-0.3,0.3-0.6,0.6-1,0.8c-0.4,0.2-0.8,0.4-1.2,0.5c-0.4,0.1-0.9,0.2-1.3,0.2
				c-0.5,0-0.9-0.1-1.3-0.2s-0.8-0.3-1.2-0.5c-0.4-0.2-0.7-0.5-1-0.8c-0.3-0.3-0.6-0.6-0.8-1c-0.2-0.4-0.4-0.8-0.5-1.2
				C-115.8,385.9-115.8,385.5-115.8,385z"/>
		</g>
		<text id="XMLID_120_" transform="matrix(1 0 0 1 -183.1002 415.2857)" class="st2 st3 st4">Dispersal</text>
		<g id="XMLID_127_">
			<path id="XMLID_140_" class="st2" d="M-199.4,399.3c-0.5-0.3-1-0.5-1.6-0.7c-0.5-0.2-1.1-0.4-1.6-0.6c0,0,0-0.1-0.1-0.1h-0.1
				c-0.1,0-0.2-0.1-0.4-0.2c-0.2-0.1-0.4-0.2-0.6-0.4c-0.2-0.1-0.4-0.3-0.6-0.4c-0.2-0.1-0.3-0.2-0.3-0.2c-0.1-0.1-0.2-0.2-0.2-0.3
				c-0.1-0.1-0.1-0.3-0.1-0.4s0-0.2,0.1-0.4c0-0.1,0.1-0.3,0.1-0.4s0.1-0.3,0.1-0.4s0.1-0.3,0.1-0.4s0-0.3,0-0.5
				c0-0.2,0-0.5,0.1-0.7c0-0.3,0.1-0.5,0.1-0.8c0-0.3,0.1-0.5,0.2-0.8c0.1-0.2,0.1-0.4,0.2-0.6c0.1-0.1,0.2-0.2,0.3-0.2
				c0.2,0,0.3,0.1,0.4,0.2c0.1,0.1,0.2,0.3,0.3,0.4c0.1,0.2,0.1,0.4,0.2,0.5c0,0.2,0.1,0.3,0.1,0.4c0,0.2,0,0.4,0,0.6
				c0,0.2,0,0.5,0,0.8c0.1,0.3,0.2,0.7,0.3,1.1c0.2,0.4,0.4,0.8,0.6,1.2c0.2,0.4,0.5,0.7,0.8,1.1c0.3,0.3,0.6,0.5,1,0.6
				c0,0,0.1,0,0.2,0c0.1,0,0.2,0.1,0.3,0.1s0.2,0.1,0.3,0.1c0.1,0,0.2,0,0.2,0c0.9,0,1.6-0.2,2.3-0.6c0.7-0.4,1.3-0.9,1.9-1.5
				c0.1-0.1,0.2-0.3,0.3-0.5c0.1-0.2,0.1-0.4,0.2-0.6c0-0.2,0.1-0.5,0.1-0.7c0-0.2,0-0.5,0-0.7c0-0.5-0.1-0.9-0.2-1.2
				c-0.1-0.3-0.2-0.6-0.4-0.9s-0.4-0.5-0.6-0.8c-0.2-0.3-0.4-0.6-0.7-0.9c0,0-0.1-0.1-0.1-0.3s-0.2-0.3-0.3-0.5s-0.2-0.4-0.3-0.5
				c-0.1-0.2-0.1-0.3-0.2-0.3c-0.3-0.5-0.6-1-1-1.4c-0.4-0.5-0.7-0.9-1.1-1.4c-0.1-0.2-0.2-0.4-0.3-0.7c-0.1-0.3-0.2-0.6-0.2-0.9
				c-0.1-0.3-0.1-0.6-0.2-0.9c0-0.3-0.1-0.5-0.1-0.7c0-0.2,0-0.4,0-0.6c0-0.2,0.1-0.3,0.1-0.4c0-0.1,0.1-0.3,0.2-0.4
				c0.1-0.1,0.2-0.3,0.3-0.5c0.1-0.2,0.2-0.3,0.2-0.5c0.1-0.2,0.1-0.3,0.2-0.5c0-0.2,0.1-0.3,0.1-0.5c0-0.2,0.1-0.3,0.2-0.5
				c0.1-0.1,0.2-0.3,0.4-0.4c0.2-0.2,0.4-0.3,0.7-0.5c0.2-0.1,0.5-0.3,0.7-0.4c0.2-0.1,0.3-0.2,0.4-0.2l0.1-0.1
				c0.1,0,0.1-0.1,0.2-0.1c0.1,0,0.2-0.1,0.3-0.1c0.1,0,0.1-0.1,0.2-0.1c0.2,0,0.3,0,0.5,0s0.3,0,0.5,0c0.4,0,0.9,0,1.3,0.1
				c0.5,0.1,0.9,0.2,1.3,0.4c0.2,0,0.4,0.1,0.5,0.1c0.2,0.1,0.4,0.1,0.5,0.2c0.2,0.1,0.4,0.1,0.5,0.2c0.1,0.1,0.4,0.1,0.6,0.1
				l1.2-0.3c0.1,0,0.3,0.1,0.4,0.2c0.1,0.1,0.2,0.3,0.2,0.4c-0.2,0.3-0.3,0.7-0.5,1.2s-0.3,0.8-0.3,1.2c-0.1,0.2-0.1,0.4-0.1,0.6
				c0,0.2-0.1,0.4-0.1,0.6c0,0.2-0.1,0.5-0.1,0.8c0,0.3-0.1,0.6-0.1,1c-0.1,0-0.1,0-0.2,0c-0.1,0-0.1,0-0.2,0c-0.1,0-0.1,0-0.2-0.1
				c-0.1,0-0.2-0.1-0.3-0.1c0.3-0.3,0.2-0.5,0.2-0.8c-0.1-0.3-0.1-0.6-0.2-0.9c-0.1-0.3-0.1-0.6-0.2-0.8c-0.1-0.2-0.2-0.4-0.3-0.5
				c0,0-0.1,0-0.1-0.1l-0.1-0.1c0-0.1-0.1-0.1-0.1-0.1l-0.1-0.1c0,0,0-0.1-0.1-0.1c0-0.1-0.1-0.1-0.1-0.2s-0.1-0.1-0.1-0.2
				s-0.1-0.1-0.1-0.1c-0.1-0.1-0.2-0.2-0.4-0.3c-0.2-0.1-0.5-0.2-0.7-0.3c-0.3-0.1-0.5-0.2-0.7-0.3c-0.2-0.1-0.3-0.1-0.4-0.1h-0.1
				c-0.1,0-0.2,0-0.3,0.1s-0.2,0-0.3,0.1c-0.1,0-0.1,0-0.2,0l-1.4,0.1c-0.2,0.1-0.4,0.2-0.5,0.5c-0.1,0.3-0.2,0.5-0.3,0.8
				c-0.1,0.3-0.1,0.6-0.2,0.9c0,0.3,0,0.5,0,0.7v0.1c0,0.1,0,0.2,0,0.2c0,0.1,0,0.2,0,0.3s0,0.1,0,0.2c0.3,0.3,0.5,0.6,0.7,0.9
				c0.2,0.3,0.4,0.7,0.6,1c0.2,0.3,0.4,0.7,0.6,1c0.2,0.3,0.4,0.7,0.7,1c0,0,0.1,0.1,0.2,0.2c0.1,0.1,0.2,0.2,0.3,0.3
				c0.1,0.1,0.2,0.2,0.3,0.3c0.1,0.1,0.2,0.2,0.2,0.2c0.1,0.1,0.2,0.2,0.3,0.3c0.1,0.1,0.2,0.2,0.4,0.3c0.1,0.1,0.2,0.3,0.3,0.4
				c0.1,0.1,0.1,0.3,0.1,0.4c0.2,0.2,0.4,0.4,0.5,0.6c0.1,0.2,0.2,0.4,0.3,0.5c0.1,0.2,0.2,0.4,0.2,0.6c0.1,0.2,0.1,0.4,0.2,0.7
				l0.4,0.6c0,0.4,0,0.9,0,1.4s-0.1,0.9-0.2,1.4c-0.1,0.4-0.2,0.9-0.3,1.3c-0.2,0.4-0.4,0.8-0.6,1.2c-0.1,0.2-0.2,0.3-0.4,0.6
				c-0.1,0.2-0.3,0.4-0.5,0.6c-0.2,0.2-0.3,0.4-0.5,0.6c-0.2,0.2-0.4,0.3-0.5,0.4l-0.6-0.1c0,0-0.1,0-0.1,0.1
				c-0.1,0.1-0.1,0.1-0.2,0.2c-0.1,0.1-0.1,0.1-0.2,0.2c-0.1,0.1-0.1,0.1-0.1,0.1c-0.1,0.1-0.2,0.1-0.3,0.2s-0.3,0.1-0.5,0.2
				s-0.3,0.1-0.5,0.1s-0.3,0.1-0.4,0.1c-0.2,0-0.5,0-0.7-0.1c-0.2,0-0.5-0.1-0.7-0.1s-0.5-0.1-0.7-0.1S-199.2,399.3-199.4,399.3z"/>
			<path id="XMLID_138_" class="st2" d="M-188.3,397.9c0-0.3,0.1-0.5,0.2-0.8c0.1-0.3,0.2-0.6,0.4-0.9c0.2-0.3,0.3-0.6,0.5-0.9
				c0.2-0.3,0.3-0.6,0.5-0.8c0,0,0-0.1,0.1-0.1c0-0.1,0.1-0.2,0.1-0.3c0-0.1,0.1-0.2,0.1-0.2c0-0.1,0.1-0.1,0.1-0.1l0.5-0.3l0,0l0,0
				v-0.1c0-0.1,0-0.2-0.1-0.4c-0.1-0.1-0.1-0.2-0.2-0.3c0,0,0.1-0.1,0.1-0.2s0.1-0.2,0.1-0.3c0-0.1,0.1-0.2,0.1-0.3s0.1-0.1,0.1-0.2
				v-0.5c0-0.1,0.1-0.3,0.2-0.4c0.1-0.1,0.2-0.2,0.2-0.3c0.1-0.1,0.1-0.2,0.2-0.3c0.1-0.1,0.1-0.3,0.1-0.4c0-0.2,0-0.4,0-0.5
				c0-0.1-0.1-0.3-0.2-0.5h-0.1c-0.2,0-0.3,0.1-0.5,0.2c-0.1,0.1-0.3,0.3-0.4,0.5c-0.1,0.2-0.2,0.4-0.4,0.5
				c-0.2,0.2-0.4,0.3-0.6,0.3h-0.1c0,0-0.1,0-0.1-0.1v-0.4c0-0.3,0.1-0.5,0.3-0.8s0.5-0.5,0.8-0.7c0.3-0.2,0.7-0.5,1.1-0.7
				c0.4-0.2,0.8-0.4,1.2-0.5c0.4-0.2,0.8-0.3,1.1-0.4c0.3-0.1,0.6-0.1,0.8-0.1c0.1,0,0.3,0.1,0.4,0.2c0.1,0.1,0.1,0.2,0.1,0.4
				c0,0.2,0,0.4-0.1,0.7c0,0.2-0.1,0.5-0.2,0.7c-0.1,0.2-0.1,0.5-0.2,0.7c-0.1,0.2-0.2,0.4-0.3,0.6c0,0,0,0,0,0.1l-0.1,0.1l-0.1,0.1
				v0.1v0.2c-0.1,0.3-0.2,0.6-0.3,0.9c-0.2,0.3-0.3,0.6-0.5,0.9c-0.2,0.3-0.4,0.6-0.6,0.8c-0.2,0.3-0.4,0.5-0.5,0.8
				c0,0-0.1,0.1-0.2,0.2c-0.1,0.1-0.2,0.1-0.2,0.2c0,0,0,0.1,0,0.2s0,0.2,0,0.3c0,0.1,0,0.2,0,0.2c0,0.1,0,0.1,0,0.1s0,0.1-0.1,0.2
				c0,0.1-0.1,0.2-0.1,0.3s-0.1,0.2-0.1,0.3s-0.1,0.1-0.1,0.1s0,0.1,0,0.2c0,0.1,0,0.3,0,0.4s0,0.1,0,0.1v0.1c0,0,0,0.1-0.1,0.2
				c-0.1,0.1-0.1,0.2-0.1,0.3c0,0.2,0.1,0.4,0.3,0.5c0.2,0.1,0.4,0.1,0.6,0.1h0.4c0,0,0.1-0.1,0.2-0.2c0.1-0.1,0.2-0.2,0.3-0.2
				c0.1-0.1,0.2-0.2,0.3-0.3c0.1-0.1,0.1-0.1,0.2-0.2c0.4-0.3,0.7-0.6,1-0.9c0.3-0.3,0.6-0.7,1-1c0.2-0.3,0.4-0.7,0.6-1.1
				c0.2-0.4,0.4-0.7,0.6-1.1c0,0,0-0.1,0.1-0.1c0-0.1,0.1-0.2,0.1-0.3s0.1-0.2,0.1-0.3c0-0.1,0-0.1,0-0.2l0.1-0.1
				c0.1-0.1,0.2-0.1,0.3-0.2c0.1-0.1,0.2-0.1,0.3-0.2c0.1-0.1,0.1-0.1,0.2-0.1c0-0.1,0.1-0.1,0.1-0.2c0.1-0.1,0.1-0.1,0.1-0.1v-0.5
				c0.1-0.2,0.1-0.3,0.2-0.5c0.1-0.2,0.2-0.3,0.3-0.4c0.1-0.1,0.2-0.3,0.3-0.4c0.1-0.1,0.1-0.3,0.2-0.4c0.1-0.2,0.2-0.5,0.3-0.7
				c0.1-0.2,0.2-0.4,0.3-0.6c0.1-0.2,0.3-0.3,0.5-0.5c0.2-0.1,0.5-0.2,0.8-0.2c0.2,0,0.3,0,0.4,0.1c0.1,0.1,0.2,0.1,0.2,0.2
				c0,0.1,0.1,0.2,0.1,0.3s0,0.3,0,0.4c0,0.3,0,0.5-0.1,0.7c-0.1,0.2-0.2,0.4-0.3,0.6c-0.1,0.2-0.2,0.4-0.4,0.5
				c-0.1,0.2-0.2,0.4-0.4,0.6c0,0,0,0.1-0.1,0.2c0,0.1-0.1,0.2-0.1,0.3c0,0.1-0.1,0.2-0.1,0.3s-0.1,0.2-0.1,0.2s0,0.1-0.1,0.1
				c-0.1,0.1-0.1,0.1-0.2,0.2c-0.1,0.1-0.1,0.1-0.2,0.2c-0.1,0.1-0.1,0.1-0.1,0.1c-0.3,0.3-0.4,0.6-0.4,1s-0.1,0.7-0.1,1.1
				c0,0.1-0.1,0.2-0.2,0.4c-0.1,0.2-0.2,0.4-0.4,0.6c-0.1,0.2-0.3,0.4-0.4,0.6c-0.1,0.2-0.2,0.3-0.2,0.4s0.1,0.3,0.2,0.4
				c0.1,0.2,0.2,0.2,0.4,0.2s0.4-0.1,0.7-0.2c0.2-0.1,0.5-0.2,0.7-0.4s0.5-0.3,0.7-0.5c0.2-0.2,0.4-0.3,0.6-0.4l0.1-0.1h0.1
				c0.1,0,0.2,0,0.2,0.1s0,0.2,0,0.3c0,0,0,0,0,0.1c0,0,0,0,0,0.1v0.1c0,0,0,0,0,0.1l-0.1,0.1l-0.1,0.1l-0.1,0.1l-0.1,0.3
				c-0.1,0.2-0.3,0.5-0.5,0.7c-0.3,0.3-0.5,0.5-0.8,0.8c-0.3,0.3-0.6,0.5-1,0.7c-0.3,0.2-0.6,0.4-0.8,0.5c0,0-0.1,0-0.2,0.1
				c-0.1,0-0.2,0-0.2,0s0,0-0.1,0c-0.1,0-0.1,0-0.2,0c-0.1,0-0.1,0-0.2,0.1c-0.1,0-0.1,0-0.1,0c-0.1,0.1-0.2,0.1-0.4,0.1
				c-0.1,0-0.3,0-0.4,0s-0.3,0-0.4,0c-0.1,0-0.3,0-0.4-0.1c-0.1,0-0.2-0.1-0.3-0.2c-0.1-0.1-0.3-0.3-0.5-0.4
				c-0.2-0.2-0.3-0.3-0.5-0.5s-0.3-0.3-0.4-0.4c-0.2,0.1-0.4,0.3-0.6,0.4c-0.2,0.2-0.4,0.3-0.6,0.4c-0.1,0.1-0.3,0.1-0.4,0.2
				s-0.2,0.2-0.4,0.3c-0.1,0.1-0.2,0.2-0.3,0.3c-0.1,0.1-0.2,0.1-0.3,0.1h-0.4c-0.3,0-0.6-0.1-0.8-0.1s-0.5-0.1-0.6-0.2
				c-0.2-0.1-0.3-0.3-0.4-0.5C-188.3,398.6-188.3,398.3-188.3,397.9z"/>
			<path id="XMLID_135_" class="st2" d="M-173.2,396.8c0-0.1,0-0.3,0.1-0.6c0-0.3,0.1-0.6,0.1-1c0.1-0.4,0.1-0.7,0.2-1.1
				c0.1-0.4,0.2-0.7,0.3-1.1c0.1-0.3,0.2-0.6,0.3-0.9c0.1-0.2,0.2-0.4,0.3-0.5c0-0.6,0.1-1.2,0.3-1.8c0.2-0.6,0.4-1.2,0.6-1.7
				c0,0,0,0,0.1-0.1c0-0.1,0.1-0.1,0.1-0.2c0-0.1,0.1-0.2,0.1-0.3s0.1-0.2,0.1-0.2s0.1-0.1,0.1-0.3c0.1-0.2,0.1-0.4,0.2-0.6l0.3-0.8
				c0-0.1,0-0.2-0.1-0.3c0-0.1-0.1-0.2-0.1-0.3c0,0,0.1-0.1,0.2-0.2c0.1-0.1,0.1-0.2,0.2-0.3c0.1-0.1,0.1-0.2,0.2-0.3
				c0.1-0.1,0.1-0.2,0.1-0.2s0-0.1,0-0.2c0-0.1,0-0.2,0-0.3s0-0.2,0-0.3c0-0.1,0-0.1,0-0.1c0.1-0.7,0.3-1.3,0.6-2
				c0.3-0.6,0.5-1.3,0.6-2c0.1-0.2,0.1-0.3,0.2-0.5c0.1-0.2,0.1-0.3,0.1-0.6c0-0.2,0-0.3-0.1-0.5s-0.1-0.3-0.2-0.4s-0.2-0.3-0.3-0.4
				c-0.1-0.1-0.2-0.3-0.3-0.4c0,0,0-0.1-0.1-0.1c0-0.1,0-0.1,0-0.1c0-0.2,0.1-0.3,0.2-0.4c0.1-0.1,0.3-0.1,0.5-0.2
				c0.2,0,0.4-0.1,0.6-0.1s0.4-0.1,0.5-0.1h1.9c0,0,0.1,0,0.1,0.1c0.1,0.1,0.1,0.1,0.2,0.2v0.2c-0.1,0.3-0.1,0.6-0.1,1
				c0,0.3-0.1,0.6-0.2,0.8c-0.1,0.3-0.3,0.6-0.4,1c-0.2,0.3-0.3,0.7-0.3,1c0,0,0,0.1-0.1,0.2c0,0.1,0,0.2-0.1,0.4
				c0,0.1-0.1,0.2-0.1,0.3s0,0.2-0.1,0.2c0,0,0,0.1-0.1,0.1c0,0-0.1,0.1-0.1,0.2s-0.1,0.1-0.1,0.2l-0.1,0.1c0,0,0,0.1,0,0.2
				s0,0.2,0,0.3c0,0,0,0,0,0.1l0,0c0,0.2-0.1,0.5-0.1,0.7c-0.1,0.2-0.2,0.5-0.3,0.7c-0.1,0.2-0.2,0.5-0.3,0.7
				c-0.1,0.2-0.2,0.4-0.3,0.6l-0.4,0.5v0.9c0,0,0,0,0,0.1c0,0,0,0.1-0.1,0.1l-0.1,0.1v0.1v0.2c0,0.1,0,0.2,0.1,0.3
				c0.1,0.1,0.1,0.1,0.2,0.2c0.1,0,0.2,0.1,0.3,0.1c0.1,0,0.2,0,0.3,0s0.2-0.1,0.4-0.2c0.2-0.1,0.4-0.3,0.7-0.4
				c0.3-0.2,0.5-0.3,0.8-0.4s0.5-0.2,0.7-0.2c0.4,0,0.8,0.1,1.1,0.2c0.3,0.1,0.6,0.2,0.8,0.4c0.2,0.2,0.4,0.4,0.5,0.8
				c0.1,0.3,0.2,0.7,0.2,1.2v0.4c0,0.2,0,0.4,0,0.6c0,0.2,0,0.3-0.1,0.5c0,0,0,0-0.1,0.1c0,0.1-0.1,0.1-0.1,0.2
				c0,0.1-0.1,0.1-0.1,0.2s-0.1,0.1-0.1,0.1c-0.1,0.2-0.2,0.5-0.3,0.7c-0.1,0.3-0.2,0.5-0.3,0.8c-0.1,0.1-0.2,0.2-0.3,0.3
				c-0.2,0.1-0.3,0.3-0.5,0.4c-0.2,0.2-0.3,0.3-0.4,0.5c-0.1,0.2-0.2,0.3-0.2,0.4v0.1c0,0.1,0,0.1,0,0.1l0.1,0.2
				c0,0.1,0,0.3-0.1,0.4c-0.1,0.1-0.1,0.3-0.2,0.4c-0.1,0.1-0.2,0.2-0.3,0.4c-0.1,0.1-0.2,0.2-0.2,0.4c-0.2,0.3-0.3,0.6-0.5,1
				c-0.2,0.3-0.3,0.7-0.4,1c0,0.1-0.1,0.1-0.2,0.1s-0.2,0-0.2,0.1c-0.1,0-0.2,0-0.2,0c-0.1,0-0.1,0-0.2,0c0,0,0,0.1-0.1,0.2v0.1
				c-0.2,0.2-0.4,0.4-0.7,0.6c-0.3,0.2-0.6,0.3-1,0.5c-0.4,0.1-0.7,0.2-1,0.3c-0.3,0.1-0.6,0.1-0.8,0.1c-0.6,0-1.2-0.2-1.7-0.5
				c-0.5-0.3-0.9-0.8-1.2-1.4v-1.1H-173.2z M-171,396.3c0,0,0,0.1,0.1,0.1c0.1,0.1,0.1,0.1,0.2,0.1v0.1c0,0.1,0,0.1,0.1,0.1
				c0,0.1,0.1,0.2,0.1,0.3c0,0.1,0.1,0.2,0.1,0.3s0.1,0.2,0.2,0.3c0.1,0.1,0.2,0.1,0.4,0.1c0.1,0,0.2-0.1,0.3-0.2
				c0.2-0.1,0.4-0.3,0.6-0.5c0.2-0.2,0.5-0.4,0.7-0.6c0.3-0.2,0.5-0.5,0.7-0.7c0.2-0.2,0.4-0.4,0.5-0.5c0.1-0.2,0.2-0.2,0.2-0.3
				v-0.1c0-0.1,0-0.2,0.1-0.3c0-0.1,0-0.2,0.1-0.3c0-0.1,0-0.1,0.1-0.1c0-0.1,0.1-0.2,0.3-0.3c0.2-0.1,0.3-0.2,0.4-0.2
				c0.1-0.1,0.1-0.2,0.2-0.4c0-0.1,0.1-0.3,0.1-0.4s0-0.2,0.1-0.4c0-0.1,0.1-0.2,0.1-0.3c0,0,0,0,0.1-0.1c0.1-0.1,0.1-0.1,0.2-0.2
				c0.1-0.1,0.1-0.1,0.2-0.2c0.1-0.1,0.1-0.1,0.1-0.1s0-0.1,0.1-0.1c0-0.1,0.1-0.1,0.1-0.1c0-0.4,0.1-0.8,0.2-1.2
				c0.1-0.4,0.1-0.9,0.1-1.3c0-0.2,0-0.4,0-0.6c0-0.2-0.1-0.4-0.1-0.5c-0.1-0.2-0.2-0.3-0.3-0.4s-0.3-0.1-0.5-0.1s-0.3,0-0.5,0.1
				c-0.2,0-0.3,0.1-0.5,0.2c-0.2,0.1-0.3,0.1-0.5,0.2s-0.3,0.1-0.5,0.1c0,0-0.1,0.1-0.2,0.2c-0.1,0.1-0.2,0.2-0.3,0.3
				s-0.2,0.2-0.3,0.4c-0.1,0.1-0.2,0.2-0.2,0.2c-0.1,0.1-0.2,0.2-0.3,0.4c-0.1,0.1-0.1,0.3-0.2,0.4s-0.1,0.3-0.2,0.4
				c-0.1,0.1-0.1,0.3-0.2,0.4l-0.2,0.2v0.1c0,0.1,0,0.1,0,0.2c0,0.1,0,0.1,0,0.2s0,0.1,0,0.1v0.1c0,0.1,0,0.1,0,0.2
				c0,0.1,0,0.1-0.1,0.2c0,0.1,0,0.1-0.1,0.1c-0.2,0.5-0.4,0.9-0.7,1.4s-0.4,0.9-0.5,1.4c0,0,0,0,0,0.1s0,0.1,0,0.2
				c0,0.1,0,0.1,0,0.2s0,0.1,0,0.1v0.3c0,0.1,0,0.2-0.1,0.3C-171,396-171,396.1-171,396.3L-171,396.3z"/>
			<path id="XMLID_133_" class="st2" d="M-154.3,398.5v-0.1c0-0.1,0.1-0.2,0.1-0.3c0-0.1,0.1-0.2,0.1-0.3c0-0.1,0.1-0.2,0.1-0.3
				c0,0,0.1-0.1,0.1-0.2l0.1-0.1c0,0,0-0.1,0.1-0.2c0-0.1,0-0.2,0-0.3c0-0.1,0-0.2,0-0.2c0-0.1,0-0.1,0-0.1c0.1-0.3,0.2-0.5,0.3-0.6
				c0.1-0.2,0.2-0.3,0.3-0.5c0.1-0.2,0.2-0.3,0.2-0.5c0.1-0.2,0.1-0.4,0.1-0.7c0.1,0,0.1-0.1,0.2-0.1c0.1-0.1,0.2-0.1,0.2-0.2
				c0-0.1,0-0.2,0.1-0.3s0.1-0.3,0.2-0.5s0.1-0.3,0.2-0.5s0.1-0.3,0.1-0.3c0.1-0.2,0.2-0.4,0.3-0.6c0.1-0.2,0.2-0.4,0.3-0.6
				c0.1-0.2,0.2-0.4,0.3-0.7c0.1-0.2,0.1-0.5,0.1-0.7l-0.1-0.3c-0.1-0.2-0.2-0.4-0.2-0.6c-0.1-0.2-0.2-0.4-0.3-0.5
				c-0.1-0.2-0.3-0.3-0.5-0.4c-0.2-0.1-0.4-0.1-0.7-0.1c-0.2,0-0.4,0.1-0.6,0.2s-0.3,0.3-0.4,0.5c-0.1,0.2-0.2,0.4-0.3,0.6
				c-0.1,0.2-0.2,0.4-0.3,0.5c0.2-0.1,0.2-0.1,0,0c-0.1,0-0.2,0.1-0.2,0.2c0,0,0,0,0,0.1c0,0,0,0.1-0.1,0.1c0,0,0,0.1-0.1,0.1v0.1
				c0,0,0,0.1-0.1,0.1c-0.1,0.1-0.1,0.1-0.2,0.2c-0.1,0.1-0.1,0.1-0.2,0.2c-0.1,0.1-0.1,0.1-0.1,0.1c-0.5,1.3-1,2.4-1.4,3.4
				c-0.2,0.4-0.4,0.9-0.6,1.3s-0.4,0.8-0.5,1.2c-0.2,0.4-0.3,0.6-0.4,0.9c-0.1,0.2-0.2,0.4-0.2,0.5c-0.1,0.2-0.2,0.3-0.3,0.4
				s-0.2,0.2-0.3,0.3c-0.1,0.1-0.2,0.2-0.3,0.3s-0.3,0.2-0.4,0.3l-0.4,0.1c-0.2,0-0.3,0-0.4-0.1c-0.1-0.1-0.2-0.2-0.3-0.3
				c-0.1-0.1-0.1-0.3-0.2-0.4c0-0.2-0.1-0.3-0.1-0.4c0-0.2,0.1-0.4,0.2-0.8c0.1-0.3,0.3-0.7,0.5-1.1s0.4-0.7,0.5-1.1
				c0.2-0.3,0.3-0.6,0.4-0.8c0.1-0.2,0.1-0.4,0.2-0.6c0-0.2,0.1-0.5,0.2-0.7c0-0.1,0.1-0.1,0.2-0.3c0.1-0.1,0.2-0.2,0.3-0.4
				c0.1-0.1,0.2-0.3,0.3-0.4s0.2-0.3,0.2-0.4c0.1-0.2,0.1-0.4,0.2-0.7c0.1-0.2,0.2-0.4,0.3-0.6c0.1-0.2,0.2-0.4,0.3-0.6
				c0.1-0.2,0.1-0.4,0.1-0.7c0-0.1,0-0.1,0-0.3c0-0.1,0-0.2,0-0.2c-0.1-0.3-0.3-0.5-0.6-0.6h-0.2c-0.1,0-0.3,0-0.3,0.1
				c-0.1,0-0.1,0.1-0.2,0.2c0,0.1-0.1,0.2-0.1,0.3s-0.1,0.2-0.1,0.3c0,0-0.1,0.1-0.3,0.2c-0.2,0.1-0.3,0.3-0.5,0.4
				c-0.2,0.2-0.3,0.3-0.5,0.4c-0.2,0.1-0.2,0.2-0.3,0.2c-0.1,0-0.1,0-0.1-0.1s0-0.1,0-0.1c0.1-0.2,0.2-0.4,0.3-0.5s0.2-0.3,0.3-0.4
				c0.1-0.1,0.2-0.2,0.2-0.3l0.3-0.6c0,0,0,0,0.1-0.1c0.1,0,0.1-0.1,0.2-0.1c0.1,0,0.1-0.1,0.2-0.1c0.1,0,0.1-0.1,0.1-0.1
				c0.1,0,0.1-0.1,0.2-0.2c0-0.1,0.1-0.2,0.1-0.3c0-0.1,0.1-0.2,0.2-0.3c0.1-0.1,0.1-0.2,0.2-0.2c0.1-0.1,0.2-0.1,0.3-0.2
				c0.1,0,0.3-0.1,0.4-0.1s0.3-0.1,0.4-0.1c0.1,0,0.3-0.1,0.4-0.2h1.2c0.1,0,0.2,0.1,0.3,0.3c0.1,0.2,0.1,0.4,0.2,0.6
				s0.2,0.4,0.3,0.6c0.1,0.2,0.4,0.3,0.6,0.3c0.2,0,0.4-0.1,0.5-0.2c0.1-0.1,0.2-0.3,0.3-0.4c0.2-0.2,0.4-0.3,0.6-0.5
				c0.2-0.2,0.5-0.3,0.8-0.5c0.3-0.1,0.6-0.2,0.9-0.3c0.3-0.1,0.6-0.1,0.9-0.1c0.2,0.1,0.5,0.2,0.7,0.4c0.3,0.2,0.5,0.3,0.7,0.5
				c0.1,0.1,0.2,0.2,0.3,0.4c0,0.2,0.1,0.3,0.1,0.5c0,0.2,0.1,0.3,0.1,0.4c0.1,0.1,0.2,0.2,0.5,0.2c0.2,0,0.4,0,0.5-0.1
				c0.1,0,0.2-0.1,0.3-0.2s0.1-0.1,0.2-0.2s0.2-0.2,0.3-0.2l0.1-0.1c0.1,0,0.1-0.1,0.1-0.1c0.3-0.1,0.6-0.3,0.8-0.4
				c0.2-0.2,0.4-0.3,0.6-0.5c0.2-0.1,0.4-0.3,0.7-0.4c0.2-0.1,0.6-0.1,1-0.1c0.2,0,0.5,0.1,0.7,0.2c0.3,0.1,0.5,0.3,0.7,0.5
				c0.2,0.2,0.4,0.4,0.5,0.6c0.1,0.2,0.2,0.5,0.2,0.7c0,0.1,0,0.4-0.1,0.7c-0.1,0.3-0.1,0.6-0.2,0.9c-0.1,0.3-0.2,0.6-0.3,0.9
				c-0.1,0.3-0.2,0.5-0.3,0.5l-0.1,0.1c-0.1,0.1-0.1,0.1-0.2,0.2c-0.1,0.1-0.1,0.2-0.2,0.2c-0.1,0.1-0.1,0.1-0.1,0.2v0.8
				c0,0.1-0.1,0.2-0.2,0.3s-0.2,0.2-0.2,0.2c-0.1,0.1-0.2,0.2-0.3,0.3c-0.1,0.1-0.1,0.2-0.2,0.3c0,0.1-0.1,0.2-0.1,0.3
				s-0.1,0.2-0.2,0.3c0,0,0,0.1,0,0.2s0,0.2,0,0.3c0,0.1,0,0.2,0,0.2c0,0.1,0,0.1,0,0.2v0.6c0,0.1-0.1,0.2-0.1,0.2
				c-0.1,0.1-0.1,0.1-0.2,0.2c-0.1,0.1-0.1,0.2-0.2,0.2c0,0.1-0.1,0.2-0.1,0.3c0,0.1,0,0.2,0.1,0.3s0.2,0.2,0.3,0.2s0.2,0.1,0.3,0.2
				c0.1,0,0.2,0.1,0.2,0.1c0.1,0,0.2-0.1,0.3-0.2c0.1-0.2,0.3-0.3,0.5-0.5c0.2-0.2,0.4-0.4,0.6-0.5c0.2-0.2,0.5-0.2,0.8-0.2
				c0,0.1,0,0.3,0,0.5c0,0.2-0.1,0.3-0.3,0.5l0,0c0,0,0,0,0,0.1c-0.3,0.3-0.7,0.6-1,0.9c-0.3,0.3-0.6,0.7-1,1
				c-0.3,0.3-0.7,0.5-1.1,0.8c-0.4,0.2-0.8,0.3-1.3,0.3c-0.4,0-0.6-0.1-0.8-0.3c-0.2-0.2-0.4-0.5-0.5-0.8v-0.6c0-0.4,0-0.7,0.1-1
				c0.1-0.3,0.1-0.6,0.2-0.9c0.1-0.3,0.2-0.6,0.4-0.9c0.1-0.3,0.3-0.6,0.5-0.9c0,0,0.1-0.1,0.1-0.2s0.1-0.2,0.1-0.3
				c0.1-0.2,0.2-0.3,0.3-0.5c0.1-0.2,0.2-0.3,0.3-0.4s0.2-0.3,0.3-0.5c0.1-0.2,0.2-0.3,0.2-0.5c0,0,0-0.1,0-0.2c0-0.1,0-0.2,0-0.2
				c0-0.1,0-0.2,0-0.2c0-0.1,0-0.1,0-0.1c0.1-0.2,0.1-0.3,0.2-0.5c0.1-0.2,0.2-0.3,0.3-0.5c0.1-0.2,0.2-0.3,0.2-0.5
				c0.1-0.2,0.1-0.3,0.1-0.5c0-0.1,0-0.2-0.1-0.4c0-0.2-0.1-0.3-0.2-0.5c-0.1-0.2-0.2-0.3-0.3-0.5c-0.1-0.1-0.2-0.2-0.3-0.2
				c-0.2,0-0.4,0.1-0.7,0.2c-0.3,0.2-0.5,0.3-0.8,0.6c-0.3,0.3-0.5,0.4-0.7,0.7c-0.2,0.2-0.4,0.4-0.5,0.5c0,0,0,0.1-0.1,0.2
				c0,0.1,0,0.2-0.1,0.2c0,0,0,0.1-0.1,0.2c0,0.1-0.1,0.2-0.1,0.2c-0.1,0.1-0.1,0.2-0.2,0.2c-0.1,0.1-0.1,0.1-0.1,0.2
				c-0.1,0.1-0.1,0.1-0.2,0.2c-0.1,0.1-0.2,0.1-0.3,0.2c-0.1,0.1-0.2,0.1-0.3,0.2s-0.1,0.2-0.1,0.2c0,0.1,0,0.1,0.1,0.2
				c0,0.1,0.1,0.2,0.1,0.3c0,0.3-0.1,0.5-0.2,0.7c-0.1,0.2-0.3,0.5-0.4,0.7c-0.2,0.2-0.3,0.4-0.4,0.7c-0.1,0.2-0.2,0.4-0.3,0.7v0.1
				c0,0.1,0,0.1,0,0.2c0,0.1,0,0.2,0,0.2c0,0.1,0,0.1,0,0.1s-0.1,0.1-0.2,0.2c-0.1,0.1-0.1,0.2-0.2,0.2c-0.1,0.2-0.2,0.4-0.3,0.6
				c-0.1,0.2-0.1,0.3-0.2,0.5c-0.1,0.1-0.1,0.3-0.2,0.4c-0.1,0.2-0.1,0.3-0.2,0.5c0,0,0,0-0.1,0.1c0,0-0.1,0.1-0.1,0.2
				c0,0.1-0.1,0.1-0.2,0.2s-0.1,0.1-0.1,0.2c-0.1,0.1-0.2,0.2-0.3,0.3c-0.1,0.1-0.3,0.3-0.4,0.4c-0.1,0.1-0.3,0.2-0.4,0.3
				c-0.1,0.1-0.2,0.1-0.3,0.1c-0.3,0-0.6-0.1-0.8-0.3c-0.2-0.2-0.3-0.5-0.3-0.8L-154.3,398.5z"/>
			<path id="XMLID_130_" class="st2" d="M-139,398.7c0-0.3,0-0.5,0-0.7c0-0.2,0.1-0.4,0.1-0.6c0.1-0.2,0.1-0.4,0.2-0.5
				c0.1-0.2,0.2-0.4,0.3-0.6c0,0,0-0.1,0.1-0.2c0-0.1,0-0.2,0-0.2c0.1-0.2,0.3-0.4,0.4-0.6c0.2-0.2,0.3-0.4,0.4-0.6
				c0,0,0-0.1,0.1-0.2c0-0.1,0.1-0.3,0.1-0.4s0.1-0.3,0.1-0.4c0-0.1,0.1-0.2,0.1-0.2c0.1-0.2,0.1-0.3,0.2-0.4
				c0.1-0.1,0.1-0.2,0.2-0.3s0.2-0.2,0.3-0.3c0.1-0.1,0.2-0.2,0.3-0.3c0-0.2,0.1-0.4,0.1-0.7c0-0.3,0.1-0.5,0.2-0.7
				c0.1-0.2,0.2-0.3,0.3-0.4c0.1-0.1,0.2-0.3,0.2-0.5c0-0.3-0.1-0.5-0.2-0.6c-0.2-0.2-0.4-0.2-0.6-0.2s-0.4,0-0.5,0.1
				s-0.3,0.2-0.4,0.3c-0.1,0.1-0.3,0.2-0.5,0.3c-0.2,0.1-0.4,0.1-0.7,0.1c0-0.3,0.1-0.5,0.2-0.6c0.1-0.2,0.2-0.3,0.3-0.4
				s0.3-0.2,0.4-0.3c0.2-0.1,0.3-0.2,0.5-0.4c0,0,0.1-0.1,0.2-0.2c0.1-0.1,0.2-0.2,0.3-0.3c0.1-0.1,0.2-0.2,0.3-0.3s0.2-0.2,0.2-0.2
				c0.1-0.1,0.2-0.2,0.3-0.2s0.2-0.1,0.3-0.1c0.1,0,0.2,0,0.3,0s0.3,0,0.4-0.1c0.2,0,0.3-0.1,0.4-0.2c0.1-0.1,0.2-0.2,0.3-0.3
				s0.3-0.2,0.4-0.3c0.2-0.1,0.4-0.1,0.7-0.1c0,0,0.1,0,0.2,0c0.1,0,0.2,0,0.3,0.1c0.1,0,0.2,0.1,0.3,0.1s0.1,0.1,0.1,0.2v1.1
				c0,0.1,0,0.1-0.1,0.2c0,0.1-0.1,0.2-0.1,0.3c-0.1,0.1-0.1,0.2-0.1,0.3c0,0.1-0.1,0.2-0.1,0.2c0,0.1-0.1,0.2-0.1,0.4
				c0,0.1-0.1,0.2-0.1,0.2s0,0.1-0.1,0.1c0,0.1-0.1,0.1-0.1,0.2s-0.1,0.1-0.1,0.2s-0.1,0.1-0.1,0.1v0.3c0,0.1,0,0.2-0.1,0.2
				c0,0.1-0.1,0.1-0.1,0.2c0,0-0.1,0.1-0.2,0.1c-0.1,0.1-0.1,0.1-0.2,0.2c0,0,0,0.1-0.1,0.1c0,0.1-0.1,0.1-0.1,0.2
				c-0.1,0.2-0.1,0.4-0.1,0.6s-0.1,0.3-0.2,0.4c-0.1,0.1-0.1,0.3-0.2,0.4c-0.1,0.1-0.2,0.3-0.2,0.5c-0.1,0.2-0.2,0.4-0.2,0.7
				c-0.1,0.2-0.1,0.5-0.2,0.7c-0.1,0.2-0.2,0.4-0.3,0.6c-0.1,0.2-0.3,0.4-0.4,0.5c0,0.1,0,0.3,0,0.4c0,0.1,0,0.3,0.1,0.4
				c0,0.1,0.1,0.2,0.2,0.3c0.1,0.1,0.2,0.1,0.4,0.1c0.2,0,0.4-0.1,0.6-0.2c0.2-0.1,0.4-0.3,0.7-0.5c0.2-0.2,0.5-0.3,0.8-0.5
				c0.3-0.1,0.6-0.2,0.9-0.2c0,0.1,0,0.2-0.1,0.4c0,0.1-0.1,0.3-0.2,0.3l-2.2,2.6c0,0,0,0-0.1,0c0,0,0,0-0.1,0h-0.1
				c-0.5,0.3-1,0.6-1.5,0.8c-0.5,0.2-1.1,0.3-1.7,0.3c-0.1,0-0.2,0-0.4-0.1c-0.2,0-0.3-0.1-0.5-0.2c-0.2-0.1-0.3-0.2-0.4-0.3
				C-139,399-139,398.9-139,398.7z M-132.3,379.1c0-0.2,0-0.4,0.1-0.6c0.1-0.2,0.2-0.4,0.4-0.5s0.4-0.2,0.6-0.3
				c0.2-0.1,0.4-0.1,0.7-0.1c0.1,0,0.3,0,0.5,0c0.2,0,0.4,0,0.6,0.1c0.1,0,0.2,0.1,0.3,0.3c0.1,0.2,0.2,0.3,0.3,0.5
				c0.1,0.2,0.1,0.4,0.2,0.6c0,0.2,0.1,0.3,0.1,0.4s0,0.2-0.1,0.3s-0.1,0.2-0.2,0.4c-0.1,0.2-0.2,0.4-0.3,0.6
				c-0.1,0.1-0.2,0.3-0.3,0.3c-0.1,0.1-0.2,0.1-0.4,0.2c-0.2,0-0.4,0-0.7,0c-0.3,0-0.6-0.1-0.8-0.2c-0.2-0.1-0.4-0.3-0.6-0.5
				c-0.2-0.2-0.3-0.4-0.4-0.7C-132.3,379.6-132.3,379.4-132.3,379.1z"/>
			<path id="XMLID_128_" class="st2" d="M-129.8,397.9c0-0.2,0-0.5,0.1-0.8c0.1-0.3,0.2-0.6,0.3-0.8c0.1-0.3,0.2-0.6,0.4-0.8
				c0.1-0.3,0.2-0.5,0.3-0.7c0.1-0.2,0.2-0.3,0.3-0.4s0.2-0.2,0.3-0.2c0.1-0.1,0.2-0.2,0.3-0.3c0.1-0.1,0.1-0.3,0.1-0.5l-0.1-0.6
				c0-0.1,0-0.3,0.1-0.4s0.1-0.3,0.2-0.4s0.1-0.3,0.2-0.4c0.1-0.1,0.1-0.3,0.1-0.4l0.8-1.7c0-0.3-0.1-0.5-0.2-0.7
				c-0.2-0.1-0.3-0.3-0.5-0.4s-0.4-0.2-0.5-0.3c-0.2-0.1-0.2-0.3-0.2-0.6c0-0.1,0-0.2,0.1-0.3c0.1-0.1,0.1-0.1,0.2-0.2
				s0.2-0.1,0.3-0.1c0.1,0,0.2,0,0.3,0l0.7,0.2c0.1,0,0.2,0,0.4,0c0.1,0,0.3-0.1,0.4-0.1s0.2-0.1,0.3-0.2c0.1-0.1,0.2-0.1,0.2-0.2
				c0-0.1,0.1-0.2,0.2-0.4c0.1-0.2,0.2-0.3,0.3-0.5c0.1-0.2,0.2-0.4,0.3-0.5c0.1-0.2,0.1-0.3,0.2-0.4c0.1-0.3,0.2-0.5,0.3-0.7
				c0.1-0.2,0.2-0.4,0.3-0.6c0.1-0.2,0.3-0.3,0.4-0.4c0.2-0.1,0.4-0.1,0.7-0.1c0.1,0,0.3,0.1,0.4,0.2c0.1,0.1,0.2,0.2,0.2,0.3v0.5
				c0,0.2,0,0.4-0.1,0.6c-0.1,0.2-0.2,0.4-0.2,0.6c-0.1,0.2-0.2,0.4-0.2,0.5c-0.1,0.2-0.1,0.4-0.1,0.6c0,0.2,0,0.3,0.1,0.4
				c0.1,0.1,0.2,0.2,0.4,0.2c0.2,0,0.3,0.1,0.5,0.1s0.4,0,0.6,0s0.5,0,0.7,0s0.4,0.1,0.6,0.1c0.2,0.1,0.3,0.2,0.5,0.3
				c0.1,0.1,0.2,0.3,0.2,0.5v0.2c-0.3,0.3-0.5,0.5-0.7,0.7c-0.2,0.2-0.5,0.2-0.9,0.2s-0.7,0-1.1-0.1c-0.3-0.1-0.7-0.1-1.1-0.1
				c0,0-0.1,0-0.2,0.1c-0.1,0-0.2,0.1-0.4,0.2c-0.1,0.1-0.3,0.1-0.4,0.2c-0.1,0.1-0.2,0.1-0.2,0.2s0,0.2,0,0.3c0,0.1,0,0.1,0,0.2
				s0,0.1,0,0.1c0,0.1-0.1,0.2-0.1,0.3s-0.1,0.2-0.1,0.2l-0.6,1.4v0.1c0,0.1,0,0.2,0,0.3s0,0.2-0.1,0.3c0,0.1-0.1,0.2-0.1,0.3
				c0,0-0.1,0.1-0.2,0.2c-0.1,0.1-0.2,0.2-0.2,0.2c-0.1,0.1-0.2,0.2-0.2,0.2c-0.1,0.1-0.1,0.1-0.2,0.2c0,0.1,0,0.2-0.1,0.3
				c0,0.1-0.1,0.2-0.1,0.2c0,0.1-0.1,0.1-0.1,0.2s-0.1,0.2-0.1,0.3v0.5c0,0.1-0.1,0.3-0.2,0.4c-0.1,0.1-0.2,0.3-0.3,0.4
				c-0.1,0.1-0.2,0.3-0.3,0.4s-0.1,0.3-0.1,0.4c0,0.3,0.1,0.4,0.3,0.5c0.2,0.1,0.4,0.1,0.6,0.1c0.4,0,0.7-0.1,1.1-0.3
				c0.3-0.2,0.7-0.5,1-0.8c0.3-0.3,0.7-0.5,1-0.8c0.4-0.2,0.7-0.3,1.1-0.3c0,0.2-0.1,0.5-0.2,0.7c-0.1,0.2-0.3,0.5-0.5,0.7
				s-0.4,0.4-0.7,0.6c-0.3,0.2-0.5,0.4-0.7,0.5c0,0,0,0-0.1,0c0,0-0.1,0-0.1,0.1c-0.1,0-0.1,0.1-0.2,0.1c-0.1,0.1-0.2,0.1-0.4,0.2
				c-0.3,0.2-0.5,0.4-0.8,0.7c-0.2,0.2-0.5,0.4-0.8,0.6c-0.3,0.2-0.6,0.4-0.9,0.5s-0.6,0.2-1,0.2c-0.3,0-0.5-0.1-0.7-0.2
				c-0.2-0.1-0.4-0.3-0.6-0.4c-0.2-0.2-0.3-0.4-0.4-0.6C-129.8,398.4-129.8,398.1-129.8,397.9z"/>
		</g>
	</g>
</g>
</svg>
